G04 #@! TF.GenerationSoftware,KiCad,Pcbnew,(5.1.6)-1*
G04 #@! TF.CreationDate,2020-10-12T20:39:35+02:00*
G04 #@! TF.ProjectId,TestRig-PCB,54657374-5269-4672-9d50-43422e6b6963,rev?*
G04 #@! TF.SameCoordinates,Original*
G04 #@! TF.FileFunction,Paste,Top*
G04 #@! TF.FilePolarity,Positive*
%FSLAX46Y46*%
G04 Gerber Fmt 4.6, Leading zero omitted, Abs format (unit mm)*
G04 Created by KiCad (PCBNEW (5.1.6)-1) date 2020-10-12 20:39:35*
%MOMM*%
%LPD*%
G01*
G04 APERTURE LIST*
%ADD10C,5.000000*%
%ADD11R,0.300000X1.300000*%
%ADD12R,1.800000X2.200000*%
%ADD13R,0.800000X0.300000*%
G04 APERTURE END LIST*
D10*
X221000000Y-26000000D03*
X91000000Y-26000000D03*
G36*
G01*
X192650000Y-120743750D02*
X192650000Y-121256250D01*
G75*
G02*
X192431250Y-121475000I-218750J0D01*
G01*
X191993750Y-121475000D01*
G75*
G02*
X191775000Y-121256250I0J218750D01*
G01*
X191775000Y-120743750D01*
G75*
G02*
X191993750Y-120525000I218750J0D01*
G01*
X192431250Y-120525000D01*
G75*
G02*
X192650000Y-120743750I0J-218750D01*
G01*
G37*
G36*
G01*
X194225000Y-120743750D02*
X194225000Y-121256250D01*
G75*
G02*
X194006250Y-121475000I-218750J0D01*
G01*
X193568750Y-121475000D01*
G75*
G02*
X193350000Y-121256250I0J218750D01*
G01*
X193350000Y-120743750D01*
G75*
G02*
X193568750Y-120525000I218750J0D01*
G01*
X194006250Y-120525000D01*
G75*
G02*
X194225000Y-120743750I0J-218750D01*
G01*
G37*
G36*
G01*
X192650000Y-118743750D02*
X192650000Y-119256250D01*
G75*
G02*
X192431250Y-119475000I-218750J0D01*
G01*
X191993750Y-119475000D01*
G75*
G02*
X191775000Y-119256250I0J218750D01*
G01*
X191775000Y-118743750D01*
G75*
G02*
X191993750Y-118525000I218750J0D01*
G01*
X192431250Y-118525000D01*
G75*
G02*
X192650000Y-118743750I0J-218750D01*
G01*
G37*
G36*
G01*
X194225000Y-118743750D02*
X194225000Y-119256250D01*
G75*
G02*
X194006250Y-119475000I-218750J0D01*
G01*
X193568750Y-119475000D01*
G75*
G02*
X193350000Y-119256250I0J218750D01*
G01*
X193350000Y-118743750D01*
G75*
G02*
X193568750Y-118525000I218750J0D01*
G01*
X194006250Y-118525000D01*
G75*
G02*
X194225000Y-118743750I0J-218750D01*
G01*
G37*
G36*
G01*
X192650000Y-116743750D02*
X192650000Y-117256250D01*
G75*
G02*
X192431250Y-117475000I-218750J0D01*
G01*
X191993750Y-117475000D01*
G75*
G02*
X191775000Y-117256250I0J218750D01*
G01*
X191775000Y-116743750D01*
G75*
G02*
X191993750Y-116525000I218750J0D01*
G01*
X192431250Y-116525000D01*
G75*
G02*
X192650000Y-116743750I0J-218750D01*
G01*
G37*
G36*
G01*
X194225000Y-116743750D02*
X194225000Y-117256250D01*
G75*
G02*
X194006250Y-117475000I-218750J0D01*
G01*
X193568750Y-117475000D01*
G75*
G02*
X193350000Y-117256250I0J218750D01*
G01*
X193350000Y-116743750D01*
G75*
G02*
X193568750Y-116525000I218750J0D01*
G01*
X194006250Y-116525000D01*
G75*
G02*
X194225000Y-116743750I0J-218750D01*
G01*
G37*
G36*
G01*
X192650000Y-114743750D02*
X192650000Y-115256250D01*
G75*
G02*
X192431250Y-115475000I-218750J0D01*
G01*
X191993750Y-115475000D01*
G75*
G02*
X191775000Y-115256250I0J218750D01*
G01*
X191775000Y-114743750D01*
G75*
G02*
X191993750Y-114525000I218750J0D01*
G01*
X192431250Y-114525000D01*
G75*
G02*
X192650000Y-114743750I0J-218750D01*
G01*
G37*
G36*
G01*
X194225000Y-114743750D02*
X194225000Y-115256250D01*
G75*
G02*
X194006250Y-115475000I-218750J0D01*
G01*
X193568750Y-115475000D01*
G75*
G02*
X193350000Y-115256250I0J218750D01*
G01*
X193350000Y-114743750D01*
G75*
G02*
X193568750Y-114525000I218750J0D01*
G01*
X194006250Y-114525000D01*
G75*
G02*
X194225000Y-114743750I0J-218750D01*
G01*
G37*
G36*
G01*
X167650000Y-120743750D02*
X167650000Y-121256250D01*
G75*
G02*
X167431250Y-121475000I-218750J0D01*
G01*
X166993750Y-121475000D01*
G75*
G02*
X166775000Y-121256250I0J218750D01*
G01*
X166775000Y-120743750D01*
G75*
G02*
X166993750Y-120525000I218750J0D01*
G01*
X167431250Y-120525000D01*
G75*
G02*
X167650000Y-120743750I0J-218750D01*
G01*
G37*
G36*
G01*
X169225000Y-120743750D02*
X169225000Y-121256250D01*
G75*
G02*
X169006250Y-121475000I-218750J0D01*
G01*
X168568750Y-121475000D01*
G75*
G02*
X168350000Y-121256250I0J218750D01*
G01*
X168350000Y-120743750D01*
G75*
G02*
X168568750Y-120525000I218750J0D01*
G01*
X169006250Y-120525000D01*
G75*
G02*
X169225000Y-120743750I0J-218750D01*
G01*
G37*
G36*
G01*
X167650000Y-118743750D02*
X167650000Y-119256250D01*
G75*
G02*
X167431250Y-119475000I-218750J0D01*
G01*
X166993750Y-119475000D01*
G75*
G02*
X166775000Y-119256250I0J218750D01*
G01*
X166775000Y-118743750D01*
G75*
G02*
X166993750Y-118525000I218750J0D01*
G01*
X167431250Y-118525000D01*
G75*
G02*
X167650000Y-118743750I0J-218750D01*
G01*
G37*
G36*
G01*
X169225000Y-118743750D02*
X169225000Y-119256250D01*
G75*
G02*
X169006250Y-119475000I-218750J0D01*
G01*
X168568750Y-119475000D01*
G75*
G02*
X168350000Y-119256250I0J218750D01*
G01*
X168350000Y-118743750D01*
G75*
G02*
X168568750Y-118525000I218750J0D01*
G01*
X169006250Y-118525000D01*
G75*
G02*
X169225000Y-118743750I0J-218750D01*
G01*
G37*
G36*
G01*
X167650000Y-116743750D02*
X167650000Y-117256250D01*
G75*
G02*
X167431250Y-117475000I-218750J0D01*
G01*
X166993750Y-117475000D01*
G75*
G02*
X166775000Y-117256250I0J218750D01*
G01*
X166775000Y-116743750D01*
G75*
G02*
X166993750Y-116525000I218750J0D01*
G01*
X167431250Y-116525000D01*
G75*
G02*
X167650000Y-116743750I0J-218750D01*
G01*
G37*
G36*
G01*
X169225000Y-116743750D02*
X169225000Y-117256250D01*
G75*
G02*
X169006250Y-117475000I-218750J0D01*
G01*
X168568750Y-117475000D01*
G75*
G02*
X168350000Y-117256250I0J218750D01*
G01*
X168350000Y-116743750D01*
G75*
G02*
X168568750Y-116525000I218750J0D01*
G01*
X169006250Y-116525000D01*
G75*
G02*
X169225000Y-116743750I0J-218750D01*
G01*
G37*
G36*
G01*
X167650000Y-114743750D02*
X167650000Y-115256250D01*
G75*
G02*
X167431250Y-115475000I-218750J0D01*
G01*
X166993750Y-115475000D01*
G75*
G02*
X166775000Y-115256250I0J218750D01*
G01*
X166775000Y-114743750D01*
G75*
G02*
X166993750Y-114525000I218750J0D01*
G01*
X167431250Y-114525000D01*
G75*
G02*
X167650000Y-114743750I0J-218750D01*
G01*
G37*
G36*
G01*
X169225000Y-114743750D02*
X169225000Y-115256250D01*
G75*
G02*
X169006250Y-115475000I-218750J0D01*
G01*
X168568750Y-115475000D01*
G75*
G02*
X168350000Y-115256250I0J218750D01*
G01*
X168350000Y-114743750D01*
G75*
G02*
X168568750Y-114525000I218750J0D01*
G01*
X169006250Y-114525000D01*
G75*
G02*
X169225000Y-114743750I0J-218750D01*
G01*
G37*
G36*
G01*
X147650000Y-120743750D02*
X147650000Y-121256250D01*
G75*
G02*
X147431250Y-121475000I-218750J0D01*
G01*
X146993750Y-121475000D01*
G75*
G02*
X146775000Y-121256250I0J218750D01*
G01*
X146775000Y-120743750D01*
G75*
G02*
X146993750Y-120525000I218750J0D01*
G01*
X147431250Y-120525000D01*
G75*
G02*
X147650000Y-120743750I0J-218750D01*
G01*
G37*
G36*
G01*
X149225000Y-120743750D02*
X149225000Y-121256250D01*
G75*
G02*
X149006250Y-121475000I-218750J0D01*
G01*
X148568750Y-121475000D01*
G75*
G02*
X148350000Y-121256250I0J218750D01*
G01*
X148350000Y-120743750D01*
G75*
G02*
X148568750Y-120525000I218750J0D01*
G01*
X149006250Y-120525000D01*
G75*
G02*
X149225000Y-120743750I0J-218750D01*
G01*
G37*
G36*
G01*
X147650000Y-118743750D02*
X147650000Y-119256250D01*
G75*
G02*
X147431250Y-119475000I-218750J0D01*
G01*
X146993750Y-119475000D01*
G75*
G02*
X146775000Y-119256250I0J218750D01*
G01*
X146775000Y-118743750D01*
G75*
G02*
X146993750Y-118525000I218750J0D01*
G01*
X147431250Y-118525000D01*
G75*
G02*
X147650000Y-118743750I0J-218750D01*
G01*
G37*
G36*
G01*
X149225000Y-118743750D02*
X149225000Y-119256250D01*
G75*
G02*
X149006250Y-119475000I-218750J0D01*
G01*
X148568750Y-119475000D01*
G75*
G02*
X148350000Y-119256250I0J218750D01*
G01*
X148350000Y-118743750D01*
G75*
G02*
X148568750Y-118525000I218750J0D01*
G01*
X149006250Y-118525000D01*
G75*
G02*
X149225000Y-118743750I0J-218750D01*
G01*
G37*
G36*
G01*
X147650000Y-116743750D02*
X147650000Y-117256250D01*
G75*
G02*
X147431250Y-117475000I-218750J0D01*
G01*
X146993750Y-117475000D01*
G75*
G02*
X146775000Y-117256250I0J218750D01*
G01*
X146775000Y-116743750D01*
G75*
G02*
X146993750Y-116525000I218750J0D01*
G01*
X147431250Y-116525000D01*
G75*
G02*
X147650000Y-116743750I0J-218750D01*
G01*
G37*
G36*
G01*
X149225000Y-116743750D02*
X149225000Y-117256250D01*
G75*
G02*
X149006250Y-117475000I-218750J0D01*
G01*
X148568750Y-117475000D01*
G75*
G02*
X148350000Y-117256250I0J218750D01*
G01*
X148350000Y-116743750D01*
G75*
G02*
X148568750Y-116525000I218750J0D01*
G01*
X149006250Y-116525000D01*
G75*
G02*
X149225000Y-116743750I0J-218750D01*
G01*
G37*
G36*
G01*
X147650000Y-114743750D02*
X147650000Y-115256250D01*
G75*
G02*
X147431250Y-115475000I-218750J0D01*
G01*
X146993750Y-115475000D01*
G75*
G02*
X146775000Y-115256250I0J218750D01*
G01*
X146775000Y-114743750D01*
G75*
G02*
X146993750Y-114525000I218750J0D01*
G01*
X147431250Y-114525000D01*
G75*
G02*
X147650000Y-114743750I0J-218750D01*
G01*
G37*
G36*
G01*
X149225000Y-114743750D02*
X149225000Y-115256250D01*
G75*
G02*
X149006250Y-115475000I-218750J0D01*
G01*
X148568750Y-115475000D01*
G75*
G02*
X148350000Y-115256250I0J218750D01*
G01*
X148350000Y-114743750D01*
G75*
G02*
X148568750Y-114525000I218750J0D01*
G01*
X149006250Y-114525000D01*
G75*
G02*
X149225000Y-114743750I0J-218750D01*
G01*
G37*
G36*
G01*
X189350000Y-121256250D02*
X189350000Y-120743750D01*
G75*
G02*
X189568750Y-120525000I218750J0D01*
G01*
X190006250Y-120525000D01*
G75*
G02*
X190225000Y-120743750I0J-218750D01*
G01*
X190225000Y-121256250D01*
G75*
G02*
X190006250Y-121475000I-218750J0D01*
G01*
X189568750Y-121475000D01*
G75*
G02*
X189350000Y-121256250I0J218750D01*
G01*
G37*
G36*
G01*
X187775000Y-121256250D02*
X187775000Y-120743750D01*
G75*
G02*
X187993750Y-120525000I218750J0D01*
G01*
X188431250Y-120525000D01*
G75*
G02*
X188650000Y-120743750I0J-218750D01*
G01*
X188650000Y-121256250D01*
G75*
G02*
X188431250Y-121475000I-218750J0D01*
G01*
X187993750Y-121475000D01*
G75*
G02*
X187775000Y-121256250I0J218750D01*
G01*
G37*
G36*
G01*
X189350000Y-119256250D02*
X189350000Y-118743750D01*
G75*
G02*
X189568750Y-118525000I218750J0D01*
G01*
X190006250Y-118525000D01*
G75*
G02*
X190225000Y-118743750I0J-218750D01*
G01*
X190225000Y-119256250D01*
G75*
G02*
X190006250Y-119475000I-218750J0D01*
G01*
X189568750Y-119475000D01*
G75*
G02*
X189350000Y-119256250I0J218750D01*
G01*
G37*
G36*
G01*
X187775000Y-119256250D02*
X187775000Y-118743750D01*
G75*
G02*
X187993750Y-118525000I218750J0D01*
G01*
X188431250Y-118525000D01*
G75*
G02*
X188650000Y-118743750I0J-218750D01*
G01*
X188650000Y-119256250D01*
G75*
G02*
X188431250Y-119475000I-218750J0D01*
G01*
X187993750Y-119475000D01*
G75*
G02*
X187775000Y-119256250I0J218750D01*
G01*
G37*
G36*
G01*
X189350000Y-117256250D02*
X189350000Y-116743750D01*
G75*
G02*
X189568750Y-116525000I218750J0D01*
G01*
X190006250Y-116525000D01*
G75*
G02*
X190225000Y-116743750I0J-218750D01*
G01*
X190225000Y-117256250D01*
G75*
G02*
X190006250Y-117475000I-218750J0D01*
G01*
X189568750Y-117475000D01*
G75*
G02*
X189350000Y-117256250I0J218750D01*
G01*
G37*
G36*
G01*
X187775000Y-117256250D02*
X187775000Y-116743750D01*
G75*
G02*
X187993750Y-116525000I218750J0D01*
G01*
X188431250Y-116525000D01*
G75*
G02*
X188650000Y-116743750I0J-218750D01*
G01*
X188650000Y-117256250D01*
G75*
G02*
X188431250Y-117475000I-218750J0D01*
G01*
X187993750Y-117475000D01*
G75*
G02*
X187775000Y-117256250I0J218750D01*
G01*
G37*
G36*
G01*
X189350000Y-115256250D02*
X189350000Y-114743750D01*
G75*
G02*
X189568750Y-114525000I218750J0D01*
G01*
X190006250Y-114525000D01*
G75*
G02*
X190225000Y-114743750I0J-218750D01*
G01*
X190225000Y-115256250D01*
G75*
G02*
X190006250Y-115475000I-218750J0D01*
G01*
X189568750Y-115475000D01*
G75*
G02*
X189350000Y-115256250I0J218750D01*
G01*
G37*
G36*
G01*
X187775000Y-115256250D02*
X187775000Y-114743750D01*
G75*
G02*
X187993750Y-114525000I218750J0D01*
G01*
X188431250Y-114525000D01*
G75*
G02*
X188650000Y-114743750I0J-218750D01*
G01*
X188650000Y-115256250D01*
G75*
G02*
X188431250Y-115475000I-218750J0D01*
G01*
X187993750Y-115475000D01*
G75*
G02*
X187775000Y-115256250I0J218750D01*
G01*
G37*
G36*
G01*
X164350000Y-121256250D02*
X164350000Y-120743750D01*
G75*
G02*
X164568750Y-120525000I218750J0D01*
G01*
X165006250Y-120525000D01*
G75*
G02*
X165225000Y-120743750I0J-218750D01*
G01*
X165225000Y-121256250D01*
G75*
G02*
X165006250Y-121475000I-218750J0D01*
G01*
X164568750Y-121475000D01*
G75*
G02*
X164350000Y-121256250I0J218750D01*
G01*
G37*
G36*
G01*
X162775000Y-121256250D02*
X162775000Y-120743750D01*
G75*
G02*
X162993750Y-120525000I218750J0D01*
G01*
X163431250Y-120525000D01*
G75*
G02*
X163650000Y-120743750I0J-218750D01*
G01*
X163650000Y-121256250D01*
G75*
G02*
X163431250Y-121475000I-218750J0D01*
G01*
X162993750Y-121475000D01*
G75*
G02*
X162775000Y-121256250I0J218750D01*
G01*
G37*
G36*
G01*
X164350000Y-119256250D02*
X164350000Y-118743750D01*
G75*
G02*
X164568750Y-118525000I218750J0D01*
G01*
X165006250Y-118525000D01*
G75*
G02*
X165225000Y-118743750I0J-218750D01*
G01*
X165225000Y-119256250D01*
G75*
G02*
X165006250Y-119475000I-218750J0D01*
G01*
X164568750Y-119475000D01*
G75*
G02*
X164350000Y-119256250I0J218750D01*
G01*
G37*
G36*
G01*
X162775000Y-119256250D02*
X162775000Y-118743750D01*
G75*
G02*
X162993750Y-118525000I218750J0D01*
G01*
X163431250Y-118525000D01*
G75*
G02*
X163650000Y-118743750I0J-218750D01*
G01*
X163650000Y-119256250D01*
G75*
G02*
X163431250Y-119475000I-218750J0D01*
G01*
X162993750Y-119475000D01*
G75*
G02*
X162775000Y-119256250I0J218750D01*
G01*
G37*
G36*
G01*
X164350000Y-117256250D02*
X164350000Y-116743750D01*
G75*
G02*
X164568750Y-116525000I218750J0D01*
G01*
X165006250Y-116525000D01*
G75*
G02*
X165225000Y-116743750I0J-218750D01*
G01*
X165225000Y-117256250D01*
G75*
G02*
X165006250Y-117475000I-218750J0D01*
G01*
X164568750Y-117475000D01*
G75*
G02*
X164350000Y-117256250I0J218750D01*
G01*
G37*
G36*
G01*
X162775000Y-117256250D02*
X162775000Y-116743750D01*
G75*
G02*
X162993750Y-116525000I218750J0D01*
G01*
X163431250Y-116525000D01*
G75*
G02*
X163650000Y-116743750I0J-218750D01*
G01*
X163650000Y-117256250D01*
G75*
G02*
X163431250Y-117475000I-218750J0D01*
G01*
X162993750Y-117475000D01*
G75*
G02*
X162775000Y-117256250I0J218750D01*
G01*
G37*
G36*
G01*
X164350000Y-115256250D02*
X164350000Y-114743750D01*
G75*
G02*
X164568750Y-114525000I218750J0D01*
G01*
X165006250Y-114525000D01*
G75*
G02*
X165225000Y-114743750I0J-218750D01*
G01*
X165225000Y-115256250D01*
G75*
G02*
X165006250Y-115475000I-218750J0D01*
G01*
X164568750Y-115475000D01*
G75*
G02*
X164350000Y-115256250I0J218750D01*
G01*
G37*
G36*
G01*
X162775000Y-115256250D02*
X162775000Y-114743750D01*
G75*
G02*
X162993750Y-114525000I218750J0D01*
G01*
X163431250Y-114525000D01*
G75*
G02*
X163650000Y-114743750I0J-218750D01*
G01*
X163650000Y-115256250D01*
G75*
G02*
X163431250Y-115475000I-218750J0D01*
G01*
X162993750Y-115475000D01*
G75*
G02*
X162775000Y-115256250I0J218750D01*
G01*
G37*
G36*
G01*
X144350000Y-121256250D02*
X144350000Y-120743750D01*
G75*
G02*
X144568750Y-120525000I218750J0D01*
G01*
X145006250Y-120525000D01*
G75*
G02*
X145225000Y-120743750I0J-218750D01*
G01*
X145225000Y-121256250D01*
G75*
G02*
X145006250Y-121475000I-218750J0D01*
G01*
X144568750Y-121475000D01*
G75*
G02*
X144350000Y-121256250I0J218750D01*
G01*
G37*
G36*
G01*
X142775000Y-121256250D02*
X142775000Y-120743750D01*
G75*
G02*
X142993750Y-120525000I218750J0D01*
G01*
X143431250Y-120525000D01*
G75*
G02*
X143650000Y-120743750I0J-218750D01*
G01*
X143650000Y-121256250D01*
G75*
G02*
X143431250Y-121475000I-218750J0D01*
G01*
X142993750Y-121475000D01*
G75*
G02*
X142775000Y-121256250I0J218750D01*
G01*
G37*
G36*
G01*
X144350000Y-119256250D02*
X144350000Y-118743750D01*
G75*
G02*
X144568750Y-118525000I218750J0D01*
G01*
X145006250Y-118525000D01*
G75*
G02*
X145225000Y-118743750I0J-218750D01*
G01*
X145225000Y-119256250D01*
G75*
G02*
X145006250Y-119475000I-218750J0D01*
G01*
X144568750Y-119475000D01*
G75*
G02*
X144350000Y-119256250I0J218750D01*
G01*
G37*
G36*
G01*
X142775000Y-119256250D02*
X142775000Y-118743750D01*
G75*
G02*
X142993750Y-118525000I218750J0D01*
G01*
X143431250Y-118525000D01*
G75*
G02*
X143650000Y-118743750I0J-218750D01*
G01*
X143650000Y-119256250D01*
G75*
G02*
X143431250Y-119475000I-218750J0D01*
G01*
X142993750Y-119475000D01*
G75*
G02*
X142775000Y-119256250I0J218750D01*
G01*
G37*
G36*
G01*
X144350000Y-117256250D02*
X144350000Y-116743750D01*
G75*
G02*
X144568750Y-116525000I218750J0D01*
G01*
X145006250Y-116525000D01*
G75*
G02*
X145225000Y-116743750I0J-218750D01*
G01*
X145225000Y-117256250D01*
G75*
G02*
X145006250Y-117475000I-218750J0D01*
G01*
X144568750Y-117475000D01*
G75*
G02*
X144350000Y-117256250I0J218750D01*
G01*
G37*
G36*
G01*
X142775000Y-117256250D02*
X142775000Y-116743750D01*
G75*
G02*
X142993750Y-116525000I218750J0D01*
G01*
X143431250Y-116525000D01*
G75*
G02*
X143650000Y-116743750I0J-218750D01*
G01*
X143650000Y-117256250D01*
G75*
G02*
X143431250Y-117475000I-218750J0D01*
G01*
X142993750Y-117475000D01*
G75*
G02*
X142775000Y-117256250I0J218750D01*
G01*
G37*
G36*
G01*
X144350000Y-115256250D02*
X144350000Y-114743750D01*
G75*
G02*
X144568750Y-114525000I218750J0D01*
G01*
X145006250Y-114525000D01*
G75*
G02*
X145225000Y-114743750I0J-218750D01*
G01*
X145225000Y-115256250D01*
G75*
G02*
X145006250Y-115475000I-218750J0D01*
G01*
X144568750Y-115475000D01*
G75*
G02*
X144350000Y-115256250I0J218750D01*
G01*
G37*
G36*
G01*
X142775000Y-115256250D02*
X142775000Y-114743750D01*
G75*
G02*
X142993750Y-114525000I218750J0D01*
G01*
X143431250Y-114525000D01*
G75*
G02*
X143650000Y-114743750I0J-218750D01*
G01*
X143650000Y-115256250D01*
G75*
G02*
X143431250Y-115475000I-218750J0D01*
G01*
X142993750Y-115475000D01*
G75*
G02*
X142775000Y-115256250I0J218750D01*
G01*
G37*
G36*
G01*
X99350000Y-91006250D02*
X99350000Y-90493750D01*
G75*
G02*
X99568750Y-90275000I218750J0D01*
G01*
X100006250Y-90275000D01*
G75*
G02*
X100225000Y-90493750I0J-218750D01*
G01*
X100225000Y-91006250D01*
G75*
G02*
X100006250Y-91225000I-218750J0D01*
G01*
X99568750Y-91225000D01*
G75*
G02*
X99350000Y-91006250I0J218750D01*
G01*
G37*
G36*
G01*
X97775000Y-91006250D02*
X97775000Y-90493750D01*
G75*
G02*
X97993750Y-90275000I218750J0D01*
G01*
X98431250Y-90275000D01*
G75*
G02*
X98650000Y-90493750I0J-218750D01*
G01*
X98650000Y-91006250D01*
G75*
G02*
X98431250Y-91225000I-218750J0D01*
G01*
X97993750Y-91225000D01*
G75*
G02*
X97775000Y-91006250I0J218750D01*
G01*
G37*
G36*
G01*
X99350000Y-83506250D02*
X99350000Y-82993750D01*
G75*
G02*
X99568750Y-82775000I218750J0D01*
G01*
X100006250Y-82775000D01*
G75*
G02*
X100225000Y-82993750I0J-218750D01*
G01*
X100225000Y-83506250D01*
G75*
G02*
X100006250Y-83725000I-218750J0D01*
G01*
X99568750Y-83725000D01*
G75*
G02*
X99350000Y-83506250I0J218750D01*
G01*
G37*
G36*
G01*
X97775000Y-83506250D02*
X97775000Y-82993750D01*
G75*
G02*
X97993750Y-82775000I218750J0D01*
G01*
X98431250Y-82775000D01*
G75*
G02*
X98650000Y-82993750I0J-218750D01*
G01*
X98650000Y-83506250D01*
G75*
G02*
X98431250Y-83725000I-218750J0D01*
G01*
X97993750Y-83725000D01*
G75*
G02*
X97775000Y-83506250I0J218750D01*
G01*
G37*
G36*
G01*
X99350000Y-106256250D02*
X99350000Y-105743750D01*
G75*
G02*
X99568750Y-105525000I218750J0D01*
G01*
X100006250Y-105525000D01*
G75*
G02*
X100225000Y-105743750I0J-218750D01*
G01*
X100225000Y-106256250D01*
G75*
G02*
X100006250Y-106475000I-218750J0D01*
G01*
X99568750Y-106475000D01*
G75*
G02*
X99350000Y-106256250I0J218750D01*
G01*
G37*
G36*
G01*
X97775000Y-106256250D02*
X97775000Y-105743750D01*
G75*
G02*
X97993750Y-105525000I218750J0D01*
G01*
X98431250Y-105525000D01*
G75*
G02*
X98650000Y-105743750I0J-218750D01*
G01*
X98650000Y-106256250D01*
G75*
G02*
X98431250Y-106475000I-218750J0D01*
G01*
X97993750Y-106475000D01*
G75*
G02*
X97775000Y-106256250I0J218750D01*
G01*
G37*
G36*
G01*
X82350000Y-63256250D02*
X82350000Y-62743750D01*
G75*
G02*
X82568750Y-62525000I218750J0D01*
G01*
X83006250Y-62525000D01*
G75*
G02*
X83225000Y-62743750I0J-218750D01*
G01*
X83225000Y-63256250D01*
G75*
G02*
X83006250Y-63475000I-218750J0D01*
G01*
X82568750Y-63475000D01*
G75*
G02*
X82350000Y-63256250I0J218750D01*
G01*
G37*
G36*
G01*
X80775000Y-63256250D02*
X80775000Y-62743750D01*
G75*
G02*
X80993750Y-62525000I218750J0D01*
G01*
X81431250Y-62525000D01*
G75*
G02*
X81650000Y-62743750I0J-218750D01*
G01*
X81650000Y-63256250D01*
G75*
G02*
X81431250Y-63475000I-218750J0D01*
G01*
X80993750Y-63475000D01*
G75*
G02*
X80775000Y-63256250I0J218750D01*
G01*
G37*
G36*
G01*
X82350000Y-65756250D02*
X82350000Y-65243750D01*
G75*
G02*
X82568750Y-65025000I218750J0D01*
G01*
X83006250Y-65025000D01*
G75*
G02*
X83225000Y-65243750I0J-218750D01*
G01*
X83225000Y-65756250D01*
G75*
G02*
X83006250Y-65975000I-218750J0D01*
G01*
X82568750Y-65975000D01*
G75*
G02*
X82350000Y-65756250I0J218750D01*
G01*
G37*
G36*
G01*
X80775000Y-65756250D02*
X80775000Y-65243750D01*
G75*
G02*
X80993750Y-65025000I218750J0D01*
G01*
X81431250Y-65025000D01*
G75*
G02*
X81650000Y-65243750I0J-218750D01*
G01*
X81650000Y-65756250D01*
G75*
G02*
X81431250Y-65975000I-218750J0D01*
G01*
X80993750Y-65975000D01*
G75*
G02*
X80775000Y-65756250I0J218750D01*
G01*
G37*
G36*
G01*
X99350000Y-73256250D02*
X99350000Y-72743750D01*
G75*
G02*
X99568750Y-72525000I218750J0D01*
G01*
X100006250Y-72525000D01*
G75*
G02*
X100225000Y-72743750I0J-218750D01*
G01*
X100225000Y-73256250D01*
G75*
G02*
X100006250Y-73475000I-218750J0D01*
G01*
X99568750Y-73475000D01*
G75*
G02*
X99350000Y-73256250I0J218750D01*
G01*
G37*
G36*
G01*
X97775000Y-73256250D02*
X97775000Y-72743750D01*
G75*
G02*
X97993750Y-72525000I218750J0D01*
G01*
X98431250Y-72525000D01*
G75*
G02*
X98650000Y-72743750I0J-218750D01*
G01*
X98650000Y-73256250D01*
G75*
G02*
X98431250Y-73475000I-218750J0D01*
G01*
X97993750Y-73475000D01*
G75*
G02*
X97775000Y-73256250I0J218750D01*
G01*
G37*
G36*
G01*
X99350000Y-75756250D02*
X99350000Y-75243750D01*
G75*
G02*
X99568750Y-75025000I218750J0D01*
G01*
X100006250Y-75025000D01*
G75*
G02*
X100225000Y-75243750I0J-218750D01*
G01*
X100225000Y-75756250D01*
G75*
G02*
X100006250Y-75975000I-218750J0D01*
G01*
X99568750Y-75975000D01*
G75*
G02*
X99350000Y-75756250I0J218750D01*
G01*
G37*
G36*
G01*
X97775000Y-75756250D02*
X97775000Y-75243750D01*
G75*
G02*
X97993750Y-75025000I218750J0D01*
G01*
X98431250Y-75025000D01*
G75*
G02*
X98650000Y-75243750I0J-218750D01*
G01*
X98650000Y-75756250D01*
G75*
G02*
X98431250Y-75975000I-218750J0D01*
G01*
X97993750Y-75975000D01*
G75*
G02*
X97775000Y-75756250I0J218750D01*
G01*
G37*
G36*
G01*
X140350000Y-92256250D02*
X140350000Y-91743750D01*
G75*
G02*
X140568750Y-91525000I218750J0D01*
G01*
X141006250Y-91525000D01*
G75*
G02*
X141225000Y-91743750I0J-218750D01*
G01*
X141225000Y-92256250D01*
G75*
G02*
X141006250Y-92475000I-218750J0D01*
G01*
X140568750Y-92475000D01*
G75*
G02*
X140350000Y-92256250I0J218750D01*
G01*
G37*
G36*
G01*
X138775000Y-92256250D02*
X138775000Y-91743750D01*
G75*
G02*
X138993750Y-91525000I218750J0D01*
G01*
X139431250Y-91525000D01*
G75*
G02*
X139650000Y-91743750I0J-218750D01*
G01*
X139650000Y-92256250D01*
G75*
G02*
X139431250Y-92475000I-218750J0D01*
G01*
X138993750Y-92475000D01*
G75*
G02*
X138775000Y-92256250I0J218750D01*
G01*
G37*
D11*
X163250000Y-103150000D03*
X162750000Y-103150000D03*
X162250000Y-103150000D03*
X161750000Y-103150000D03*
X161250000Y-103150000D03*
X160750000Y-103150000D03*
X160250000Y-103150000D03*
X159750000Y-103150000D03*
X159250000Y-103150000D03*
X158750000Y-103150000D03*
X158250000Y-103150000D03*
X157750000Y-103150000D03*
X157250000Y-103150000D03*
X156750000Y-103150000D03*
X156250000Y-103150000D03*
X155750000Y-103150000D03*
X155250000Y-103150000D03*
X154750000Y-103150000D03*
X154250000Y-103150000D03*
X153750000Y-103150000D03*
X153250000Y-103150000D03*
X152750000Y-103150000D03*
D12*
X150850000Y-106400000D03*
X165150000Y-106400000D03*
G36*
G01*
X178615000Y-98237500D02*
X178615000Y-97822500D01*
G75*
G02*
X178822500Y-97615000I207500J0D01*
G01*
X179237500Y-97615000D01*
G75*
G02*
X179445000Y-97822500I0J-207500D01*
G01*
X179445000Y-98237500D01*
G75*
G02*
X179237500Y-98445000I-207500J0D01*
G01*
X178822500Y-98445000D01*
G75*
G02*
X178615000Y-98237500I0J207500D01*
G01*
G37*
G36*
G01*
X178615000Y-97207500D02*
X178615000Y-96792500D01*
G75*
G02*
X178822500Y-96585000I207500J0D01*
G01*
X179237500Y-96585000D01*
G75*
G02*
X179445000Y-96792500I0J-207500D01*
G01*
X179445000Y-97207500D01*
G75*
G02*
X179237500Y-97415000I-207500J0D01*
G01*
X178822500Y-97415000D01*
G75*
G02*
X178615000Y-97207500I0J207500D01*
G01*
G37*
G36*
G01*
X178615000Y-96177500D02*
X178615000Y-95762500D01*
G75*
G02*
X178822500Y-95555000I207500J0D01*
G01*
X179237500Y-95555000D01*
G75*
G02*
X179445000Y-95762500I0J-207500D01*
G01*
X179445000Y-96177500D01*
G75*
G02*
X179237500Y-96385000I-207500J0D01*
G01*
X178822500Y-96385000D01*
G75*
G02*
X178615000Y-96177500I0J207500D01*
G01*
G37*
G36*
G01*
X177585000Y-98237500D02*
X177585000Y-97822500D01*
G75*
G02*
X177792500Y-97615000I207500J0D01*
G01*
X178207500Y-97615000D01*
G75*
G02*
X178415000Y-97822500I0J-207500D01*
G01*
X178415000Y-98237500D01*
G75*
G02*
X178207500Y-98445000I-207500J0D01*
G01*
X177792500Y-98445000D01*
G75*
G02*
X177585000Y-98237500I0J207500D01*
G01*
G37*
G36*
G01*
X177585000Y-97207500D02*
X177585000Y-96792500D01*
G75*
G02*
X177792500Y-96585000I207500J0D01*
G01*
X178207500Y-96585000D01*
G75*
G02*
X178415000Y-96792500I0J-207500D01*
G01*
X178415000Y-97207500D01*
G75*
G02*
X178207500Y-97415000I-207500J0D01*
G01*
X177792500Y-97415000D01*
G75*
G02*
X177585000Y-97207500I0J207500D01*
G01*
G37*
G36*
G01*
X177585000Y-96177500D02*
X177585000Y-95762500D01*
G75*
G02*
X177792500Y-95555000I207500J0D01*
G01*
X178207500Y-95555000D01*
G75*
G02*
X178415000Y-95762500I0J-207500D01*
G01*
X178415000Y-96177500D01*
G75*
G02*
X178207500Y-96385000I-207500J0D01*
G01*
X177792500Y-96385000D01*
G75*
G02*
X177585000Y-96177500I0J207500D01*
G01*
G37*
G36*
G01*
X176555000Y-98237500D02*
X176555000Y-97822500D01*
G75*
G02*
X176762500Y-97615000I207500J0D01*
G01*
X177177500Y-97615000D01*
G75*
G02*
X177385000Y-97822500I0J-207500D01*
G01*
X177385000Y-98237500D01*
G75*
G02*
X177177500Y-98445000I-207500J0D01*
G01*
X176762500Y-98445000D01*
G75*
G02*
X176555000Y-98237500I0J207500D01*
G01*
G37*
G36*
G01*
X176555000Y-97207500D02*
X176555000Y-96792500D01*
G75*
G02*
X176762500Y-96585000I207500J0D01*
G01*
X177177500Y-96585000D01*
G75*
G02*
X177385000Y-96792500I0J-207500D01*
G01*
X177385000Y-97207500D01*
G75*
G02*
X177177500Y-97415000I-207500J0D01*
G01*
X176762500Y-97415000D01*
G75*
G02*
X176555000Y-97207500I0J207500D01*
G01*
G37*
G36*
G01*
X176555000Y-96177500D02*
X176555000Y-95762500D01*
G75*
G02*
X176762500Y-95555000I207500J0D01*
G01*
X177177500Y-95555000D01*
G75*
G02*
X177385000Y-95762500I0J-207500D01*
G01*
X177385000Y-96177500D01*
G75*
G02*
X177177500Y-96385000I-207500J0D01*
G01*
X176762500Y-96385000D01*
G75*
G02*
X176555000Y-96177500I0J207500D01*
G01*
G37*
G36*
G01*
X176125000Y-94937500D02*
X176125000Y-94187500D01*
G75*
G02*
X176187500Y-94125000I62500J0D01*
G01*
X176312500Y-94125000D01*
G75*
G02*
X176375000Y-94187500I0J-62500D01*
G01*
X176375000Y-94937500D01*
G75*
G02*
X176312500Y-95000000I-62500J0D01*
G01*
X176187500Y-95000000D01*
G75*
G02*
X176125000Y-94937500I0J62500D01*
G01*
G37*
G36*
G01*
X176625000Y-94937500D02*
X176625000Y-94187500D01*
G75*
G02*
X176687500Y-94125000I62500J0D01*
G01*
X176812500Y-94125000D01*
G75*
G02*
X176875000Y-94187500I0J-62500D01*
G01*
X176875000Y-94937500D01*
G75*
G02*
X176812500Y-95000000I-62500J0D01*
G01*
X176687500Y-95000000D01*
G75*
G02*
X176625000Y-94937500I0J62500D01*
G01*
G37*
G36*
G01*
X177125000Y-94937500D02*
X177125000Y-94187500D01*
G75*
G02*
X177187500Y-94125000I62500J0D01*
G01*
X177312500Y-94125000D01*
G75*
G02*
X177375000Y-94187500I0J-62500D01*
G01*
X177375000Y-94937500D01*
G75*
G02*
X177312500Y-95000000I-62500J0D01*
G01*
X177187500Y-95000000D01*
G75*
G02*
X177125000Y-94937500I0J62500D01*
G01*
G37*
G36*
G01*
X177625000Y-94937500D02*
X177625000Y-94187500D01*
G75*
G02*
X177687500Y-94125000I62500J0D01*
G01*
X177812500Y-94125000D01*
G75*
G02*
X177875000Y-94187500I0J-62500D01*
G01*
X177875000Y-94937500D01*
G75*
G02*
X177812500Y-95000000I-62500J0D01*
G01*
X177687500Y-95000000D01*
G75*
G02*
X177625000Y-94937500I0J62500D01*
G01*
G37*
G36*
G01*
X178125000Y-94937500D02*
X178125000Y-94187500D01*
G75*
G02*
X178187500Y-94125000I62500J0D01*
G01*
X178312500Y-94125000D01*
G75*
G02*
X178375000Y-94187500I0J-62500D01*
G01*
X178375000Y-94937500D01*
G75*
G02*
X178312500Y-95000000I-62500J0D01*
G01*
X178187500Y-95000000D01*
G75*
G02*
X178125000Y-94937500I0J62500D01*
G01*
G37*
G36*
G01*
X178625000Y-94937500D02*
X178625000Y-94187500D01*
G75*
G02*
X178687500Y-94125000I62500J0D01*
G01*
X178812500Y-94125000D01*
G75*
G02*
X178875000Y-94187500I0J-62500D01*
G01*
X178875000Y-94937500D01*
G75*
G02*
X178812500Y-95000000I-62500J0D01*
G01*
X178687500Y-95000000D01*
G75*
G02*
X178625000Y-94937500I0J62500D01*
G01*
G37*
G36*
G01*
X179125000Y-94937500D02*
X179125000Y-94187500D01*
G75*
G02*
X179187500Y-94125000I62500J0D01*
G01*
X179312500Y-94125000D01*
G75*
G02*
X179375000Y-94187500I0J-62500D01*
G01*
X179375000Y-94937500D01*
G75*
G02*
X179312500Y-95000000I-62500J0D01*
G01*
X179187500Y-95000000D01*
G75*
G02*
X179125000Y-94937500I0J62500D01*
G01*
G37*
G36*
G01*
X179625000Y-94937500D02*
X179625000Y-94187500D01*
G75*
G02*
X179687500Y-94125000I62500J0D01*
G01*
X179812500Y-94125000D01*
G75*
G02*
X179875000Y-94187500I0J-62500D01*
G01*
X179875000Y-94937500D01*
G75*
G02*
X179812500Y-95000000I-62500J0D01*
G01*
X179687500Y-95000000D01*
G75*
G02*
X179625000Y-94937500I0J62500D01*
G01*
G37*
G36*
G01*
X180000000Y-95312500D02*
X180000000Y-95187500D01*
G75*
G02*
X180062500Y-95125000I62500J0D01*
G01*
X180812500Y-95125000D01*
G75*
G02*
X180875000Y-95187500I0J-62500D01*
G01*
X180875000Y-95312500D01*
G75*
G02*
X180812500Y-95375000I-62500J0D01*
G01*
X180062500Y-95375000D01*
G75*
G02*
X180000000Y-95312500I0J62500D01*
G01*
G37*
G36*
G01*
X180000000Y-95812500D02*
X180000000Y-95687500D01*
G75*
G02*
X180062500Y-95625000I62500J0D01*
G01*
X180812500Y-95625000D01*
G75*
G02*
X180875000Y-95687500I0J-62500D01*
G01*
X180875000Y-95812500D01*
G75*
G02*
X180812500Y-95875000I-62500J0D01*
G01*
X180062500Y-95875000D01*
G75*
G02*
X180000000Y-95812500I0J62500D01*
G01*
G37*
G36*
G01*
X180000000Y-96312500D02*
X180000000Y-96187500D01*
G75*
G02*
X180062500Y-96125000I62500J0D01*
G01*
X180812500Y-96125000D01*
G75*
G02*
X180875000Y-96187500I0J-62500D01*
G01*
X180875000Y-96312500D01*
G75*
G02*
X180812500Y-96375000I-62500J0D01*
G01*
X180062500Y-96375000D01*
G75*
G02*
X180000000Y-96312500I0J62500D01*
G01*
G37*
G36*
G01*
X180000000Y-96812500D02*
X180000000Y-96687500D01*
G75*
G02*
X180062500Y-96625000I62500J0D01*
G01*
X180812500Y-96625000D01*
G75*
G02*
X180875000Y-96687500I0J-62500D01*
G01*
X180875000Y-96812500D01*
G75*
G02*
X180812500Y-96875000I-62500J0D01*
G01*
X180062500Y-96875000D01*
G75*
G02*
X180000000Y-96812500I0J62500D01*
G01*
G37*
G36*
G01*
X180000000Y-97312500D02*
X180000000Y-97187500D01*
G75*
G02*
X180062500Y-97125000I62500J0D01*
G01*
X180812500Y-97125000D01*
G75*
G02*
X180875000Y-97187500I0J-62500D01*
G01*
X180875000Y-97312500D01*
G75*
G02*
X180812500Y-97375000I-62500J0D01*
G01*
X180062500Y-97375000D01*
G75*
G02*
X180000000Y-97312500I0J62500D01*
G01*
G37*
G36*
G01*
X180000000Y-97812500D02*
X180000000Y-97687500D01*
G75*
G02*
X180062500Y-97625000I62500J0D01*
G01*
X180812500Y-97625000D01*
G75*
G02*
X180875000Y-97687500I0J-62500D01*
G01*
X180875000Y-97812500D01*
G75*
G02*
X180812500Y-97875000I-62500J0D01*
G01*
X180062500Y-97875000D01*
G75*
G02*
X180000000Y-97812500I0J62500D01*
G01*
G37*
G36*
G01*
X180000000Y-98312500D02*
X180000000Y-98187500D01*
G75*
G02*
X180062500Y-98125000I62500J0D01*
G01*
X180812500Y-98125000D01*
G75*
G02*
X180875000Y-98187500I0J-62500D01*
G01*
X180875000Y-98312500D01*
G75*
G02*
X180812500Y-98375000I-62500J0D01*
G01*
X180062500Y-98375000D01*
G75*
G02*
X180000000Y-98312500I0J62500D01*
G01*
G37*
G36*
G01*
X180000000Y-98812500D02*
X180000000Y-98687500D01*
G75*
G02*
X180062500Y-98625000I62500J0D01*
G01*
X180812500Y-98625000D01*
G75*
G02*
X180875000Y-98687500I0J-62500D01*
G01*
X180875000Y-98812500D01*
G75*
G02*
X180812500Y-98875000I-62500J0D01*
G01*
X180062500Y-98875000D01*
G75*
G02*
X180000000Y-98812500I0J62500D01*
G01*
G37*
G36*
G01*
X179625000Y-99812500D02*
X179625000Y-99062500D01*
G75*
G02*
X179687500Y-99000000I62500J0D01*
G01*
X179812500Y-99000000D01*
G75*
G02*
X179875000Y-99062500I0J-62500D01*
G01*
X179875000Y-99812500D01*
G75*
G02*
X179812500Y-99875000I-62500J0D01*
G01*
X179687500Y-99875000D01*
G75*
G02*
X179625000Y-99812500I0J62500D01*
G01*
G37*
G36*
G01*
X179125000Y-99812500D02*
X179125000Y-99062500D01*
G75*
G02*
X179187500Y-99000000I62500J0D01*
G01*
X179312500Y-99000000D01*
G75*
G02*
X179375000Y-99062500I0J-62500D01*
G01*
X179375000Y-99812500D01*
G75*
G02*
X179312500Y-99875000I-62500J0D01*
G01*
X179187500Y-99875000D01*
G75*
G02*
X179125000Y-99812500I0J62500D01*
G01*
G37*
G36*
G01*
X178625000Y-99812500D02*
X178625000Y-99062500D01*
G75*
G02*
X178687500Y-99000000I62500J0D01*
G01*
X178812500Y-99000000D01*
G75*
G02*
X178875000Y-99062500I0J-62500D01*
G01*
X178875000Y-99812500D01*
G75*
G02*
X178812500Y-99875000I-62500J0D01*
G01*
X178687500Y-99875000D01*
G75*
G02*
X178625000Y-99812500I0J62500D01*
G01*
G37*
G36*
G01*
X178125000Y-99812500D02*
X178125000Y-99062500D01*
G75*
G02*
X178187500Y-99000000I62500J0D01*
G01*
X178312500Y-99000000D01*
G75*
G02*
X178375000Y-99062500I0J-62500D01*
G01*
X178375000Y-99812500D01*
G75*
G02*
X178312500Y-99875000I-62500J0D01*
G01*
X178187500Y-99875000D01*
G75*
G02*
X178125000Y-99812500I0J62500D01*
G01*
G37*
G36*
G01*
X177625000Y-99812500D02*
X177625000Y-99062500D01*
G75*
G02*
X177687500Y-99000000I62500J0D01*
G01*
X177812500Y-99000000D01*
G75*
G02*
X177875000Y-99062500I0J-62500D01*
G01*
X177875000Y-99812500D01*
G75*
G02*
X177812500Y-99875000I-62500J0D01*
G01*
X177687500Y-99875000D01*
G75*
G02*
X177625000Y-99812500I0J62500D01*
G01*
G37*
G36*
G01*
X177125000Y-99812500D02*
X177125000Y-99062500D01*
G75*
G02*
X177187500Y-99000000I62500J0D01*
G01*
X177312500Y-99000000D01*
G75*
G02*
X177375000Y-99062500I0J-62500D01*
G01*
X177375000Y-99812500D01*
G75*
G02*
X177312500Y-99875000I-62500J0D01*
G01*
X177187500Y-99875000D01*
G75*
G02*
X177125000Y-99812500I0J62500D01*
G01*
G37*
G36*
G01*
X176625000Y-99812500D02*
X176625000Y-99062500D01*
G75*
G02*
X176687500Y-99000000I62500J0D01*
G01*
X176812500Y-99000000D01*
G75*
G02*
X176875000Y-99062500I0J-62500D01*
G01*
X176875000Y-99812500D01*
G75*
G02*
X176812500Y-99875000I-62500J0D01*
G01*
X176687500Y-99875000D01*
G75*
G02*
X176625000Y-99812500I0J62500D01*
G01*
G37*
G36*
G01*
X176125000Y-99812500D02*
X176125000Y-99062500D01*
G75*
G02*
X176187500Y-99000000I62500J0D01*
G01*
X176312500Y-99000000D01*
G75*
G02*
X176375000Y-99062500I0J-62500D01*
G01*
X176375000Y-99812500D01*
G75*
G02*
X176312500Y-99875000I-62500J0D01*
G01*
X176187500Y-99875000D01*
G75*
G02*
X176125000Y-99812500I0J62500D01*
G01*
G37*
G36*
G01*
X175125000Y-98812500D02*
X175125000Y-98687500D01*
G75*
G02*
X175187500Y-98625000I62500J0D01*
G01*
X175937500Y-98625000D01*
G75*
G02*
X176000000Y-98687500I0J-62500D01*
G01*
X176000000Y-98812500D01*
G75*
G02*
X175937500Y-98875000I-62500J0D01*
G01*
X175187500Y-98875000D01*
G75*
G02*
X175125000Y-98812500I0J62500D01*
G01*
G37*
G36*
G01*
X175125000Y-98312500D02*
X175125000Y-98187500D01*
G75*
G02*
X175187500Y-98125000I62500J0D01*
G01*
X175937500Y-98125000D01*
G75*
G02*
X176000000Y-98187500I0J-62500D01*
G01*
X176000000Y-98312500D01*
G75*
G02*
X175937500Y-98375000I-62500J0D01*
G01*
X175187500Y-98375000D01*
G75*
G02*
X175125000Y-98312500I0J62500D01*
G01*
G37*
G36*
G01*
X175125000Y-97812500D02*
X175125000Y-97687500D01*
G75*
G02*
X175187500Y-97625000I62500J0D01*
G01*
X175937500Y-97625000D01*
G75*
G02*
X176000000Y-97687500I0J-62500D01*
G01*
X176000000Y-97812500D01*
G75*
G02*
X175937500Y-97875000I-62500J0D01*
G01*
X175187500Y-97875000D01*
G75*
G02*
X175125000Y-97812500I0J62500D01*
G01*
G37*
G36*
G01*
X175125000Y-97312500D02*
X175125000Y-97187500D01*
G75*
G02*
X175187500Y-97125000I62500J0D01*
G01*
X175937500Y-97125000D01*
G75*
G02*
X176000000Y-97187500I0J-62500D01*
G01*
X176000000Y-97312500D01*
G75*
G02*
X175937500Y-97375000I-62500J0D01*
G01*
X175187500Y-97375000D01*
G75*
G02*
X175125000Y-97312500I0J62500D01*
G01*
G37*
G36*
G01*
X175125000Y-96812500D02*
X175125000Y-96687500D01*
G75*
G02*
X175187500Y-96625000I62500J0D01*
G01*
X175937500Y-96625000D01*
G75*
G02*
X176000000Y-96687500I0J-62500D01*
G01*
X176000000Y-96812500D01*
G75*
G02*
X175937500Y-96875000I-62500J0D01*
G01*
X175187500Y-96875000D01*
G75*
G02*
X175125000Y-96812500I0J62500D01*
G01*
G37*
G36*
G01*
X175125000Y-96312500D02*
X175125000Y-96187500D01*
G75*
G02*
X175187500Y-96125000I62500J0D01*
G01*
X175937500Y-96125000D01*
G75*
G02*
X176000000Y-96187500I0J-62500D01*
G01*
X176000000Y-96312500D01*
G75*
G02*
X175937500Y-96375000I-62500J0D01*
G01*
X175187500Y-96375000D01*
G75*
G02*
X175125000Y-96312500I0J62500D01*
G01*
G37*
G36*
G01*
X175125000Y-95812500D02*
X175125000Y-95687500D01*
G75*
G02*
X175187500Y-95625000I62500J0D01*
G01*
X175937500Y-95625000D01*
G75*
G02*
X176000000Y-95687500I0J-62500D01*
G01*
X176000000Y-95812500D01*
G75*
G02*
X175937500Y-95875000I-62500J0D01*
G01*
X175187500Y-95875000D01*
G75*
G02*
X175125000Y-95812500I0J62500D01*
G01*
G37*
G36*
G01*
X175125000Y-95312500D02*
X175125000Y-95187500D01*
G75*
G02*
X175187500Y-95125000I62500J0D01*
G01*
X175937500Y-95125000D01*
G75*
G02*
X176000000Y-95187500I0J-62500D01*
G01*
X176000000Y-95312500D01*
G75*
G02*
X175937500Y-95375000I-62500J0D01*
G01*
X175187500Y-95375000D01*
G75*
G02*
X175125000Y-95312500I0J62500D01*
G01*
G37*
G36*
G01*
X158615000Y-98237500D02*
X158615000Y-97822500D01*
G75*
G02*
X158822500Y-97615000I207500J0D01*
G01*
X159237500Y-97615000D01*
G75*
G02*
X159445000Y-97822500I0J-207500D01*
G01*
X159445000Y-98237500D01*
G75*
G02*
X159237500Y-98445000I-207500J0D01*
G01*
X158822500Y-98445000D01*
G75*
G02*
X158615000Y-98237500I0J207500D01*
G01*
G37*
G36*
G01*
X158615000Y-97207500D02*
X158615000Y-96792500D01*
G75*
G02*
X158822500Y-96585000I207500J0D01*
G01*
X159237500Y-96585000D01*
G75*
G02*
X159445000Y-96792500I0J-207500D01*
G01*
X159445000Y-97207500D01*
G75*
G02*
X159237500Y-97415000I-207500J0D01*
G01*
X158822500Y-97415000D01*
G75*
G02*
X158615000Y-97207500I0J207500D01*
G01*
G37*
G36*
G01*
X158615000Y-96177500D02*
X158615000Y-95762500D01*
G75*
G02*
X158822500Y-95555000I207500J0D01*
G01*
X159237500Y-95555000D01*
G75*
G02*
X159445000Y-95762500I0J-207500D01*
G01*
X159445000Y-96177500D01*
G75*
G02*
X159237500Y-96385000I-207500J0D01*
G01*
X158822500Y-96385000D01*
G75*
G02*
X158615000Y-96177500I0J207500D01*
G01*
G37*
G36*
G01*
X157585000Y-98237500D02*
X157585000Y-97822500D01*
G75*
G02*
X157792500Y-97615000I207500J0D01*
G01*
X158207500Y-97615000D01*
G75*
G02*
X158415000Y-97822500I0J-207500D01*
G01*
X158415000Y-98237500D01*
G75*
G02*
X158207500Y-98445000I-207500J0D01*
G01*
X157792500Y-98445000D01*
G75*
G02*
X157585000Y-98237500I0J207500D01*
G01*
G37*
G36*
G01*
X157585000Y-97207500D02*
X157585000Y-96792500D01*
G75*
G02*
X157792500Y-96585000I207500J0D01*
G01*
X158207500Y-96585000D01*
G75*
G02*
X158415000Y-96792500I0J-207500D01*
G01*
X158415000Y-97207500D01*
G75*
G02*
X158207500Y-97415000I-207500J0D01*
G01*
X157792500Y-97415000D01*
G75*
G02*
X157585000Y-97207500I0J207500D01*
G01*
G37*
G36*
G01*
X157585000Y-96177500D02*
X157585000Y-95762500D01*
G75*
G02*
X157792500Y-95555000I207500J0D01*
G01*
X158207500Y-95555000D01*
G75*
G02*
X158415000Y-95762500I0J-207500D01*
G01*
X158415000Y-96177500D01*
G75*
G02*
X158207500Y-96385000I-207500J0D01*
G01*
X157792500Y-96385000D01*
G75*
G02*
X157585000Y-96177500I0J207500D01*
G01*
G37*
G36*
G01*
X156555000Y-98237500D02*
X156555000Y-97822500D01*
G75*
G02*
X156762500Y-97615000I207500J0D01*
G01*
X157177500Y-97615000D01*
G75*
G02*
X157385000Y-97822500I0J-207500D01*
G01*
X157385000Y-98237500D01*
G75*
G02*
X157177500Y-98445000I-207500J0D01*
G01*
X156762500Y-98445000D01*
G75*
G02*
X156555000Y-98237500I0J207500D01*
G01*
G37*
G36*
G01*
X156555000Y-97207500D02*
X156555000Y-96792500D01*
G75*
G02*
X156762500Y-96585000I207500J0D01*
G01*
X157177500Y-96585000D01*
G75*
G02*
X157385000Y-96792500I0J-207500D01*
G01*
X157385000Y-97207500D01*
G75*
G02*
X157177500Y-97415000I-207500J0D01*
G01*
X156762500Y-97415000D01*
G75*
G02*
X156555000Y-97207500I0J207500D01*
G01*
G37*
G36*
G01*
X156555000Y-96177500D02*
X156555000Y-95762500D01*
G75*
G02*
X156762500Y-95555000I207500J0D01*
G01*
X157177500Y-95555000D01*
G75*
G02*
X157385000Y-95762500I0J-207500D01*
G01*
X157385000Y-96177500D01*
G75*
G02*
X157177500Y-96385000I-207500J0D01*
G01*
X156762500Y-96385000D01*
G75*
G02*
X156555000Y-96177500I0J207500D01*
G01*
G37*
G36*
G01*
X156125000Y-94937500D02*
X156125000Y-94187500D01*
G75*
G02*
X156187500Y-94125000I62500J0D01*
G01*
X156312500Y-94125000D01*
G75*
G02*
X156375000Y-94187500I0J-62500D01*
G01*
X156375000Y-94937500D01*
G75*
G02*
X156312500Y-95000000I-62500J0D01*
G01*
X156187500Y-95000000D01*
G75*
G02*
X156125000Y-94937500I0J62500D01*
G01*
G37*
G36*
G01*
X156625000Y-94937500D02*
X156625000Y-94187500D01*
G75*
G02*
X156687500Y-94125000I62500J0D01*
G01*
X156812500Y-94125000D01*
G75*
G02*
X156875000Y-94187500I0J-62500D01*
G01*
X156875000Y-94937500D01*
G75*
G02*
X156812500Y-95000000I-62500J0D01*
G01*
X156687500Y-95000000D01*
G75*
G02*
X156625000Y-94937500I0J62500D01*
G01*
G37*
G36*
G01*
X157125000Y-94937500D02*
X157125000Y-94187500D01*
G75*
G02*
X157187500Y-94125000I62500J0D01*
G01*
X157312500Y-94125000D01*
G75*
G02*
X157375000Y-94187500I0J-62500D01*
G01*
X157375000Y-94937500D01*
G75*
G02*
X157312500Y-95000000I-62500J0D01*
G01*
X157187500Y-95000000D01*
G75*
G02*
X157125000Y-94937500I0J62500D01*
G01*
G37*
G36*
G01*
X157625000Y-94937500D02*
X157625000Y-94187500D01*
G75*
G02*
X157687500Y-94125000I62500J0D01*
G01*
X157812500Y-94125000D01*
G75*
G02*
X157875000Y-94187500I0J-62500D01*
G01*
X157875000Y-94937500D01*
G75*
G02*
X157812500Y-95000000I-62500J0D01*
G01*
X157687500Y-95000000D01*
G75*
G02*
X157625000Y-94937500I0J62500D01*
G01*
G37*
G36*
G01*
X158125000Y-94937500D02*
X158125000Y-94187500D01*
G75*
G02*
X158187500Y-94125000I62500J0D01*
G01*
X158312500Y-94125000D01*
G75*
G02*
X158375000Y-94187500I0J-62500D01*
G01*
X158375000Y-94937500D01*
G75*
G02*
X158312500Y-95000000I-62500J0D01*
G01*
X158187500Y-95000000D01*
G75*
G02*
X158125000Y-94937500I0J62500D01*
G01*
G37*
G36*
G01*
X158625000Y-94937500D02*
X158625000Y-94187500D01*
G75*
G02*
X158687500Y-94125000I62500J0D01*
G01*
X158812500Y-94125000D01*
G75*
G02*
X158875000Y-94187500I0J-62500D01*
G01*
X158875000Y-94937500D01*
G75*
G02*
X158812500Y-95000000I-62500J0D01*
G01*
X158687500Y-95000000D01*
G75*
G02*
X158625000Y-94937500I0J62500D01*
G01*
G37*
G36*
G01*
X159125000Y-94937500D02*
X159125000Y-94187500D01*
G75*
G02*
X159187500Y-94125000I62500J0D01*
G01*
X159312500Y-94125000D01*
G75*
G02*
X159375000Y-94187500I0J-62500D01*
G01*
X159375000Y-94937500D01*
G75*
G02*
X159312500Y-95000000I-62500J0D01*
G01*
X159187500Y-95000000D01*
G75*
G02*
X159125000Y-94937500I0J62500D01*
G01*
G37*
G36*
G01*
X159625000Y-94937500D02*
X159625000Y-94187500D01*
G75*
G02*
X159687500Y-94125000I62500J0D01*
G01*
X159812500Y-94125000D01*
G75*
G02*
X159875000Y-94187500I0J-62500D01*
G01*
X159875000Y-94937500D01*
G75*
G02*
X159812500Y-95000000I-62500J0D01*
G01*
X159687500Y-95000000D01*
G75*
G02*
X159625000Y-94937500I0J62500D01*
G01*
G37*
G36*
G01*
X160000000Y-95312500D02*
X160000000Y-95187500D01*
G75*
G02*
X160062500Y-95125000I62500J0D01*
G01*
X160812500Y-95125000D01*
G75*
G02*
X160875000Y-95187500I0J-62500D01*
G01*
X160875000Y-95312500D01*
G75*
G02*
X160812500Y-95375000I-62500J0D01*
G01*
X160062500Y-95375000D01*
G75*
G02*
X160000000Y-95312500I0J62500D01*
G01*
G37*
G36*
G01*
X160000000Y-95812500D02*
X160000000Y-95687500D01*
G75*
G02*
X160062500Y-95625000I62500J0D01*
G01*
X160812500Y-95625000D01*
G75*
G02*
X160875000Y-95687500I0J-62500D01*
G01*
X160875000Y-95812500D01*
G75*
G02*
X160812500Y-95875000I-62500J0D01*
G01*
X160062500Y-95875000D01*
G75*
G02*
X160000000Y-95812500I0J62500D01*
G01*
G37*
G36*
G01*
X160000000Y-96312500D02*
X160000000Y-96187500D01*
G75*
G02*
X160062500Y-96125000I62500J0D01*
G01*
X160812500Y-96125000D01*
G75*
G02*
X160875000Y-96187500I0J-62500D01*
G01*
X160875000Y-96312500D01*
G75*
G02*
X160812500Y-96375000I-62500J0D01*
G01*
X160062500Y-96375000D01*
G75*
G02*
X160000000Y-96312500I0J62500D01*
G01*
G37*
G36*
G01*
X160000000Y-96812500D02*
X160000000Y-96687500D01*
G75*
G02*
X160062500Y-96625000I62500J0D01*
G01*
X160812500Y-96625000D01*
G75*
G02*
X160875000Y-96687500I0J-62500D01*
G01*
X160875000Y-96812500D01*
G75*
G02*
X160812500Y-96875000I-62500J0D01*
G01*
X160062500Y-96875000D01*
G75*
G02*
X160000000Y-96812500I0J62500D01*
G01*
G37*
G36*
G01*
X160000000Y-97312500D02*
X160000000Y-97187500D01*
G75*
G02*
X160062500Y-97125000I62500J0D01*
G01*
X160812500Y-97125000D01*
G75*
G02*
X160875000Y-97187500I0J-62500D01*
G01*
X160875000Y-97312500D01*
G75*
G02*
X160812500Y-97375000I-62500J0D01*
G01*
X160062500Y-97375000D01*
G75*
G02*
X160000000Y-97312500I0J62500D01*
G01*
G37*
G36*
G01*
X160000000Y-97812500D02*
X160000000Y-97687500D01*
G75*
G02*
X160062500Y-97625000I62500J0D01*
G01*
X160812500Y-97625000D01*
G75*
G02*
X160875000Y-97687500I0J-62500D01*
G01*
X160875000Y-97812500D01*
G75*
G02*
X160812500Y-97875000I-62500J0D01*
G01*
X160062500Y-97875000D01*
G75*
G02*
X160000000Y-97812500I0J62500D01*
G01*
G37*
G36*
G01*
X160000000Y-98312500D02*
X160000000Y-98187500D01*
G75*
G02*
X160062500Y-98125000I62500J0D01*
G01*
X160812500Y-98125000D01*
G75*
G02*
X160875000Y-98187500I0J-62500D01*
G01*
X160875000Y-98312500D01*
G75*
G02*
X160812500Y-98375000I-62500J0D01*
G01*
X160062500Y-98375000D01*
G75*
G02*
X160000000Y-98312500I0J62500D01*
G01*
G37*
G36*
G01*
X160000000Y-98812500D02*
X160000000Y-98687500D01*
G75*
G02*
X160062500Y-98625000I62500J0D01*
G01*
X160812500Y-98625000D01*
G75*
G02*
X160875000Y-98687500I0J-62500D01*
G01*
X160875000Y-98812500D01*
G75*
G02*
X160812500Y-98875000I-62500J0D01*
G01*
X160062500Y-98875000D01*
G75*
G02*
X160000000Y-98812500I0J62500D01*
G01*
G37*
G36*
G01*
X159625000Y-99812500D02*
X159625000Y-99062500D01*
G75*
G02*
X159687500Y-99000000I62500J0D01*
G01*
X159812500Y-99000000D01*
G75*
G02*
X159875000Y-99062500I0J-62500D01*
G01*
X159875000Y-99812500D01*
G75*
G02*
X159812500Y-99875000I-62500J0D01*
G01*
X159687500Y-99875000D01*
G75*
G02*
X159625000Y-99812500I0J62500D01*
G01*
G37*
G36*
G01*
X159125000Y-99812500D02*
X159125000Y-99062500D01*
G75*
G02*
X159187500Y-99000000I62500J0D01*
G01*
X159312500Y-99000000D01*
G75*
G02*
X159375000Y-99062500I0J-62500D01*
G01*
X159375000Y-99812500D01*
G75*
G02*
X159312500Y-99875000I-62500J0D01*
G01*
X159187500Y-99875000D01*
G75*
G02*
X159125000Y-99812500I0J62500D01*
G01*
G37*
G36*
G01*
X158625000Y-99812500D02*
X158625000Y-99062500D01*
G75*
G02*
X158687500Y-99000000I62500J0D01*
G01*
X158812500Y-99000000D01*
G75*
G02*
X158875000Y-99062500I0J-62500D01*
G01*
X158875000Y-99812500D01*
G75*
G02*
X158812500Y-99875000I-62500J0D01*
G01*
X158687500Y-99875000D01*
G75*
G02*
X158625000Y-99812500I0J62500D01*
G01*
G37*
G36*
G01*
X158125000Y-99812500D02*
X158125000Y-99062500D01*
G75*
G02*
X158187500Y-99000000I62500J0D01*
G01*
X158312500Y-99000000D01*
G75*
G02*
X158375000Y-99062500I0J-62500D01*
G01*
X158375000Y-99812500D01*
G75*
G02*
X158312500Y-99875000I-62500J0D01*
G01*
X158187500Y-99875000D01*
G75*
G02*
X158125000Y-99812500I0J62500D01*
G01*
G37*
G36*
G01*
X157625000Y-99812500D02*
X157625000Y-99062500D01*
G75*
G02*
X157687500Y-99000000I62500J0D01*
G01*
X157812500Y-99000000D01*
G75*
G02*
X157875000Y-99062500I0J-62500D01*
G01*
X157875000Y-99812500D01*
G75*
G02*
X157812500Y-99875000I-62500J0D01*
G01*
X157687500Y-99875000D01*
G75*
G02*
X157625000Y-99812500I0J62500D01*
G01*
G37*
G36*
G01*
X157125000Y-99812500D02*
X157125000Y-99062500D01*
G75*
G02*
X157187500Y-99000000I62500J0D01*
G01*
X157312500Y-99000000D01*
G75*
G02*
X157375000Y-99062500I0J-62500D01*
G01*
X157375000Y-99812500D01*
G75*
G02*
X157312500Y-99875000I-62500J0D01*
G01*
X157187500Y-99875000D01*
G75*
G02*
X157125000Y-99812500I0J62500D01*
G01*
G37*
G36*
G01*
X156625000Y-99812500D02*
X156625000Y-99062500D01*
G75*
G02*
X156687500Y-99000000I62500J0D01*
G01*
X156812500Y-99000000D01*
G75*
G02*
X156875000Y-99062500I0J-62500D01*
G01*
X156875000Y-99812500D01*
G75*
G02*
X156812500Y-99875000I-62500J0D01*
G01*
X156687500Y-99875000D01*
G75*
G02*
X156625000Y-99812500I0J62500D01*
G01*
G37*
G36*
G01*
X156125000Y-99812500D02*
X156125000Y-99062500D01*
G75*
G02*
X156187500Y-99000000I62500J0D01*
G01*
X156312500Y-99000000D01*
G75*
G02*
X156375000Y-99062500I0J-62500D01*
G01*
X156375000Y-99812500D01*
G75*
G02*
X156312500Y-99875000I-62500J0D01*
G01*
X156187500Y-99875000D01*
G75*
G02*
X156125000Y-99812500I0J62500D01*
G01*
G37*
G36*
G01*
X155125000Y-98812500D02*
X155125000Y-98687500D01*
G75*
G02*
X155187500Y-98625000I62500J0D01*
G01*
X155937500Y-98625000D01*
G75*
G02*
X156000000Y-98687500I0J-62500D01*
G01*
X156000000Y-98812500D01*
G75*
G02*
X155937500Y-98875000I-62500J0D01*
G01*
X155187500Y-98875000D01*
G75*
G02*
X155125000Y-98812500I0J62500D01*
G01*
G37*
G36*
G01*
X155125000Y-98312500D02*
X155125000Y-98187500D01*
G75*
G02*
X155187500Y-98125000I62500J0D01*
G01*
X155937500Y-98125000D01*
G75*
G02*
X156000000Y-98187500I0J-62500D01*
G01*
X156000000Y-98312500D01*
G75*
G02*
X155937500Y-98375000I-62500J0D01*
G01*
X155187500Y-98375000D01*
G75*
G02*
X155125000Y-98312500I0J62500D01*
G01*
G37*
G36*
G01*
X155125000Y-97812500D02*
X155125000Y-97687500D01*
G75*
G02*
X155187500Y-97625000I62500J0D01*
G01*
X155937500Y-97625000D01*
G75*
G02*
X156000000Y-97687500I0J-62500D01*
G01*
X156000000Y-97812500D01*
G75*
G02*
X155937500Y-97875000I-62500J0D01*
G01*
X155187500Y-97875000D01*
G75*
G02*
X155125000Y-97812500I0J62500D01*
G01*
G37*
G36*
G01*
X155125000Y-97312500D02*
X155125000Y-97187500D01*
G75*
G02*
X155187500Y-97125000I62500J0D01*
G01*
X155937500Y-97125000D01*
G75*
G02*
X156000000Y-97187500I0J-62500D01*
G01*
X156000000Y-97312500D01*
G75*
G02*
X155937500Y-97375000I-62500J0D01*
G01*
X155187500Y-97375000D01*
G75*
G02*
X155125000Y-97312500I0J62500D01*
G01*
G37*
G36*
G01*
X155125000Y-96812500D02*
X155125000Y-96687500D01*
G75*
G02*
X155187500Y-96625000I62500J0D01*
G01*
X155937500Y-96625000D01*
G75*
G02*
X156000000Y-96687500I0J-62500D01*
G01*
X156000000Y-96812500D01*
G75*
G02*
X155937500Y-96875000I-62500J0D01*
G01*
X155187500Y-96875000D01*
G75*
G02*
X155125000Y-96812500I0J62500D01*
G01*
G37*
G36*
G01*
X155125000Y-96312500D02*
X155125000Y-96187500D01*
G75*
G02*
X155187500Y-96125000I62500J0D01*
G01*
X155937500Y-96125000D01*
G75*
G02*
X156000000Y-96187500I0J-62500D01*
G01*
X156000000Y-96312500D01*
G75*
G02*
X155937500Y-96375000I-62500J0D01*
G01*
X155187500Y-96375000D01*
G75*
G02*
X155125000Y-96312500I0J62500D01*
G01*
G37*
G36*
G01*
X155125000Y-95812500D02*
X155125000Y-95687500D01*
G75*
G02*
X155187500Y-95625000I62500J0D01*
G01*
X155937500Y-95625000D01*
G75*
G02*
X156000000Y-95687500I0J-62500D01*
G01*
X156000000Y-95812500D01*
G75*
G02*
X155937500Y-95875000I-62500J0D01*
G01*
X155187500Y-95875000D01*
G75*
G02*
X155125000Y-95812500I0J62500D01*
G01*
G37*
G36*
G01*
X155125000Y-95312500D02*
X155125000Y-95187500D01*
G75*
G02*
X155187500Y-95125000I62500J0D01*
G01*
X155937500Y-95125000D01*
G75*
G02*
X156000000Y-95187500I0J-62500D01*
G01*
X156000000Y-95312500D01*
G75*
G02*
X155937500Y-95375000I-62500J0D01*
G01*
X155187500Y-95375000D01*
G75*
G02*
X155125000Y-95312500I0J62500D01*
G01*
G37*
D13*
X211550000Y-86250000D03*
X211550000Y-86750000D03*
X211550000Y-87250000D03*
X211550000Y-87750000D03*
X208450000Y-87750000D03*
X208450000Y-87250000D03*
X208450000Y-86750000D03*
X208450000Y-86250000D03*
X211550000Y-83250000D03*
X211550000Y-83750000D03*
X211550000Y-84250000D03*
X211550000Y-84750000D03*
X208450000Y-84750000D03*
X208450000Y-84250000D03*
X208450000Y-83750000D03*
X208450000Y-83250000D03*
X211550000Y-72250000D03*
X211550000Y-72750000D03*
X211550000Y-73250000D03*
X211550000Y-73750000D03*
X208450000Y-73750000D03*
X208450000Y-73250000D03*
X208450000Y-72750000D03*
X208450000Y-72250000D03*
X211550000Y-69250000D03*
X211550000Y-69750000D03*
X211550000Y-70250000D03*
X211550000Y-70750000D03*
X208450000Y-70750000D03*
X208450000Y-70250000D03*
X208450000Y-69750000D03*
X208450000Y-69250000D03*
X211550000Y-66250000D03*
X211550000Y-66750000D03*
X211550000Y-67250000D03*
X211550000Y-67750000D03*
X208450000Y-67750000D03*
X208450000Y-67250000D03*
X208450000Y-66750000D03*
X208450000Y-66250000D03*
G36*
G01*
X138615000Y-98237500D02*
X138615000Y-97822500D01*
G75*
G02*
X138822500Y-97615000I207500J0D01*
G01*
X139237500Y-97615000D01*
G75*
G02*
X139445000Y-97822500I0J-207500D01*
G01*
X139445000Y-98237500D01*
G75*
G02*
X139237500Y-98445000I-207500J0D01*
G01*
X138822500Y-98445000D01*
G75*
G02*
X138615000Y-98237500I0J207500D01*
G01*
G37*
G36*
G01*
X138615000Y-97207500D02*
X138615000Y-96792500D01*
G75*
G02*
X138822500Y-96585000I207500J0D01*
G01*
X139237500Y-96585000D01*
G75*
G02*
X139445000Y-96792500I0J-207500D01*
G01*
X139445000Y-97207500D01*
G75*
G02*
X139237500Y-97415000I-207500J0D01*
G01*
X138822500Y-97415000D01*
G75*
G02*
X138615000Y-97207500I0J207500D01*
G01*
G37*
G36*
G01*
X138615000Y-96177500D02*
X138615000Y-95762500D01*
G75*
G02*
X138822500Y-95555000I207500J0D01*
G01*
X139237500Y-95555000D01*
G75*
G02*
X139445000Y-95762500I0J-207500D01*
G01*
X139445000Y-96177500D01*
G75*
G02*
X139237500Y-96385000I-207500J0D01*
G01*
X138822500Y-96385000D01*
G75*
G02*
X138615000Y-96177500I0J207500D01*
G01*
G37*
G36*
G01*
X137585000Y-98237500D02*
X137585000Y-97822500D01*
G75*
G02*
X137792500Y-97615000I207500J0D01*
G01*
X138207500Y-97615000D01*
G75*
G02*
X138415000Y-97822500I0J-207500D01*
G01*
X138415000Y-98237500D01*
G75*
G02*
X138207500Y-98445000I-207500J0D01*
G01*
X137792500Y-98445000D01*
G75*
G02*
X137585000Y-98237500I0J207500D01*
G01*
G37*
G36*
G01*
X137585000Y-97207500D02*
X137585000Y-96792500D01*
G75*
G02*
X137792500Y-96585000I207500J0D01*
G01*
X138207500Y-96585000D01*
G75*
G02*
X138415000Y-96792500I0J-207500D01*
G01*
X138415000Y-97207500D01*
G75*
G02*
X138207500Y-97415000I-207500J0D01*
G01*
X137792500Y-97415000D01*
G75*
G02*
X137585000Y-97207500I0J207500D01*
G01*
G37*
G36*
G01*
X137585000Y-96177500D02*
X137585000Y-95762500D01*
G75*
G02*
X137792500Y-95555000I207500J0D01*
G01*
X138207500Y-95555000D01*
G75*
G02*
X138415000Y-95762500I0J-207500D01*
G01*
X138415000Y-96177500D01*
G75*
G02*
X138207500Y-96385000I-207500J0D01*
G01*
X137792500Y-96385000D01*
G75*
G02*
X137585000Y-96177500I0J207500D01*
G01*
G37*
G36*
G01*
X136555000Y-98237500D02*
X136555000Y-97822500D01*
G75*
G02*
X136762500Y-97615000I207500J0D01*
G01*
X137177500Y-97615000D01*
G75*
G02*
X137385000Y-97822500I0J-207500D01*
G01*
X137385000Y-98237500D01*
G75*
G02*
X137177500Y-98445000I-207500J0D01*
G01*
X136762500Y-98445000D01*
G75*
G02*
X136555000Y-98237500I0J207500D01*
G01*
G37*
G36*
G01*
X136555000Y-97207500D02*
X136555000Y-96792500D01*
G75*
G02*
X136762500Y-96585000I207500J0D01*
G01*
X137177500Y-96585000D01*
G75*
G02*
X137385000Y-96792500I0J-207500D01*
G01*
X137385000Y-97207500D01*
G75*
G02*
X137177500Y-97415000I-207500J0D01*
G01*
X136762500Y-97415000D01*
G75*
G02*
X136555000Y-97207500I0J207500D01*
G01*
G37*
G36*
G01*
X136555000Y-96177500D02*
X136555000Y-95762500D01*
G75*
G02*
X136762500Y-95555000I207500J0D01*
G01*
X137177500Y-95555000D01*
G75*
G02*
X137385000Y-95762500I0J-207500D01*
G01*
X137385000Y-96177500D01*
G75*
G02*
X137177500Y-96385000I-207500J0D01*
G01*
X136762500Y-96385000D01*
G75*
G02*
X136555000Y-96177500I0J207500D01*
G01*
G37*
G36*
G01*
X136125000Y-94937500D02*
X136125000Y-94187500D01*
G75*
G02*
X136187500Y-94125000I62500J0D01*
G01*
X136312500Y-94125000D01*
G75*
G02*
X136375000Y-94187500I0J-62500D01*
G01*
X136375000Y-94937500D01*
G75*
G02*
X136312500Y-95000000I-62500J0D01*
G01*
X136187500Y-95000000D01*
G75*
G02*
X136125000Y-94937500I0J62500D01*
G01*
G37*
G36*
G01*
X136625000Y-94937500D02*
X136625000Y-94187500D01*
G75*
G02*
X136687500Y-94125000I62500J0D01*
G01*
X136812500Y-94125000D01*
G75*
G02*
X136875000Y-94187500I0J-62500D01*
G01*
X136875000Y-94937500D01*
G75*
G02*
X136812500Y-95000000I-62500J0D01*
G01*
X136687500Y-95000000D01*
G75*
G02*
X136625000Y-94937500I0J62500D01*
G01*
G37*
G36*
G01*
X137125000Y-94937500D02*
X137125000Y-94187500D01*
G75*
G02*
X137187500Y-94125000I62500J0D01*
G01*
X137312500Y-94125000D01*
G75*
G02*
X137375000Y-94187500I0J-62500D01*
G01*
X137375000Y-94937500D01*
G75*
G02*
X137312500Y-95000000I-62500J0D01*
G01*
X137187500Y-95000000D01*
G75*
G02*
X137125000Y-94937500I0J62500D01*
G01*
G37*
G36*
G01*
X137625000Y-94937500D02*
X137625000Y-94187500D01*
G75*
G02*
X137687500Y-94125000I62500J0D01*
G01*
X137812500Y-94125000D01*
G75*
G02*
X137875000Y-94187500I0J-62500D01*
G01*
X137875000Y-94937500D01*
G75*
G02*
X137812500Y-95000000I-62500J0D01*
G01*
X137687500Y-95000000D01*
G75*
G02*
X137625000Y-94937500I0J62500D01*
G01*
G37*
G36*
G01*
X138125000Y-94937500D02*
X138125000Y-94187500D01*
G75*
G02*
X138187500Y-94125000I62500J0D01*
G01*
X138312500Y-94125000D01*
G75*
G02*
X138375000Y-94187500I0J-62500D01*
G01*
X138375000Y-94937500D01*
G75*
G02*
X138312500Y-95000000I-62500J0D01*
G01*
X138187500Y-95000000D01*
G75*
G02*
X138125000Y-94937500I0J62500D01*
G01*
G37*
G36*
G01*
X138625000Y-94937500D02*
X138625000Y-94187500D01*
G75*
G02*
X138687500Y-94125000I62500J0D01*
G01*
X138812500Y-94125000D01*
G75*
G02*
X138875000Y-94187500I0J-62500D01*
G01*
X138875000Y-94937500D01*
G75*
G02*
X138812500Y-95000000I-62500J0D01*
G01*
X138687500Y-95000000D01*
G75*
G02*
X138625000Y-94937500I0J62500D01*
G01*
G37*
G36*
G01*
X139125000Y-94937500D02*
X139125000Y-94187500D01*
G75*
G02*
X139187500Y-94125000I62500J0D01*
G01*
X139312500Y-94125000D01*
G75*
G02*
X139375000Y-94187500I0J-62500D01*
G01*
X139375000Y-94937500D01*
G75*
G02*
X139312500Y-95000000I-62500J0D01*
G01*
X139187500Y-95000000D01*
G75*
G02*
X139125000Y-94937500I0J62500D01*
G01*
G37*
G36*
G01*
X139625000Y-94937500D02*
X139625000Y-94187500D01*
G75*
G02*
X139687500Y-94125000I62500J0D01*
G01*
X139812500Y-94125000D01*
G75*
G02*
X139875000Y-94187500I0J-62500D01*
G01*
X139875000Y-94937500D01*
G75*
G02*
X139812500Y-95000000I-62500J0D01*
G01*
X139687500Y-95000000D01*
G75*
G02*
X139625000Y-94937500I0J62500D01*
G01*
G37*
G36*
G01*
X140000000Y-95312500D02*
X140000000Y-95187500D01*
G75*
G02*
X140062500Y-95125000I62500J0D01*
G01*
X140812500Y-95125000D01*
G75*
G02*
X140875000Y-95187500I0J-62500D01*
G01*
X140875000Y-95312500D01*
G75*
G02*
X140812500Y-95375000I-62500J0D01*
G01*
X140062500Y-95375000D01*
G75*
G02*
X140000000Y-95312500I0J62500D01*
G01*
G37*
G36*
G01*
X140000000Y-95812500D02*
X140000000Y-95687500D01*
G75*
G02*
X140062500Y-95625000I62500J0D01*
G01*
X140812500Y-95625000D01*
G75*
G02*
X140875000Y-95687500I0J-62500D01*
G01*
X140875000Y-95812500D01*
G75*
G02*
X140812500Y-95875000I-62500J0D01*
G01*
X140062500Y-95875000D01*
G75*
G02*
X140000000Y-95812500I0J62500D01*
G01*
G37*
G36*
G01*
X140000000Y-96312500D02*
X140000000Y-96187500D01*
G75*
G02*
X140062500Y-96125000I62500J0D01*
G01*
X140812500Y-96125000D01*
G75*
G02*
X140875000Y-96187500I0J-62500D01*
G01*
X140875000Y-96312500D01*
G75*
G02*
X140812500Y-96375000I-62500J0D01*
G01*
X140062500Y-96375000D01*
G75*
G02*
X140000000Y-96312500I0J62500D01*
G01*
G37*
G36*
G01*
X140000000Y-96812500D02*
X140000000Y-96687500D01*
G75*
G02*
X140062500Y-96625000I62500J0D01*
G01*
X140812500Y-96625000D01*
G75*
G02*
X140875000Y-96687500I0J-62500D01*
G01*
X140875000Y-96812500D01*
G75*
G02*
X140812500Y-96875000I-62500J0D01*
G01*
X140062500Y-96875000D01*
G75*
G02*
X140000000Y-96812500I0J62500D01*
G01*
G37*
G36*
G01*
X140000000Y-97312500D02*
X140000000Y-97187500D01*
G75*
G02*
X140062500Y-97125000I62500J0D01*
G01*
X140812500Y-97125000D01*
G75*
G02*
X140875000Y-97187500I0J-62500D01*
G01*
X140875000Y-97312500D01*
G75*
G02*
X140812500Y-97375000I-62500J0D01*
G01*
X140062500Y-97375000D01*
G75*
G02*
X140000000Y-97312500I0J62500D01*
G01*
G37*
G36*
G01*
X140000000Y-97812500D02*
X140000000Y-97687500D01*
G75*
G02*
X140062500Y-97625000I62500J0D01*
G01*
X140812500Y-97625000D01*
G75*
G02*
X140875000Y-97687500I0J-62500D01*
G01*
X140875000Y-97812500D01*
G75*
G02*
X140812500Y-97875000I-62500J0D01*
G01*
X140062500Y-97875000D01*
G75*
G02*
X140000000Y-97812500I0J62500D01*
G01*
G37*
G36*
G01*
X140000000Y-98312500D02*
X140000000Y-98187500D01*
G75*
G02*
X140062500Y-98125000I62500J0D01*
G01*
X140812500Y-98125000D01*
G75*
G02*
X140875000Y-98187500I0J-62500D01*
G01*
X140875000Y-98312500D01*
G75*
G02*
X140812500Y-98375000I-62500J0D01*
G01*
X140062500Y-98375000D01*
G75*
G02*
X140000000Y-98312500I0J62500D01*
G01*
G37*
G36*
G01*
X140000000Y-98812500D02*
X140000000Y-98687500D01*
G75*
G02*
X140062500Y-98625000I62500J0D01*
G01*
X140812500Y-98625000D01*
G75*
G02*
X140875000Y-98687500I0J-62500D01*
G01*
X140875000Y-98812500D01*
G75*
G02*
X140812500Y-98875000I-62500J0D01*
G01*
X140062500Y-98875000D01*
G75*
G02*
X140000000Y-98812500I0J62500D01*
G01*
G37*
G36*
G01*
X139625000Y-99812500D02*
X139625000Y-99062500D01*
G75*
G02*
X139687500Y-99000000I62500J0D01*
G01*
X139812500Y-99000000D01*
G75*
G02*
X139875000Y-99062500I0J-62500D01*
G01*
X139875000Y-99812500D01*
G75*
G02*
X139812500Y-99875000I-62500J0D01*
G01*
X139687500Y-99875000D01*
G75*
G02*
X139625000Y-99812500I0J62500D01*
G01*
G37*
G36*
G01*
X139125000Y-99812500D02*
X139125000Y-99062500D01*
G75*
G02*
X139187500Y-99000000I62500J0D01*
G01*
X139312500Y-99000000D01*
G75*
G02*
X139375000Y-99062500I0J-62500D01*
G01*
X139375000Y-99812500D01*
G75*
G02*
X139312500Y-99875000I-62500J0D01*
G01*
X139187500Y-99875000D01*
G75*
G02*
X139125000Y-99812500I0J62500D01*
G01*
G37*
G36*
G01*
X138625000Y-99812500D02*
X138625000Y-99062500D01*
G75*
G02*
X138687500Y-99000000I62500J0D01*
G01*
X138812500Y-99000000D01*
G75*
G02*
X138875000Y-99062500I0J-62500D01*
G01*
X138875000Y-99812500D01*
G75*
G02*
X138812500Y-99875000I-62500J0D01*
G01*
X138687500Y-99875000D01*
G75*
G02*
X138625000Y-99812500I0J62500D01*
G01*
G37*
G36*
G01*
X138125000Y-99812500D02*
X138125000Y-99062500D01*
G75*
G02*
X138187500Y-99000000I62500J0D01*
G01*
X138312500Y-99000000D01*
G75*
G02*
X138375000Y-99062500I0J-62500D01*
G01*
X138375000Y-99812500D01*
G75*
G02*
X138312500Y-99875000I-62500J0D01*
G01*
X138187500Y-99875000D01*
G75*
G02*
X138125000Y-99812500I0J62500D01*
G01*
G37*
G36*
G01*
X137625000Y-99812500D02*
X137625000Y-99062500D01*
G75*
G02*
X137687500Y-99000000I62500J0D01*
G01*
X137812500Y-99000000D01*
G75*
G02*
X137875000Y-99062500I0J-62500D01*
G01*
X137875000Y-99812500D01*
G75*
G02*
X137812500Y-99875000I-62500J0D01*
G01*
X137687500Y-99875000D01*
G75*
G02*
X137625000Y-99812500I0J62500D01*
G01*
G37*
G36*
G01*
X137125000Y-99812500D02*
X137125000Y-99062500D01*
G75*
G02*
X137187500Y-99000000I62500J0D01*
G01*
X137312500Y-99000000D01*
G75*
G02*
X137375000Y-99062500I0J-62500D01*
G01*
X137375000Y-99812500D01*
G75*
G02*
X137312500Y-99875000I-62500J0D01*
G01*
X137187500Y-99875000D01*
G75*
G02*
X137125000Y-99812500I0J62500D01*
G01*
G37*
G36*
G01*
X136625000Y-99812500D02*
X136625000Y-99062500D01*
G75*
G02*
X136687500Y-99000000I62500J0D01*
G01*
X136812500Y-99000000D01*
G75*
G02*
X136875000Y-99062500I0J-62500D01*
G01*
X136875000Y-99812500D01*
G75*
G02*
X136812500Y-99875000I-62500J0D01*
G01*
X136687500Y-99875000D01*
G75*
G02*
X136625000Y-99812500I0J62500D01*
G01*
G37*
G36*
G01*
X136125000Y-99812500D02*
X136125000Y-99062500D01*
G75*
G02*
X136187500Y-99000000I62500J0D01*
G01*
X136312500Y-99000000D01*
G75*
G02*
X136375000Y-99062500I0J-62500D01*
G01*
X136375000Y-99812500D01*
G75*
G02*
X136312500Y-99875000I-62500J0D01*
G01*
X136187500Y-99875000D01*
G75*
G02*
X136125000Y-99812500I0J62500D01*
G01*
G37*
G36*
G01*
X135125000Y-98812500D02*
X135125000Y-98687500D01*
G75*
G02*
X135187500Y-98625000I62500J0D01*
G01*
X135937500Y-98625000D01*
G75*
G02*
X136000000Y-98687500I0J-62500D01*
G01*
X136000000Y-98812500D01*
G75*
G02*
X135937500Y-98875000I-62500J0D01*
G01*
X135187500Y-98875000D01*
G75*
G02*
X135125000Y-98812500I0J62500D01*
G01*
G37*
G36*
G01*
X135125000Y-98312500D02*
X135125000Y-98187500D01*
G75*
G02*
X135187500Y-98125000I62500J0D01*
G01*
X135937500Y-98125000D01*
G75*
G02*
X136000000Y-98187500I0J-62500D01*
G01*
X136000000Y-98312500D01*
G75*
G02*
X135937500Y-98375000I-62500J0D01*
G01*
X135187500Y-98375000D01*
G75*
G02*
X135125000Y-98312500I0J62500D01*
G01*
G37*
G36*
G01*
X135125000Y-97812500D02*
X135125000Y-97687500D01*
G75*
G02*
X135187500Y-97625000I62500J0D01*
G01*
X135937500Y-97625000D01*
G75*
G02*
X136000000Y-97687500I0J-62500D01*
G01*
X136000000Y-97812500D01*
G75*
G02*
X135937500Y-97875000I-62500J0D01*
G01*
X135187500Y-97875000D01*
G75*
G02*
X135125000Y-97812500I0J62500D01*
G01*
G37*
G36*
G01*
X135125000Y-97312500D02*
X135125000Y-97187500D01*
G75*
G02*
X135187500Y-97125000I62500J0D01*
G01*
X135937500Y-97125000D01*
G75*
G02*
X136000000Y-97187500I0J-62500D01*
G01*
X136000000Y-97312500D01*
G75*
G02*
X135937500Y-97375000I-62500J0D01*
G01*
X135187500Y-97375000D01*
G75*
G02*
X135125000Y-97312500I0J62500D01*
G01*
G37*
G36*
G01*
X135125000Y-96812500D02*
X135125000Y-96687500D01*
G75*
G02*
X135187500Y-96625000I62500J0D01*
G01*
X135937500Y-96625000D01*
G75*
G02*
X136000000Y-96687500I0J-62500D01*
G01*
X136000000Y-96812500D01*
G75*
G02*
X135937500Y-96875000I-62500J0D01*
G01*
X135187500Y-96875000D01*
G75*
G02*
X135125000Y-96812500I0J62500D01*
G01*
G37*
G36*
G01*
X135125000Y-96312500D02*
X135125000Y-96187500D01*
G75*
G02*
X135187500Y-96125000I62500J0D01*
G01*
X135937500Y-96125000D01*
G75*
G02*
X136000000Y-96187500I0J-62500D01*
G01*
X136000000Y-96312500D01*
G75*
G02*
X135937500Y-96375000I-62500J0D01*
G01*
X135187500Y-96375000D01*
G75*
G02*
X135125000Y-96312500I0J62500D01*
G01*
G37*
G36*
G01*
X135125000Y-95812500D02*
X135125000Y-95687500D01*
G75*
G02*
X135187500Y-95625000I62500J0D01*
G01*
X135937500Y-95625000D01*
G75*
G02*
X136000000Y-95687500I0J-62500D01*
G01*
X136000000Y-95812500D01*
G75*
G02*
X135937500Y-95875000I-62500J0D01*
G01*
X135187500Y-95875000D01*
G75*
G02*
X135125000Y-95812500I0J62500D01*
G01*
G37*
G36*
G01*
X135125000Y-95312500D02*
X135125000Y-95187500D01*
G75*
G02*
X135187500Y-95125000I62500J0D01*
G01*
X135937500Y-95125000D01*
G75*
G02*
X136000000Y-95187500I0J-62500D01*
G01*
X136000000Y-95312500D01*
G75*
G02*
X135937500Y-95375000I-62500J0D01*
G01*
X135187500Y-95375000D01*
G75*
G02*
X135125000Y-95312500I0J62500D01*
G01*
G37*
G36*
G01*
X179256250Y-79650000D02*
X178743750Y-79650000D01*
G75*
G02*
X178525000Y-79431250I0J218750D01*
G01*
X178525000Y-78993750D01*
G75*
G02*
X178743750Y-78775000I218750J0D01*
G01*
X179256250Y-78775000D01*
G75*
G02*
X179475000Y-78993750I0J-218750D01*
G01*
X179475000Y-79431250D01*
G75*
G02*
X179256250Y-79650000I-218750J0D01*
G01*
G37*
G36*
G01*
X179256250Y-81225000D02*
X178743750Y-81225000D01*
G75*
G02*
X178525000Y-81006250I0J218750D01*
G01*
X178525000Y-80568750D01*
G75*
G02*
X178743750Y-80350000I218750J0D01*
G01*
X179256250Y-80350000D01*
G75*
G02*
X179475000Y-80568750I0J-218750D01*
G01*
X179475000Y-81006250D01*
G75*
G02*
X179256250Y-81225000I-218750J0D01*
G01*
G37*
G36*
G01*
X180743750Y-80350000D02*
X181256250Y-80350000D01*
G75*
G02*
X181475000Y-80568750I0J-218750D01*
G01*
X181475000Y-81006250D01*
G75*
G02*
X181256250Y-81225000I-218750J0D01*
G01*
X180743750Y-81225000D01*
G75*
G02*
X180525000Y-81006250I0J218750D01*
G01*
X180525000Y-80568750D01*
G75*
G02*
X180743750Y-80350000I218750J0D01*
G01*
G37*
G36*
G01*
X180743750Y-78775000D02*
X181256250Y-78775000D01*
G75*
G02*
X181475000Y-78993750I0J-218750D01*
G01*
X181475000Y-79431250D01*
G75*
G02*
X181256250Y-79650000I-218750J0D01*
G01*
X180743750Y-79650000D01*
G75*
G02*
X180525000Y-79431250I0J218750D01*
G01*
X180525000Y-78993750D01*
G75*
G02*
X180743750Y-78775000I218750J0D01*
G01*
G37*
G36*
G01*
X159256250Y-79650000D02*
X158743750Y-79650000D01*
G75*
G02*
X158525000Y-79431250I0J218750D01*
G01*
X158525000Y-78993750D01*
G75*
G02*
X158743750Y-78775000I218750J0D01*
G01*
X159256250Y-78775000D01*
G75*
G02*
X159475000Y-78993750I0J-218750D01*
G01*
X159475000Y-79431250D01*
G75*
G02*
X159256250Y-79650000I-218750J0D01*
G01*
G37*
G36*
G01*
X159256250Y-81225000D02*
X158743750Y-81225000D01*
G75*
G02*
X158525000Y-81006250I0J218750D01*
G01*
X158525000Y-80568750D01*
G75*
G02*
X158743750Y-80350000I218750J0D01*
G01*
X159256250Y-80350000D01*
G75*
G02*
X159475000Y-80568750I0J-218750D01*
G01*
X159475000Y-81006250D01*
G75*
G02*
X159256250Y-81225000I-218750J0D01*
G01*
G37*
G36*
G01*
X160743750Y-80350000D02*
X161256250Y-80350000D01*
G75*
G02*
X161475000Y-80568750I0J-218750D01*
G01*
X161475000Y-81006250D01*
G75*
G02*
X161256250Y-81225000I-218750J0D01*
G01*
X160743750Y-81225000D01*
G75*
G02*
X160525000Y-81006250I0J218750D01*
G01*
X160525000Y-80568750D01*
G75*
G02*
X160743750Y-80350000I218750J0D01*
G01*
G37*
G36*
G01*
X160743750Y-78775000D02*
X161256250Y-78775000D01*
G75*
G02*
X161475000Y-78993750I0J-218750D01*
G01*
X161475000Y-79431250D01*
G75*
G02*
X161256250Y-79650000I-218750J0D01*
G01*
X160743750Y-79650000D01*
G75*
G02*
X160525000Y-79431250I0J218750D01*
G01*
X160525000Y-78993750D01*
G75*
G02*
X160743750Y-78775000I218750J0D01*
G01*
G37*
D11*
X183250000Y-103150000D03*
X182750000Y-103150000D03*
X182250000Y-103150000D03*
X181750000Y-103150000D03*
X181250000Y-103150000D03*
X180750000Y-103150000D03*
X180250000Y-103150000D03*
X179750000Y-103150000D03*
X179250000Y-103150000D03*
X178750000Y-103150000D03*
X178250000Y-103150000D03*
X177750000Y-103150000D03*
X177250000Y-103150000D03*
X176750000Y-103150000D03*
X176250000Y-103150000D03*
X175750000Y-103150000D03*
X175250000Y-103150000D03*
X174750000Y-103150000D03*
X174250000Y-103150000D03*
X173750000Y-103150000D03*
X173250000Y-103150000D03*
X172750000Y-103150000D03*
D12*
X170850000Y-106400000D03*
X185150000Y-106400000D03*
G36*
G01*
X180350000Y-92256250D02*
X180350000Y-91743750D01*
G75*
G02*
X180568750Y-91525000I218750J0D01*
G01*
X181006250Y-91525000D01*
G75*
G02*
X181225000Y-91743750I0J-218750D01*
G01*
X181225000Y-92256250D01*
G75*
G02*
X181006250Y-92475000I-218750J0D01*
G01*
X180568750Y-92475000D01*
G75*
G02*
X180350000Y-92256250I0J218750D01*
G01*
G37*
G36*
G01*
X178775000Y-92256250D02*
X178775000Y-91743750D01*
G75*
G02*
X178993750Y-91525000I218750J0D01*
G01*
X179431250Y-91525000D01*
G75*
G02*
X179650000Y-91743750I0J-218750D01*
G01*
X179650000Y-92256250D01*
G75*
G02*
X179431250Y-92475000I-218750J0D01*
G01*
X178993750Y-92475000D01*
G75*
G02*
X178775000Y-92256250I0J218750D01*
G01*
G37*
G36*
G01*
X174650000Y-91743750D02*
X174650000Y-92256250D01*
G75*
G02*
X174431250Y-92475000I-218750J0D01*
G01*
X173993750Y-92475000D01*
G75*
G02*
X173775000Y-92256250I0J218750D01*
G01*
X173775000Y-91743750D01*
G75*
G02*
X173993750Y-91525000I218750J0D01*
G01*
X174431250Y-91525000D01*
G75*
G02*
X174650000Y-91743750I0J-218750D01*
G01*
G37*
G36*
G01*
X176225000Y-91743750D02*
X176225000Y-92256250D01*
G75*
G02*
X176006250Y-92475000I-218750J0D01*
G01*
X175568750Y-92475000D01*
G75*
G02*
X175350000Y-92256250I0J218750D01*
G01*
X175350000Y-91743750D01*
G75*
G02*
X175568750Y-91525000I218750J0D01*
G01*
X176006250Y-91525000D01*
G75*
G02*
X176225000Y-91743750I0J-218750D01*
G01*
G37*
G36*
G01*
X160350000Y-92256250D02*
X160350000Y-91743750D01*
G75*
G02*
X160568750Y-91525000I218750J0D01*
G01*
X161006250Y-91525000D01*
G75*
G02*
X161225000Y-91743750I0J-218750D01*
G01*
X161225000Y-92256250D01*
G75*
G02*
X161006250Y-92475000I-218750J0D01*
G01*
X160568750Y-92475000D01*
G75*
G02*
X160350000Y-92256250I0J218750D01*
G01*
G37*
G36*
G01*
X158775000Y-92256250D02*
X158775000Y-91743750D01*
G75*
G02*
X158993750Y-91525000I218750J0D01*
G01*
X159431250Y-91525000D01*
G75*
G02*
X159650000Y-91743750I0J-218750D01*
G01*
X159650000Y-92256250D01*
G75*
G02*
X159431250Y-92475000I-218750J0D01*
G01*
X158993750Y-92475000D01*
G75*
G02*
X158775000Y-92256250I0J218750D01*
G01*
G37*
G36*
G01*
X154650000Y-91743750D02*
X154650000Y-92256250D01*
G75*
G02*
X154431250Y-92475000I-218750J0D01*
G01*
X153993750Y-92475000D01*
G75*
G02*
X153775000Y-92256250I0J218750D01*
G01*
X153775000Y-91743750D01*
G75*
G02*
X153993750Y-91525000I218750J0D01*
G01*
X154431250Y-91525000D01*
G75*
G02*
X154650000Y-91743750I0J-218750D01*
G01*
G37*
G36*
G01*
X156225000Y-91743750D02*
X156225000Y-92256250D01*
G75*
G02*
X156006250Y-92475000I-218750J0D01*
G01*
X155568750Y-92475000D01*
G75*
G02*
X155350000Y-92256250I0J218750D01*
G01*
X155350000Y-91743750D01*
G75*
G02*
X155568750Y-91525000I218750J0D01*
G01*
X156006250Y-91525000D01*
G75*
G02*
X156225000Y-91743750I0J-218750D01*
G01*
G37*
G36*
G01*
X213743750Y-87350000D02*
X214256250Y-87350000D01*
G75*
G02*
X214475000Y-87568750I0J-218750D01*
G01*
X214475000Y-88006250D01*
G75*
G02*
X214256250Y-88225000I-218750J0D01*
G01*
X213743750Y-88225000D01*
G75*
G02*
X213525000Y-88006250I0J218750D01*
G01*
X213525000Y-87568750D01*
G75*
G02*
X213743750Y-87350000I218750J0D01*
G01*
G37*
G36*
G01*
X213743750Y-85775000D02*
X214256250Y-85775000D01*
G75*
G02*
X214475000Y-85993750I0J-218750D01*
G01*
X214475000Y-86431250D01*
G75*
G02*
X214256250Y-86650000I-218750J0D01*
G01*
X213743750Y-86650000D01*
G75*
G02*
X213525000Y-86431250I0J218750D01*
G01*
X213525000Y-85993750D01*
G75*
G02*
X213743750Y-85775000I218750J0D01*
G01*
G37*
G36*
G01*
X213743750Y-84350000D02*
X214256250Y-84350000D01*
G75*
G02*
X214475000Y-84568750I0J-218750D01*
G01*
X214475000Y-85006250D01*
G75*
G02*
X214256250Y-85225000I-218750J0D01*
G01*
X213743750Y-85225000D01*
G75*
G02*
X213525000Y-85006250I0J218750D01*
G01*
X213525000Y-84568750D01*
G75*
G02*
X213743750Y-84350000I218750J0D01*
G01*
G37*
G36*
G01*
X213743750Y-82775000D02*
X214256250Y-82775000D01*
G75*
G02*
X214475000Y-82993750I0J-218750D01*
G01*
X214475000Y-83431250D01*
G75*
G02*
X214256250Y-83650000I-218750J0D01*
G01*
X213743750Y-83650000D01*
G75*
G02*
X213525000Y-83431250I0J218750D01*
G01*
X213525000Y-82993750D01*
G75*
G02*
X213743750Y-82775000I218750J0D01*
G01*
G37*
G36*
G01*
X213743750Y-73350000D02*
X214256250Y-73350000D01*
G75*
G02*
X214475000Y-73568750I0J-218750D01*
G01*
X214475000Y-74006250D01*
G75*
G02*
X214256250Y-74225000I-218750J0D01*
G01*
X213743750Y-74225000D01*
G75*
G02*
X213525000Y-74006250I0J218750D01*
G01*
X213525000Y-73568750D01*
G75*
G02*
X213743750Y-73350000I218750J0D01*
G01*
G37*
G36*
G01*
X213743750Y-71775000D02*
X214256250Y-71775000D01*
G75*
G02*
X214475000Y-71993750I0J-218750D01*
G01*
X214475000Y-72431250D01*
G75*
G02*
X214256250Y-72650000I-218750J0D01*
G01*
X213743750Y-72650000D01*
G75*
G02*
X213525000Y-72431250I0J218750D01*
G01*
X213525000Y-71993750D01*
G75*
G02*
X213743750Y-71775000I218750J0D01*
G01*
G37*
G36*
G01*
X213743750Y-70350000D02*
X214256250Y-70350000D01*
G75*
G02*
X214475000Y-70568750I0J-218750D01*
G01*
X214475000Y-71006250D01*
G75*
G02*
X214256250Y-71225000I-218750J0D01*
G01*
X213743750Y-71225000D01*
G75*
G02*
X213525000Y-71006250I0J218750D01*
G01*
X213525000Y-70568750D01*
G75*
G02*
X213743750Y-70350000I218750J0D01*
G01*
G37*
G36*
G01*
X213743750Y-68775000D02*
X214256250Y-68775000D01*
G75*
G02*
X214475000Y-68993750I0J-218750D01*
G01*
X214475000Y-69431250D01*
G75*
G02*
X214256250Y-69650000I-218750J0D01*
G01*
X213743750Y-69650000D01*
G75*
G02*
X213525000Y-69431250I0J218750D01*
G01*
X213525000Y-68993750D01*
G75*
G02*
X213743750Y-68775000I218750J0D01*
G01*
G37*
G36*
G01*
X213743750Y-67350000D02*
X214256250Y-67350000D01*
G75*
G02*
X214475000Y-67568750I0J-218750D01*
G01*
X214475000Y-68006250D01*
G75*
G02*
X214256250Y-68225000I-218750J0D01*
G01*
X213743750Y-68225000D01*
G75*
G02*
X213525000Y-68006250I0J218750D01*
G01*
X213525000Y-67568750D01*
G75*
G02*
X213743750Y-67350000I218750J0D01*
G01*
G37*
G36*
G01*
X213743750Y-65775000D02*
X214256250Y-65775000D01*
G75*
G02*
X214475000Y-65993750I0J-218750D01*
G01*
X214475000Y-66431250D01*
G75*
G02*
X214256250Y-66650000I-218750J0D01*
G01*
X213743750Y-66650000D01*
G75*
G02*
X213525000Y-66431250I0J218750D01*
G01*
X213525000Y-65993750D01*
G75*
G02*
X213743750Y-65775000I218750J0D01*
G01*
G37*
G36*
G01*
X134650000Y-91743750D02*
X134650000Y-92256250D01*
G75*
G02*
X134431250Y-92475000I-218750J0D01*
G01*
X133993750Y-92475000D01*
G75*
G02*
X133775000Y-92256250I0J218750D01*
G01*
X133775000Y-91743750D01*
G75*
G02*
X133993750Y-91525000I218750J0D01*
G01*
X134431250Y-91525000D01*
G75*
G02*
X134650000Y-91743750I0J-218750D01*
G01*
G37*
G36*
G01*
X136225000Y-91743750D02*
X136225000Y-92256250D01*
G75*
G02*
X136006250Y-92475000I-218750J0D01*
G01*
X135568750Y-92475000D01*
G75*
G02*
X135350000Y-92256250I0J218750D01*
G01*
X135350000Y-91743750D01*
G75*
G02*
X135568750Y-91525000I218750J0D01*
G01*
X136006250Y-91525000D01*
G75*
G02*
X136225000Y-91743750I0J-218750D01*
G01*
G37*
D11*
X143250000Y-103150000D03*
X142750000Y-103150000D03*
X142250000Y-103150000D03*
X141750000Y-103150000D03*
X141250000Y-103150000D03*
X140750000Y-103150000D03*
X140250000Y-103150000D03*
X139750000Y-103150000D03*
X139250000Y-103150000D03*
X138750000Y-103150000D03*
X138250000Y-103150000D03*
X137750000Y-103150000D03*
X137250000Y-103150000D03*
X136750000Y-103150000D03*
X136250000Y-103150000D03*
X135750000Y-103150000D03*
X135250000Y-103150000D03*
X134750000Y-103150000D03*
X134250000Y-103150000D03*
X133750000Y-103150000D03*
X133250000Y-103150000D03*
X132750000Y-103150000D03*
D12*
X130850000Y-106400000D03*
X145150000Y-106400000D03*
G36*
G01*
X139256250Y-79650000D02*
X138743750Y-79650000D01*
G75*
G02*
X138525000Y-79431250I0J218750D01*
G01*
X138525000Y-78993750D01*
G75*
G02*
X138743750Y-78775000I218750J0D01*
G01*
X139256250Y-78775000D01*
G75*
G02*
X139475000Y-78993750I0J-218750D01*
G01*
X139475000Y-79431250D01*
G75*
G02*
X139256250Y-79650000I-218750J0D01*
G01*
G37*
G36*
G01*
X139256250Y-81225000D02*
X138743750Y-81225000D01*
G75*
G02*
X138525000Y-81006250I0J218750D01*
G01*
X138525000Y-80568750D01*
G75*
G02*
X138743750Y-80350000I218750J0D01*
G01*
X139256250Y-80350000D01*
G75*
G02*
X139475000Y-80568750I0J-218750D01*
G01*
X139475000Y-81006250D01*
G75*
G02*
X139256250Y-81225000I-218750J0D01*
G01*
G37*
G36*
G01*
X140743750Y-80350000D02*
X141256250Y-80350000D01*
G75*
G02*
X141475000Y-80568750I0J-218750D01*
G01*
X141475000Y-81006250D01*
G75*
G02*
X141256250Y-81225000I-218750J0D01*
G01*
X140743750Y-81225000D01*
G75*
G02*
X140525000Y-81006250I0J218750D01*
G01*
X140525000Y-80568750D01*
G75*
G02*
X140743750Y-80350000I218750J0D01*
G01*
G37*
G36*
G01*
X140743750Y-78775000D02*
X141256250Y-78775000D01*
G75*
G02*
X141475000Y-78993750I0J-218750D01*
G01*
X141475000Y-79431250D01*
G75*
G02*
X141256250Y-79650000I-218750J0D01*
G01*
X140743750Y-79650000D01*
G75*
G02*
X140525000Y-79431250I0J218750D01*
G01*
X140525000Y-78993750D01*
G75*
G02*
X140743750Y-78775000I218750J0D01*
G01*
G37*
M02*
