G04 #@! TF.GenerationSoftware,KiCad,Pcbnew,(5.1.6)-1*
G04 #@! TF.CreationDate,2020-10-12T20:39:35+02:00*
G04 #@! TF.ProjectId,TestRig-PCB,54657374-5269-4672-9d50-43422e6b6963,rev?*
G04 #@! TF.SameCoordinates,Original*
G04 #@! TF.FileFunction,Soldermask,Bot*
G04 #@! TF.FilePolarity,Negative*
%FSLAX46Y46*%
G04 Gerber Fmt 4.6, Leading zero omitted, Abs format (unit mm)*
G04 Created by KiCad (PCBNEW (5.1.6)-1) date 2020-10-12 20:39:35*
%MOMM*%
%LPD*%
G01*
G04 APERTURE LIST*
%ADD10C,0.100000*%
G04 APERTURE END LIST*
D10*
G36*
X80375256Y-115391298D02*
G01*
X80481579Y-115412447D01*
X80782042Y-115536903D01*
X81052451Y-115717585D01*
X81282415Y-115947549D01*
X81463097Y-116217958D01*
X81587553Y-116518421D01*
X81651000Y-116837391D01*
X81651000Y-117162609D01*
X81587553Y-117481579D01*
X81463097Y-117782042D01*
X81282415Y-118052451D01*
X81052451Y-118282415D01*
X80782042Y-118463097D01*
X80481579Y-118587553D01*
X80375256Y-118608702D01*
X80162611Y-118651000D01*
X79837389Y-118651000D01*
X79624744Y-118608702D01*
X79518421Y-118587553D01*
X79217958Y-118463097D01*
X78947549Y-118282415D01*
X78717585Y-118052451D01*
X78536903Y-117782042D01*
X78412447Y-117481579D01*
X78349000Y-117162609D01*
X78349000Y-116837391D01*
X78412447Y-116518421D01*
X78536903Y-116217958D01*
X78717585Y-115947549D01*
X78947549Y-115717585D01*
X79217958Y-115536903D01*
X79518421Y-115412447D01*
X79624744Y-115391298D01*
X79837389Y-115349000D01*
X80162611Y-115349000D01*
X80375256Y-115391298D01*
G37*
G36*
X156375256Y-115391298D02*
G01*
X156481579Y-115412447D01*
X156782042Y-115536903D01*
X157052451Y-115717585D01*
X157282415Y-115947549D01*
X157463097Y-116217958D01*
X157587553Y-116518421D01*
X157651000Y-116837391D01*
X157651000Y-117162609D01*
X157587553Y-117481579D01*
X157463097Y-117782042D01*
X157282415Y-118052451D01*
X157052451Y-118282415D01*
X156782042Y-118463097D01*
X156481579Y-118587553D01*
X156375256Y-118608702D01*
X156162611Y-118651000D01*
X155837389Y-118651000D01*
X155624744Y-118608702D01*
X155518421Y-118587553D01*
X155217958Y-118463097D01*
X154947549Y-118282415D01*
X154717585Y-118052451D01*
X154536903Y-117782042D01*
X154412447Y-117481579D01*
X154349000Y-117162609D01*
X154349000Y-116837391D01*
X154412447Y-116518421D01*
X154536903Y-116217958D01*
X154717585Y-115947549D01*
X154947549Y-115717585D01*
X155217958Y-115536903D01*
X155518421Y-115412447D01*
X155624744Y-115391298D01*
X155837389Y-115349000D01*
X156162611Y-115349000D01*
X156375256Y-115391298D01*
G37*
G36*
X232375256Y-115391298D02*
G01*
X232481579Y-115412447D01*
X232782042Y-115536903D01*
X233052451Y-115717585D01*
X233282415Y-115947549D01*
X233463097Y-116217958D01*
X233587553Y-116518421D01*
X233651000Y-116837391D01*
X233651000Y-117162609D01*
X233587553Y-117481579D01*
X233463097Y-117782042D01*
X233282415Y-118052451D01*
X233052451Y-118282415D01*
X232782042Y-118463097D01*
X232481579Y-118587553D01*
X232375256Y-118608702D01*
X232162611Y-118651000D01*
X231837389Y-118651000D01*
X231624744Y-118608702D01*
X231518421Y-118587553D01*
X231217958Y-118463097D01*
X230947549Y-118282415D01*
X230717585Y-118052451D01*
X230536903Y-117782042D01*
X230412447Y-117481579D01*
X230349000Y-117162609D01*
X230349000Y-116837391D01*
X230412447Y-116518421D01*
X230536903Y-116217958D01*
X230717585Y-115947549D01*
X230947549Y-115717585D01*
X231217958Y-115536903D01*
X231518421Y-115412447D01*
X231624744Y-115391298D01*
X231837389Y-115349000D01*
X232162611Y-115349000D01*
X232375256Y-115391298D01*
G37*
G36*
X104571000Y-112081000D02*
G01*
X102669000Y-112081000D01*
X102669000Y-110179000D01*
X104571000Y-110179000D01*
X104571000Y-112081000D01*
G37*
G36*
X89331000Y-112081000D02*
G01*
X87429000Y-112081000D01*
X87429000Y-110179000D01*
X89331000Y-110179000D01*
X89331000Y-112081000D01*
G37*
G36*
X219728796Y-108102989D02*
G01*
X219882812Y-108133624D01*
X220046784Y-108201544D01*
X220194354Y-108300147D01*
X220319853Y-108425646D01*
X220418456Y-108573216D01*
X220486376Y-108737188D01*
X220521000Y-108911259D01*
X220521000Y-109088741D01*
X220486376Y-109262812D01*
X220418456Y-109426784D01*
X220319853Y-109574354D01*
X220194354Y-109699853D01*
X220046784Y-109798456D01*
X219882812Y-109866376D01*
X219734341Y-109895908D01*
X219708742Y-109901000D01*
X219531258Y-109901000D01*
X219505659Y-109895908D01*
X219357188Y-109866376D01*
X219193216Y-109798456D01*
X219045646Y-109699853D01*
X218920147Y-109574354D01*
X218821544Y-109426784D01*
X218753624Y-109262812D01*
X218719000Y-109088741D01*
X218719000Y-108911259D01*
X218753624Y-108737188D01*
X218821544Y-108573216D01*
X218920147Y-108425646D01*
X219045646Y-108300147D01*
X219193216Y-108201544D01*
X219357188Y-108133624D01*
X219511204Y-108102989D01*
X219531258Y-108099000D01*
X219708742Y-108099000D01*
X219728796Y-108102989D01*
G37*
G36*
X217188796Y-108102989D02*
G01*
X217342812Y-108133624D01*
X217506784Y-108201544D01*
X217654354Y-108300147D01*
X217779853Y-108425646D01*
X217878456Y-108573216D01*
X217946376Y-108737188D01*
X217981000Y-108911259D01*
X217981000Y-109088741D01*
X217946376Y-109262812D01*
X217878456Y-109426784D01*
X217779853Y-109574354D01*
X217654354Y-109699853D01*
X217506784Y-109798456D01*
X217342812Y-109866376D01*
X217194341Y-109895908D01*
X217168742Y-109901000D01*
X216991258Y-109901000D01*
X216965659Y-109895908D01*
X216817188Y-109866376D01*
X216653216Y-109798456D01*
X216505646Y-109699853D01*
X216380147Y-109574354D01*
X216281544Y-109426784D01*
X216213624Y-109262812D01*
X216179000Y-109088741D01*
X216179000Y-108911259D01*
X216213624Y-108737188D01*
X216281544Y-108573216D01*
X216380147Y-108425646D01*
X216505646Y-108300147D01*
X216653216Y-108201544D01*
X216817188Y-108133624D01*
X216971204Y-108102989D01*
X216991258Y-108099000D01*
X217168742Y-108099000D01*
X217188796Y-108102989D01*
G37*
G36*
X214648796Y-108102989D02*
G01*
X214802812Y-108133624D01*
X214966784Y-108201544D01*
X215114354Y-108300147D01*
X215239853Y-108425646D01*
X215338456Y-108573216D01*
X215406376Y-108737188D01*
X215441000Y-108911259D01*
X215441000Y-109088741D01*
X215406376Y-109262812D01*
X215338456Y-109426784D01*
X215239853Y-109574354D01*
X215114354Y-109699853D01*
X214966784Y-109798456D01*
X214802812Y-109866376D01*
X214654341Y-109895908D01*
X214628742Y-109901000D01*
X214451258Y-109901000D01*
X214425659Y-109895908D01*
X214277188Y-109866376D01*
X214113216Y-109798456D01*
X213965646Y-109699853D01*
X213840147Y-109574354D01*
X213741544Y-109426784D01*
X213673624Y-109262812D01*
X213639000Y-109088741D01*
X213639000Y-108911259D01*
X213673624Y-108737188D01*
X213741544Y-108573216D01*
X213840147Y-108425646D01*
X213965646Y-108300147D01*
X214113216Y-108201544D01*
X214277188Y-108133624D01*
X214431204Y-108102989D01*
X214451258Y-108099000D01*
X214628742Y-108099000D01*
X214648796Y-108102989D01*
G37*
G36*
X212758600Y-108102989D02*
G01*
X212791652Y-108113015D01*
X212822103Y-108129292D01*
X212848799Y-108151201D01*
X212870708Y-108177897D01*
X212886985Y-108208348D01*
X212897011Y-108241400D01*
X212901000Y-108281903D01*
X212901000Y-109718097D01*
X212897011Y-109758600D01*
X212886985Y-109791652D01*
X212870708Y-109822103D01*
X212848799Y-109848799D01*
X212822103Y-109870708D01*
X212791652Y-109886985D01*
X212758600Y-109897011D01*
X212718097Y-109901000D01*
X211281903Y-109901000D01*
X211241400Y-109897011D01*
X211208348Y-109886985D01*
X211177897Y-109870708D01*
X211151201Y-109848799D01*
X211129292Y-109822103D01*
X211113015Y-109791652D01*
X211102989Y-109758600D01*
X211099000Y-109718097D01*
X211099000Y-108281903D01*
X211102989Y-108241400D01*
X211113015Y-108208348D01*
X211129292Y-108177897D01*
X211151201Y-108151201D01*
X211177897Y-108129292D01*
X211208348Y-108113015D01*
X211241400Y-108102989D01*
X211281903Y-108099000D01*
X212718097Y-108099000D01*
X212758600Y-108102989D01*
G37*
G36*
X222268796Y-108102989D02*
G01*
X222422812Y-108133624D01*
X222586784Y-108201544D01*
X222734354Y-108300147D01*
X222859853Y-108425646D01*
X222958456Y-108573216D01*
X223026376Y-108737188D01*
X223061000Y-108911259D01*
X223061000Y-109088741D01*
X223026376Y-109262812D01*
X222958456Y-109426784D01*
X222859853Y-109574354D01*
X222734354Y-109699853D01*
X222586784Y-109798456D01*
X222422812Y-109866376D01*
X222274341Y-109895908D01*
X222248742Y-109901000D01*
X222071258Y-109901000D01*
X222045659Y-109895908D01*
X221897188Y-109866376D01*
X221733216Y-109798456D01*
X221585646Y-109699853D01*
X221460147Y-109574354D01*
X221361544Y-109426784D01*
X221293624Y-109262812D01*
X221259000Y-109088741D01*
X221259000Y-108911259D01*
X221293624Y-108737188D01*
X221361544Y-108573216D01*
X221460147Y-108425646D01*
X221585646Y-108300147D01*
X221733216Y-108201544D01*
X221897188Y-108133624D01*
X222051204Y-108102989D01*
X222071258Y-108099000D01*
X222248742Y-108099000D01*
X222268796Y-108102989D01*
G37*
G36*
X103897395Y-107675546D02*
G01*
X104070466Y-107747234D01*
X104070467Y-107747235D01*
X104226227Y-107851310D01*
X104358690Y-107983773D01*
X104358691Y-107983775D01*
X104462766Y-108139534D01*
X104534454Y-108312605D01*
X104571000Y-108496333D01*
X104571000Y-108683667D01*
X104534454Y-108867395D01*
X104462766Y-109040466D01*
X104462765Y-109040467D01*
X104358690Y-109196227D01*
X104226227Y-109328690D01*
X104147818Y-109381081D01*
X104070466Y-109432766D01*
X103897395Y-109504454D01*
X103713667Y-109541000D01*
X103526333Y-109541000D01*
X103342605Y-109504454D01*
X103169534Y-109432766D01*
X103092182Y-109381081D01*
X103013773Y-109328690D01*
X102881310Y-109196227D01*
X102777235Y-109040467D01*
X102777234Y-109040466D01*
X102705546Y-108867395D01*
X102669000Y-108683667D01*
X102669000Y-108496333D01*
X102705546Y-108312605D01*
X102777234Y-108139534D01*
X102881309Y-107983775D01*
X102881310Y-107983773D01*
X103013773Y-107851310D01*
X103169533Y-107747235D01*
X103169534Y-107747234D01*
X103342605Y-107675546D01*
X103526333Y-107639000D01*
X103713667Y-107639000D01*
X103897395Y-107675546D01*
G37*
G36*
X88657395Y-107675546D02*
G01*
X88830466Y-107747234D01*
X88830467Y-107747235D01*
X88986227Y-107851310D01*
X89118690Y-107983773D01*
X89118691Y-107983775D01*
X89222766Y-108139534D01*
X89294454Y-108312605D01*
X89331000Y-108496333D01*
X89331000Y-108683667D01*
X89294454Y-108867395D01*
X89222766Y-109040466D01*
X89222765Y-109040467D01*
X89118690Y-109196227D01*
X88986227Y-109328690D01*
X88907818Y-109381081D01*
X88830466Y-109432766D01*
X88657395Y-109504454D01*
X88473667Y-109541000D01*
X88286333Y-109541000D01*
X88102605Y-109504454D01*
X87929534Y-109432766D01*
X87852182Y-109381081D01*
X87773773Y-109328690D01*
X87641310Y-109196227D01*
X87537235Y-109040467D01*
X87537234Y-109040466D01*
X87465546Y-108867395D01*
X87429000Y-108683667D01*
X87429000Y-108496333D01*
X87465546Y-108312605D01*
X87537234Y-108139534D01*
X87641309Y-107983775D01*
X87641310Y-107983773D01*
X87773773Y-107851310D01*
X87929533Y-107747235D01*
X87929534Y-107747234D01*
X88102605Y-107675546D01*
X88286333Y-107639000D01*
X88473667Y-107639000D01*
X88657395Y-107675546D01*
G37*
G36*
X219733512Y-105563927D02*
G01*
X219882812Y-105593624D01*
X220046784Y-105661544D01*
X220194354Y-105760147D01*
X220319853Y-105885646D01*
X220418456Y-106033216D01*
X220486376Y-106197188D01*
X220521000Y-106371259D01*
X220521000Y-106548741D01*
X220486376Y-106722812D01*
X220418456Y-106886784D01*
X220319853Y-107034354D01*
X220194354Y-107159853D01*
X220046784Y-107258456D01*
X219882812Y-107326376D01*
X219733512Y-107356073D01*
X219708742Y-107361000D01*
X219531258Y-107361000D01*
X219506488Y-107356073D01*
X219357188Y-107326376D01*
X219193216Y-107258456D01*
X219045646Y-107159853D01*
X218920147Y-107034354D01*
X218821544Y-106886784D01*
X218753624Y-106722812D01*
X218719000Y-106548741D01*
X218719000Y-106371259D01*
X218753624Y-106197188D01*
X218821544Y-106033216D01*
X218920147Y-105885646D01*
X219045646Y-105760147D01*
X219193216Y-105661544D01*
X219357188Y-105593624D01*
X219506488Y-105563927D01*
X219531258Y-105559000D01*
X219708742Y-105559000D01*
X219733512Y-105563927D01*
G37*
G36*
X214653512Y-105563927D02*
G01*
X214802812Y-105593624D01*
X214966784Y-105661544D01*
X215114354Y-105760147D01*
X215239853Y-105885646D01*
X215338456Y-106033216D01*
X215406376Y-106197188D01*
X215441000Y-106371259D01*
X215441000Y-106548741D01*
X215406376Y-106722812D01*
X215338456Y-106886784D01*
X215239853Y-107034354D01*
X215114354Y-107159853D01*
X214966784Y-107258456D01*
X214802812Y-107326376D01*
X214653512Y-107356073D01*
X214628742Y-107361000D01*
X214451258Y-107361000D01*
X214426488Y-107356073D01*
X214277188Y-107326376D01*
X214113216Y-107258456D01*
X213965646Y-107159853D01*
X213840147Y-107034354D01*
X213741544Y-106886784D01*
X213673624Y-106722812D01*
X213639000Y-106548741D01*
X213639000Y-106371259D01*
X213673624Y-106197188D01*
X213741544Y-106033216D01*
X213840147Y-105885646D01*
X213965646Y-105760147D01*
X214113216Y-105661544D01*
X214277188Y-105593624D01*
X214426488Y-105563927D01*
X214451258Y-105559000D01*
X214628742Y-105559000D01*
X214653512Y-105563927D01*
G37*
G36*
X222273512Y-105563927D02*
G01*
X222422812Y-105593624D01*
X222586784Y-105661544D01*
X222734354Y-105760147D01*
X222859853Y-105885646D01*
X222958456Y-106033216D01*
X223026376Y-106197188D01*
X223061000Y-106371259D01*
X223061000Y-106548741D01*
X223026376Y-106722812D01*
X222958456Y-106886784D01*
X222859853Y-107034354D01*
X222734354Y-107159853D01*
X222586784Y-107258456D01*
X222422812Y-107326376D01*
X222273512Y-107356073D01*
X222248742Y-107361000D01*
X222071258Y-107361000D01*
X222046488Y-107356073D01*
X221897188Y-107326376D01*
X221733216Y-107258456D01*
X221585646Y-107159853D01*
X221460147Y-107034354D01*
X221361544Y-106886784D01*
X221293624Y-106722812D01*
X221259000Y-106548741D01*
X221259000Y-106371259D01*
X221293624Y-106197188D01*
X221361544Y-106033216D01*
X221460147Y-105885646D01*
X221585646Y-105760147D01*
X221733216Y-105661544D01*
X221897188Y-105593624D01*
X222046488Y-105563927D01*
X222071258Y-105559000D01*
X222248742Y-105559000D01*
X222273512Y-105563927D01*
G37*
G36*
X212113512Y-105563927D02*
G01*
X212262812Y-105593624D01*
X212426784Y-105661544D01*
X212574354Y-105760147D01*
X212699853Y-105885646D01*
X212798456Y-106033216D01*
X212866376Y-106197188D01*
X212901000Y-106371259D01*
X212901000Y-106548741D01*
X212866376Y-106722812D01*
X212798456Y-106886784D01*
X212699853Y-107034354D01*
X212574354Y-107159853D01*
X212426784Y-107258456D01*
X212262812Y-107326376D01*
X212113512Y-107356073D01*
X212088742Y-107361000D01*
X211911258Y-107361000D01*
X211886488Y-107356073D01*
X211737188Y-107326376D01*
X211573216Y-107258456D01*
X211425646Y-107159853D01*
X211300147Y-107034354D01*
X211201544Y-106886784D01*
X211133624Y-106722812D01*
X211099000Y-106548741D01*
X211099000Y-106371259D01*
X211133624Y-106197188D01*
X211201544Y-106033216D01*
X211300147Y-105885646D01*
X211425646Y-105760147D01*
X211573216Y-105661544D01*
X211737188Y-105593624D01*
X211886488Y-105563927D01*
X211911258Y-105559000D01*
X212088742Y-105559000D01*
X212113512Y-105563927D01*
G37*
G36*
X217193512Y-105563927D02*
G01*
X217342812Y-105593624D01*
X217506784Y-105661544D01*
X217654354Y-105760147D01*
X217779853Y-105885646D01*
X217878456Y-106033216D01*
X217946376Y-106197188D01*
X217981000Y-106371259D01*
X217981000Y-106548741D01*
X217946376Y-106722812D01*
X217878456Y-106886784D01*
X217779853Y-107034354D01*
X217654354Y-107159853D01*
X217506784Y-107258456D01*
X217342812Y-107326376D01*
X217193512Y-107356073D01*
X217168742Y-107361000D01*
X216991258Y-107361000D01*
X216966488Y-107356073D01*
X216817188Y-107326376D01*
X216653216Y-107258456D01*
X216505646Y-107159853D01*
X216380147Y-107034354D01*
X216281544Y-106886784D01*
X216213624Y-106722812D01*
X216179000Y-106548741D01*
X216179000Y-106371259D01*
X216213624Y-106197188D01*
X216281544Y-106033216D01*
X216380147Y-105885646D01*
X216505646Y-105760147D01*
X216653216Y-105661544D01*
X216817188Y-105593624D01*
X216966488Y-105563927D01*
X216991258Y-105559000D01*
X217168742Y-105559000D01*
X217193512Y-105563927D01*
G37*
G36*
X103897395Y-105135546D02*
G01*
X104070466Y-105207234D01*
X104070467Y-105207235D01*
X104226227Y-105311310D01*
X104358690Y-105443773D01*
X104358691Y-105443775D01*
X104462766Y-105599534D01*
X104534454Y-105772605D01*
X104571000Y-105956333D01*
X104571000Y-106143667D01*
X104534454Y-106327395D01*
X104462766Y-106500466D01*
X104462765Y-106500467D01*
X104358690Y-106656227D01*
X104226227Y-106788690D01*
X104147818Y-106841081D01*
X104070466Y-106892766D01*
X103897395Y-106964454D01*
X103713667Y-107001000D01*
X103526333Y-107001000D01*
X103342605Y-106964454D01*
X103169534Y-106892766D01*
X103092182Y-106841081D01*
X103013773Y-106788690D01*
X102881310Y-106656227D01*
X102777235Y-106500467D01*
X102777234Y-106500466D01*
X102705546Y-106327395D01*
X102669000Y-106143667D01*
X102669000Y-105956333D01*
X102705546Y-105772605D01*
X102777234Y-105599534D01*
X102881309Y-105443775D01*
X102881310Y-105443773D01*
X103013773Y-105311310D01*
X103169533Y-105207235D01*
X103169534Y-105207234D01*
X103342605Y-105135546D01*
X103526333Y-105099000D01*
X103713667Y-105099000D01*
X103897395Y-105135546D01*
G37*
G36*
X88657395Y-105135546D02*
G01*
X88830466Y-105207234D01*
X88830467Y-105207235D01*
X88986227Y-105311310D01*
X89118690Y-105443773D01*
X89118691Y-105443775D01*
X89222766Y-105599534D01*
X89294454Y-105772605D01*
X89331000Y-105956333D01*
X89331000Y-106143667D01*
X89294454Y-106327395D01*
X89222766Y-106500466D01*
X89222765Y-106500467D01*
X89118690Y-106656227D01*
X88986227Y-106788690D01*
X88907818Y-106841081D01*
X88830466Y-106892766D01*
X88657395Y-106964454D01*
X88473667Y-107001000D01*
X88286333Y-107001000D01*
X88102605Y-106964454D01*
X87929534Y-106892766D01*
X87852182Y-106841081D01*
X87773773Y-106788690D01*
X87641310Y-106656227D01*
X87537235Y-106500467D01*
X87537234Y-106500466D01*
X87465546Y-106327395D01*
X87429000Y-106143667D01*
X87429000Y-105956333D01*
X87465546Y-105772605D01*
X87537234Y-105599534D01*
X87641309Y-105443775D01*
X87641310Y-105443773D01*
X87773773Y-105311310D01*
X87929533Y-105207235D01*
X87929534Y-105207234D01*
X88102605Y-105135546D01*
X88286333Y-105099000D01*
X88473667Y-105099000D01*
X88657395Y-105135546D01*
G37*
G36*
X88657395Y-102595546D02*
G01*
X88830466Y-102667234D01*
X88830467Y-102667235D01*
X88986227Y-102771310D01*
X89118690Y-102903773D01*
X89118691Y-102903775D01*
X89222766Y-103059534D01*
X89294454Y-103232605D01*
X89331000Y-103416333D01*
X89331000Y-103603667D01*
X89294454Y-103787395D01*
X89222766Y-103960466D01*
X89222765Y-103960467D01*
X89118690Y-104116227D01*
X88986227Y-104248690D01*
X88907818Y-104301081D01*
X88830466Y-104352766D01*
X88657395Y-104424454D01*
X88473667Y-104461000D01*
X88286333Y-104461000D01*
X88102605Y-104424454D01*
X87929534Y-104352766D01*
X87852182Y-104301081D01*
X87773773Y-104248690D01*
X87641310Y-104116227D01*
X87537235Y-103960467D01*
X87537234Y-103960466D01*
X87465546Y-103787395D01*
X87429000Y-103603667D01*
X87429000Y-103416333D01*
X87465546Y-103232605D01*
X87537234Y-103059534D01*
X87641309Y-102903775D01*
X87641310Y-102903773D01*
X87773773Y-102771310D01*
X87929533Y-102667235D01*
X87929534Y-102667234D01*
X88102605Y-102595546D01*
X88286333Y-102559000D01*
X88473667Y-102559000D01*
X88657395Y-102595546D01*
G37*
G36*
X103897395Y-102595546D02*
G01*
X104070466Y-102667234D01*
X104070467Y-102667235D01*
X104226227Y-102771310D01*
X104358690Y-102903773D01*
X104358691Y-102903775D01*
X104462766Y-103059534D01*
X104534454Y-103232605D01*
X104571000Y-103416333D01*
X104571000Y-103603667D01*
X104534454Y-103787395D01*
X104462766Y-103960466D01*
X104462765Y-103960467D01*
X104358690Y-104116227D01*
X104226227Y-104248690D01*
X104147818Y-104301081D01*
X104070466Y-104352766D01*
X103897395Y-104424454D01*
X103713667Y-104461000D01*
X103526333Y-104461000D01*
X103342605Y-104424454D01*
X103169534Y-104352766D01*
X103092182Y-104301081D01*
X103013773Y-104248690D01*
X102881310Y-104116227D01*
X102777235Y-103960467D01*
X102777234Y-103960466D01*
X102705546Y-103787395D01*
X102669000Y-103603667D01*
X102669000Y-103416333D01*
X102705546Y-103232605D01*
X102777234Y-103059534D01*
X102881309Y-102903775D01*
X102881310Y-102903773D01*
X103013773Y-102771310D01*
X103169533Y-102667235D01*
X103169534Y-102667234D01*
X103342605Y-102595546D01*
X103526333Y-102559000D01*
X103713667Y-102559000D01*
X103897395Y-102595546D01*
G37*
G36*
X199375256Y-99391298D02*
G01*
X199481579Y-99412447D01*
X199782042Y-99536903D01*
X200052451Y-99717585D01*
X200282415Y-99947549D01*
X200463097Y-100217958D01*
X200587553Y-100518421D01*
X200651000Y-100837391D01*
X200651000Y-101162609D01*
X200587553Y-101481579D01*
X200463097Y-101782042D01*
X200282415Y-102052451D01*
X200052451Y-102282415D01*
X199782042Y-102463097D01*
X199481579Y-102587553D01*
X199441395Y-102595546D01*
X199162611Y-102651000D01*
X198837389Y-102651000D01*
X198558605Y-102595546D01*
X198518421Y-102587553D01*
X198217958Y-102463097D01*
X197947549Y-102282415D01*
X197717585Y-102052451D01*
X197536903Y-101782042D01*
X197412447Y-101481579D01*
X197349000Y-101162609D01*
X197349000Y-100837391D01*
X197412447Y-100518421D01*
X197536903Y-100217958D01*
X197717585Y-99947549D01*
X197947549Y-99717585D01*
X198217958Y-99536903D01*
X198518421Y-99412447D01*
X198624744Y-99391298D01*
X198837389Y-99349000D01*
X199162611Y-99349000D01*
X199375256Y-99391298D01*
G37*
G36*
X117375256Y-99391298D02*
G01*
X117481579Y-99412447D01*
X117782042Y-99536903D01*
X118052451Y-99717585D01*
X118282415Y-99947549D01*
X118463097Y-100217958D01*
X118587553Y-100518421D01*
X118651000Y-100837391D01*
X118651000Y-101162609D01*
X118587553Y-101481579D01*
X118463097Y-101782042D01*
X118282415Y-102052451D01*
X118052451Y-102282415D01*
X117782042Y-102463097D01*
X117481579Y-102587553D01*
X117441395Y-102595546D01*
X117162611Y-102651000D01*
X116837389Y-102651000D01*
X116558605Y-102595546D01*
X116518421Y-102587553D01*
X116217958Y-102463097D01*
X115947549Y-102282415D01*
X115717585Y-102052451D01*
X115536903Y-101782042D01*
X115412447Y-101481579D01*
X115349000Y-101162609D01*
X115349000Y-100837391D01*
X115412447Y-100518421D01*
X115536903Y-100217958D01*
X115717585Y-99947549D01*
X115947549Y-99717585D01*
X116217958Y-99536903D01*
X116518421Y-99412447D01*
X116624744Y-99391298D01*
X116837389Y-99349000D01*
X117162611Y-99349000D01*
X117375256Y-99391298D01*
G37*
G36*
X88657395Y-100055546D02*
G01*
X88830466Y-100127234D01*
X88830467Y-100127235D01*
X88986227Y-100231310D01*
X89118690Y-100363773D01*
X89118691Y-100363775D01*
X89222766Y-100519534D01*
X89294454Y-100692605D01*
X89331000Y-100876333D01*
X89331000Y-101063667D01*
X89294454Y-101247395D01*
X89222766Y-101420466D01*
X89171081Y-101497818D01*
X89118690Y-101576227D01*
X88986227Y-101708690D01*
X88907818Y-101761081D01*
X88830466Y-101812766D01*
X88657395Y-101884454D01*
X88473667Y-101921000D01*
X88286333Y-101921000D01*
X88102605Y-101884454D01*
X87929534Y-101812766D01*
X87852182Y-101761081D01*
X87773773Y-101708690D01*
X87641310Y-101576227D01*
X87588919Y-101497818D01*
X87537234Y-101420466D01*
X87465546Y-101247395D01*
X87429000Y-101063667D01*
X87429000Y-100876333D01*
X87465546Y-100692605D01*
X87537234Y-100519534D01*
X87641309Y-100363775D01*
X87641310Y-100363773D01*
X87773773Y-100231310D01*
X87929533Y-100127235D01*
X87929534Y-100127234D01*
X88102605Y-100055546D01*
X88286333Y-100019000D01*
X88473667Y-100019000D01*
X88657395Y-100055546D01*
G37*
G36*
X103897395Y-100055546D02*
G01*
X104070466Y-100127234D01*
X104070467Y-100127235D01*
X104226227Y-100231310D01*
X104358690Y-100363773D01*
X104358691Y-100363775D01*
X104462766Y-100519534D01*
X104534454Y-100692605D01*
X104571000Y-100876333D01*
X104571000Y-101063667D01*
X104534454Y-101247395D01*
X104462766Y-101420466D01*
X104411081Y-101497818D01*
X104358690Y-101576227D01*
X104226227Y-101708690D01*
X104147818Y-101761081D01*
X104070466Y-101812766D01*
X103897395Y-101884454D01*
X103713667Y-101921000D01*
X103526333Y-101921000D01*
X103342605Y-101884454D01*
X103169534Y-101812766D01*
X103092182Y-101761081D01*
X103013773Y-101708690D01*
X102881310Y-101576227D01*
X102828919Y-101497818D01*
X102777234Y-101420466D01*
X102705546Y-101247395D01*
X102669000Y-101063667D01*
X102669000Y-100876333D01*
X102705546Y-100692605D01*
X102777234Y-100519534D01*
X102881309Y-100363775D01*
X102881310Y-100363773D01*
X103013773Y-100231310D01*
X103169533Y-100127235D01*
X103169534Y-100127234D01*
X103342605Y-100055546D01*
X103526333Y-100019000D01*
X103713667Y-100019000D01*
X103897395Y-100055546D01*
G37*
G36*
X103897395Y-97515546D02*
G01*
X104070466Y-97587234D01*
X104070467Y-97587235D01*
X104226227Y-97691310D01*
X104358690Y-97823773D01*
X104387156Y-97866376D01*
X104462766Y-97979534D01*
X104534454Y-98152605D01*
X104571000Y-98336333D01*
X104571000Y-98523667D01*
X104534454Y-98707395D01*
X104462766Y-98880466D01*
X104462765Y-98880467D01*
X104358690Y-99036227D01*
X104226227Y-99168690D01*
X104147818Y-99221081D01*
X104070466Y-99272766D01*
X103897395Y-99344454D01*
X103713667Y-99381000D01*
X103526333Y-99381000D01*
X103342605Y-99344454D01*
X103169534Y-99272766D01*
X103092182Y-99221081D01*
X103013773Y-99168690D01*
X102881310Y-99036227D01*
X102777235Y-98880467D01*
X102777234Y-98880466D01*
X102705546Y-98707395D01*
X102669000Y-98523667D01*
X102669000Y-98336333D01*
X102705546Y-98152605D01*
X102777234Y-97979534D01*
X102852844Y-97866376D01*
X102881310Y-97823773D01*
X103013773Y-97691310D01*
X103169533Y-97587235D01*
X103169534Y-97587234D01*
X103342605Y-97515546D01*
X103526333Y-97479000D01*
X103713667Y-97479000D01*
X103897395Y-97515546D01*
G37*
G36*
X88657395Y-97515546D02*
G01*
X88830466Y-97587234D01*
X88830467Y-97587235D01*
X88986227Y-97691310D01*
X89118690Y-97823773D01*
X89147156Y-97866376D01*
X89222766Y-97979534D01*
X89294454Y-98152605D01*
X89331000Y-98336333D01*
X89331000Y-98523667D01*
X89294454Y-98707395D01*
X89222766Y-98880466D01*
X89222765Y-98880467D01*
X89118690Y-99036227D01*
X88986227Y-99168690D01*
X88907818Y-99221081D01*
X88830466Y-99272766D01*
X88657395Y-99344454D01*
X88473667Y-99381000D01*
X88286333Y-99381000D01*
X88102605Y-99344454D01*
X87929534Y-99272766D01*
X87852182Y-99221081D01*
X87773773Y-99168690D01*
X87641310Y-99036227D01*
X87537235Y-98880467D01*
X87537234Y-98880466D01*
X87465546Y-98707395D01*
X87429000Y-98523667D01*
X87429000Y-98336333D01*
X87465546Y-98152605D01*
X87537234Y-97979534D01*
X87612844Y-97866376D01*
X87641310Y-97823773D01*
X87773773Y-97691310D01*
X87929533Y-97587235D01*
X87929534Y-97587234D01*
X88102605Y-97515546D01*
X88286333Y-97479000D01*
X88473667Y-97479000D01*
X88657395Y-97515546D01*
G37*
G36*
X217758600Y-96102989D02*
G01*
X217791652Y-96113015D01*
X217822103Y-96129292D01*
X217848799Y-96151201D01*
X217870708Y-96177897D01*
X217886985Y-96208348D01*
X217897011Y-96241400D01*
X217901000Y-96281903D01*
X217901000Y-97718097D01*
X217897011Y-97758600D01*
X217886985Y-97791652D01*
X217870708Y-97822103D01*
X217848799Y-97848799D01*
X217822103Y-97870708D01*
X217791652Y-97886985D01*
X217758600Y-97897011D01*
X217718097Y-97901000D01*
X216281903Y-97901000D01*
X216241400Y-97897011D01*
X216208348Y-97886985D01*
X216177897Y-97870708D01*
X216151201Y-97848799D01*
X216129292Y-97822103D01*
X216113015Y-97791652D01*
X216102989Y-97758600D01*
X216099000Y-97718097D01*
X216099000Y-96281903D01*
X216102989Y-96241400D01*
X216113015Y-96208348D01*
X216129292Y-96177897D01*
X216151201Y-96151201D01*
X216177897Y-96129292D01*
X216208348Y-96113015D01*
X216241400Y-96102989D01*
X216281903Y-96099000D01*
X217718097Y-96099000D01*
X217758600Y-96102989D01*
G37*
G36*
X222188796Y-96102989D02*
G01*
X222342812Y-96133624D01*
X222506784Y-96201544D01*
X222654354Y-96300147D01*
X222779853Y-96425646D01*
X222878456Y-96573216D01*
X222946376Y-96737188D01*
X222981000Y-96911259D01*
X222981000Y-97088741D01*
X222946376Y-97262812D01*
X222878456Y-97426784D01*
X222779853Y-97574354D01*
X222654354Y-97699853D01*
X222506784Y-97798456D01*
X222342812Y-97866376D01*
X222194341Y-97895908D01*
X222168742Y-97901000D01*
X221991258Y-97901000D01*
X221965659Y-97895908D01*
X221817188Y-97866376D01*
X221653216Y-97798456D01*
X221505646Y-97699853D01*
X221380147Y-97574354D01*
X221281544Y-97426784D01*
X221213624Y-97262812D01*
X221179000Y-97088741D01*
X221179000Y-96911259D01*
X221213624Y-96737188D01*
X221281544Y-96573216D01*
X221380147Y-96425646D01*
X221505646Y-96300147D01*
X221653216Y-96201544D01*
X221817188Y-96133624D01*
X221971204Y-96102989D01*
X221991258Y-96099000D01*
X222168742Y-96099000D01*
X222188796Y-96102989D01*
G37*
G36*
X219648796Y-96102989D02*
G01*
X219802812Y-96133624D01*
X219966784Y-96201544D01*
X220114354Y-96300147D01*
X220239853Y-96425646D01*
X220338456Y-96573216D01*
X220406376Y-96737188D01*
X220441000Y-96911259D01*
X220441000Y-97088741D01*
X220406376Y-97262812D01*
X220338456Y-97426784D01*
X220239853Y-97574354D01*
X220114354Y-97699853D01*
X219966784Y-97798456D01*
X219802812Y-97866376D01*
X219654341Y-97895908D01*
X219628742Y-97901000D01*
X219451258Y-97901000D01*
X219425659Y-97895908D01*
X219277188Y-97866376D01*
X219113216Y-97798456D01*
X218965646Y-97699853D01*
X218840147Y-97574354D01*
X218741544Y-97426784D01*
X218673624Y-97262812D01*
X218639000Y-97088741D01*
X218639000Y-96911259D01*
X218673624Y-96737188D01*
X218741544Y-96573216D01*
X218840147Y-96425646D01*
X218965646Y-96300147D01*
X219113216Y-96201544D01*
X219277188Y-96133624D01*
X219431204Y-96102989D01*
X219451258Y-96099000D01*
X219628742Y-96099000D01*
X219648796Y-96102989D01*
G37*
G36*
X103897395Y-94975546D02*
G01*
X104070466Y-95047234D01*
X104070467Y-95047235D01*
X104226227Y-95151310D01*
X104358690Y-95283773D01*
X104387156Y-95326376D01*
X104462766Y-95439534D01*
X104534454Y-95612605D01*
X104571000Y-95796333D01*
X104571000Y-95983667D01*
X104534454Y-96167395D01*
X104462766Y-96340466D01*
X104462765Y-96340467D01*
X104358690Y-96496227D01*
X104226227Y-96628690D01*
X104147818Y-96681081D01*
X104070466Y-96732766D01*
X103897395Y-96804454D01*
X103713667Y-96841000D01*
X103526333Y-96841000D01*
X103342605Y-96804454D01*
X103169534Y-96732766D01*
X103092182Y-96681081D01*
X103013773Y-96628690D01*
X102881310Y-96496227D01*
X102777235Y-96340467D01*
X102777234Y-96340466D01*
X102705546Y-96167395D01*
X102669000Y-95983667D01*
X102669000Y-95796333D01*
X102705546Y-95612605D01*
X102777234Y-95439534D01*
X102852844Y-95326376D01*
X102881310Y-95283773D01*
X103013773Y-95151310D01*
X103169533Y-95047235D01*
X103169534Y-95047234D01*
X103342605Y-94975546D01*
X103526333Y-94939000D01*
X103713667Y-94939000D01*
X103897395Y-94975546D01*
G37*
G36*
X88657395Y-94975546D02*
G01*
X88830466Y-95047234D01*
X88830467Y-95047235D01*
X88986227Y-95151310D01*
X89118690Y-95283773D01*
X89147156Y-95326376D01*
X89222766Y-95439534D01*
X89294454Y-95612605D01*
X89331000Y-95796333D01*
X89331000Y-95983667D01*
X89294454Y-96167395D01*
X89222766Y-96340466D01*
X89222765Y-96340467D01*
X89118690Y-96496227D01*
X88986227Y-96628690D01*
X88907818Y-96681081D01*
X88830466Y-96732766D01*
X88657395Y-96804454D01*
X88473667Y-96841000D01*
X88286333Y-96841000D01*
X88102605Y-96804454D01*
X87929534Y-96732766D01*
X87852182Y-96681081D01*
X87773773Y-96628690D01*
X87641310Y-96496227D01*
X87537235Y-96340467D01*
X87537234Y-96340466D01*
X87465546Y-96167395D01*
X87429000Y-95983667D01*
X87429000Y-95796333D01*
X87465546Y-95612605D01*
X87537234Y-95439534D01*
X87612844Y-95326376D01*
X87641310Y-95283773D01*
X87773773Y-95151310D01*
X87929533Y-95047235D01*
X87929534Y-95047234D01*
X88102605Y-94975546D01*
X88286333Y-94939000D01*
X88473667Y-94939000D01*
X88657395Y-94975546D01*
G37*
G36*
X222193512Y-93563927D02*
G01*
X222342812Y-93593624D01*
X222506784Y-93661544D01*
X222654354Y-93760147D01*
X222779853Y-93885646D01*
X222878456Y-94033216D01*
X222946376Y-94197188D01*
X222981000Y-94371259D01*
X222981000Y-94548741D01*
X222946376Y-94722812D01*
X222878456Y-94886784D01*
X222779853Y-95034354D01*
X222654354Y-95159853D01*
X222506784Y-95258456D01*
X222342812Y-95326376D01*
X222193512Y-95356073D01*
X222168742Y-95361000D01*
X221991258Y-95361000D01*
X221966488Y-95356073D01*
X221817188Y-95326376D01*
X221653216Y-95258456D01*
X221505646Y-95159853D01*
X221380147Y-95034354D01*
X221281544Y-94886784D01*
X221213624Y-94722812D01*
X221179000Y-94548741D01*
X221179000Y-94371259D01*
X221213624Y-94197188D01*
X221281544Y-94033216D01*
X221380147Y-93885646D01*
X221505646Y-93760147D01*
X221653216Y-93661544D01*
X221817188Y-93593624D01*
X221966488Y-93563927D01*
X221991258Y-93559000D01*
X222168742Y-93559000D01*
X222193512Y-93563927D01*
G37*
G36*
X219653512Y-93563927D02*
G01*
X219802812Y-93593624D01*
X219966784Y-93661544D01*
X220114354Y-93760147D01*
X220239853Y-93885646D01*
X220338456Y-94033216D01*
X220406376Y-94197188D01*
X220441000Y-94371259D01*
X220441000Y-94548741D01*
X220406376Y-94722812D01*
X220338456Y-94886784D01*
X220239853Y-95034354D01*
X220114354Y-95159853D01*
X219966784Y-95258456D01*
X219802812Y-95326376D01*
X219653512Y-95356073D01*
X219628742Y-95361000D01*
X219451258Y-95361000D01*
X219426488Y-95356073D01*
X219277188Y-95326376D01*
X219113216Y-95258456D01*
X218965646Y-95159853D01*
X218840147Y-95034354D01*
X218741544Y-94886784D01*
X218673624Y-94722812D01*
X218639000Y-94548741D01*
X218639000Y-94371259D01*
X218673624Y-94197188D01*
X218741544Y-94033216D01*
X218840147Y-93885646D01*
X218965646Y-93760147D01*
X219113216Y-93661544D01*
X219277188Y-93593624D01*
X219426488Y-93563927D01*
X219451258Y-93559000D01*
X219628742Y-93559000D01*
X219653512Y-93563927D01*
G37*
G36*
X217113512Y-93563927D02*
G01*
X217262812Y-93593624D01*
X217426784Y-93661544D01*
X217574354Y-93760147D01*
X217699853Y-93885646D01*
X217798456Y-94033216D01*
X217866376Y-94197188D01*
X217901000Y-94371259D01*
X217901000Y-94548741D01*
X217866376Y-94722812D01*
X217798456Y-94886784D01*
X217699853Y-95034354D01*
X217574354Y-95159853D01*
X217426784Y-95258456D01*
X217262812Y-95326376D01*
X217113512Y-95356073D01*
X217088742Y-95361000D01*
X216911258Y-95361000D01*
X216886488Y-95356073D01*
X216737188Y-95326376D01*
X216573216Y-95258456D01*
X216425646Y-95159853D01*
X216300147Y-95034354D01*
X216201544Y-94886784D01*
X216133624Y-94722812D01*
X216099000Y-94548741D01*
X216099000Y-94371259D01*
X216133624Y-94197188D01*
X216201544Y-94033216D01*
X216300147Y-93885646D01*
X216425646Y-93760147D01*
X216573216Y-93661544D01*
X216737188Y-93593624D01*
X216886488Y-93563927D01*
X216911258Y-93559000D01*
X217088742Y-93559000D01*
X217113512Y-93563927D01*
G37*
G36*
X88657395Y-92435546D02*
G01*
X88830466Y-92507234D01*
X88830467Y-92507235D01*
X88986227Y-92611310D01*
X89118690Y-92743773D01*
X89118691Y-92743775D01*
X89222766Y-92899534D01*
X89294454Y-93072605D01*
X89331000Y-93256333D01*
X89331000Y-93443667D01*
X89294454Y-93627395D01*
X89222766Y-93800466D01*
X89222765Y-93800467D01*
X89118690Y-93956227D01*
X88986227Y-94088690D01*
X88907818Y-94141081D01*
X88830466Y-94192766D01*
X88657395Y-94264454D01*
X88473667Y-94301000D01*
X88286333Y-94301000D01*
X88102605Y-94264454D01*
X87929534Y-94192766D01*
X87852182Y-94141081D01*
X87773773Y-94088690D01*
X87641310Y-93956227D01*
X87537235Y-93800467D01*
X87537234Y-93800466D01*
X87465546Y-93627395D01*
X87429000Y-93443667D01*
X87429000Y-93256333D01*
X87465546Y-93072605D01*
X87537234Y-92899534D01*
X87641309Y-92743775D01*
X87641310Y-92743773D01*
X87773773Y-92611310D01*
X87929533Y-92507235D01*
X87929534Y-92507234D01*
X88102605Y-92435546D01*
X88286333Y-92399000D01*
X88473667Y-92399000D01*
X88657395Y-92435546D01*
G37*
G36*
X103897395Y-92435546D02*
G01*
X104070466Y-92507234D01*
X104070467Y-92507235D01*
X104226227Y-92611310D01*
X104358690Y-92743773D01*
X104358691Y-92743775D01*
X104462766Y-92899534D01*
X104534454Y-93072605D01*
X104571000Y-93256333D01*
X104571000Y-93443667D01*
X104534454Y-93627395D01*
X104462766Y-93800466D01*
X104462765Y-93800467D01*
X104358690Y-93956227D01*
X104226227Y-94088690D01*
X104147818Y-94141081D01*
X104070466Y-94192766D01*
X103897395Y-94264454D01*
X103713667Y-94301000D01*
X103526333Y-94301000D01*
X103342605Y-94264454D01*
X103169534Y-94192766D01*
X103092182Y-94141081D01*
X103013773Y-94088690D01*
X102881310Y-93956227D01*
X102777235Y-93800467D01*
X102777234Y-93800466D01*
X102705546Y-93627395D01*
X102669000Y-93443667D01*
X102669000Y-93256333D01*
X102705546Y-93072605D01*
X102777234Y-92899534D01*
X102881309Y-92743775D01*
X102881310Y-92743773D01*
X103013773Y-92611310D01*
X103169533Y-92507235D01*
X103169534Y-92507234D01*
X103342605Y-92435546D01*
X103526333Y-92399000D01*
X103713667Y-92399000D01*
X103897395Y-92435546D01*
G37*
G36*
X103897395Y-89895546D02*
G01*
X104070466Y-89967234D01*
X104070467Y-89967235D01*
X104226227Y-90071310D01*
X104358690Y-90203773D01*
X104358691Y-90203775D01*
X104462766Y-90359534D01*
X104534454Y-90532605D01*
X104571000Y-90716333D01*
X104571000Y-90903667D01*
X104534454Y-91087395D01*
X104462766Y-91260466D01*
X104462765Y-91260467D01*
X104358690Y-91416227D01*
X104226227Y-91548690D01*
X104147818Y-91601081D01*
X104070466Y-91652766D01*
X103897395Y-91724454D01*
X103713667Y-91761000D01*
X103526333Y-91761000D01*
X103342605Y-91724454D01*
X103169534Y-91652766D01*
X103092182Y-91601081D01*
X103013773Y-91548690D01*
X102881310Y-91416227D01*
X102777235Y-91260467D01*
X102777234Y-91260466D01*
X102705546Y-91087395D01*
X102669000Y-90903667D01*
X102669000Y-90716333D01*
X102705546Y-90532605D01*
X102777234Y-90359534D01*
X102881309Y-90203775D01*
X102881310Y-90203773D01*
X103013773Y-90071310D01*
X103169533Y-89967235D01*
X103169534Y-89967234D01*
X103342605Y-89895546D01*
X103526333Y-89859000D01*
X103713667Y-89859000D01*
X103897395Y-89895546D01*
G37*
G36*
X88657395Y-89895546D02*
G01*
X88830466Y-89967234D01*
X88830467Y-89967235D01*
X88986227Y-90071310D01*
X89118690Y-90203773D01*
X89118691Y-90203775D01*
X89222766Y-90359534D01*
X89294454Y-90532605D01*
X89331000Y-90716333D01*
X89331000Y-90903667D01*
X89294454Y-91087395D01*
X89222766Y-91260466D01*
X89222765Y-91260467D01*
X89118690Y-91416227D01*
X88986227Y-91548690D01*
X88907818Y-91601081D01*
X88830466Y-91652766D01*
X88657395Y-91724454D01*
X88473667Y-91761000D01*
X88286333Y-91761000D01*
X88102605Y-91724454D01*
X87929534Y-91652766D01*
X87852182Y-91601081D01*
X87773773Y-91548690D01*
X87641310Y-91416227D01*
X87537235Y-91260467D01*
X87537234Y-91260466D01*
X87465546Y-91087395D01*
X87429000Y-90903667D01*
X87429000Y-90716333D01*
X87465546Y-90532605D01*
X87537234Y-90359534D01*
X87641309Y-90203775D01*
X87641310Y-90203773D01*
X87773773Y-90071310D01*
X87929533Y-89967235D01*
X87929534Y-89967234D01*
X88102605Y-89895546D01*
X88286333Y-89859000D01*
X88473667Y-89859000D01*
X88657395Y-89895546D01*
G37*
G36*
X88657395Y-87355546D02*
G01*
X88830466Y-87427234D01*
X88830467Y-87427235D01*
X88986227Y-87531310D01*
X89118690Y-87663773D01*
X89118691Y-87663775D01*
X89222766Y-87819534D01*
X89294454Y-87992605D01*
X89331000Y-88176333D01*
X89331000Y-88363667D01*
X89294454Y-88547395D01*
X89222766Y-88720466D01*
X89222765Y-88720467D01*
X89118690Y-88876227D01*
X88986227Y-89008690D01*
X88907818Y-89061081D01*
X88830466Y-89112766D01*
X88657395Y-89184454D01*
X88473667Y-89221000D01*
X88286333Y-89221000D01*
X88102605Y-89184454D01*
X87929534Y-89112766D01*
X87852182Y-89061081D01*
X87773773Y-89008690D01*
X87641310Y-88876227D01*
X87537235Y-88720467D01*
X87537234Y-88720466D01*
X87465546Y-88547395D01*
X87429000Y-88363667D01*
X87429000Y-88176333D01*
X87465546Y-87992605D01*
X87537234Y-87819534D01*
X87641309Y-87663775D01*
X87641310Y-87663773D01*
X87773773Y-87531310D01*
X87929533Y-87427235D01*
X87929534Y-87427234D01*
X88102605Y-87355546D01*
X88286333Y-87319000D01*
X88473667Y-87319000D01*
X88657395Y-87355546D01*
G37*
G36*
X103897395Y-87355546D02*
G01*
X104070466Y-87427234D01*
X104070467Y-87427235D01*
X104226227Y-87531310D01*
X104358690Y-87663773D01*
X104358691Y-87663775D01*
X104462766Y-87819534D01*
X104534454Y-87992605D01*
X104571000Y-88176333D01*
X104571000Y-88363667D01*
X104534454Y-88547395D01*
X104462766Y-88720466D01*
X104462765Y-88720467D01*
X104358690Y-88876227D01*
X104226227Y-89008690D01*
X104147818Y-89061081D01*
X104070466Y-89112766D01*
X103897395Y-89184454D01*
X103713667Y-89221000D01*
X103526333Y-89221000D01*
X103342605Y-89184454D01*
X103169534Y-89112766D01*
X103092182Y-89061081D01*
X103013773Y-89008690D01*
X102881310Y-88876227D01*
X102777235Y-88720467D01*
X102777234Y-88720466D01*
X102705546Y-88547395D01*
X102669000Y-88363667D01*
X102669000Y-88176333D01*
X102705546Y-87992605D01*
X102777234Y-87819534D01*
X102881309Y-87663775D01*
X102881310Y-87663773D01*
X103013773Y-87531310D01*
X103169533Y-87427235D01*
X103169534Y-87427234D01*
X103342605Y-87355546D01*
X103526333Y-87319000D01*
X103713667Y-87319000D01*
X103897395Y-87355546D01*
G37*
G36*
X88657395Y-84815546D02*
G01*
X88830466Y-84887234D01*
X88830467Y-84887235D01*
X88986227Y-84991310D01*
X89118690Y-85123773D01*
X89118691Y-85123775D01*
X89222766Y-85279534D01*
X89294454Y-85452605D01*
X89331000Y-85636333D01*
X89331000Y-85823667D01*
X89294454Y-86007395D01*
X89222766Y-86180466D01*
X89222765Y-86180467D01*
X89118690Y-86336227D01*
X88986227Y-86468690D01*
X88907818Y-86521081D01*
X88830466Y-86572766D01*
X88657395Y-86644454D01*
X88473667Y-86681000D01*
X88286333Y-86681000D01*
X88102605Y-86644454D01*
X87929534Y-86572766D01*
X87852182Y-86521081D01*
X87773773Y-86468690D01*
X87641310Y-86336227D01*
X87537235Y-86180467D01*
X87537234Y-86180466D01*
X87465546Y-86007395D01*
X87429000Y-85823667D01*
X87429000Y-85636333D01*
X87465546Y-85452605D01*
X87537234Y-85279534D01*
X87641309Y-85123775D01*
X87641310Y-85123773D01*
X87773773Y-84991310D01*
X87929533Y-84887235D01*
X87929534Y-84887234D01*
X88102605Y-84815546D01*
X88286333Y-84779000D01*
X88473667Y-84779000D01*
X88657395Y-84815546D01*
G37*
G36*
X103897395Y-84815546D02*
G01*
X104070466Y-84887234D01*
X104070467Y-84887235D01*
X104226227Y-84991310D01*
X104358690Y-85123773D01*
X104358691Y-85123775D01*
X104462766Y-85279534D01*
X104534454Y-85452605D01*
X104571000Y-85636333D01*
X104571000Y-85823667D01*
X104534454Y-86007395D01*
X104462766Y-86180466D01*
X104462765Y-86180467D01*
X104358690Y-86336227D01*
X104226227Y-86468690D01*
X104147818Y-86521081D01*
X104070466Y-86572766D01*
X103897395Y-86644454D01*
X103713667Y-86681000D01*
X103526333Y-86681000D01*
X103342605Y-86644454D01*
X103169534Y-86572766D01*
X103092182Y-86521081D01*
X103013773Y-86468690D01*
X102881310Y-86336227D01*
X102777235Y-86180467D01*
X102777234Y-86180466D01*
X102705546Y-86007395D01*
X102669000Y-85823667D01*
X102669000Y-85636333D01*
X102705546Y-85452605D01*
X102777234Y-85279534D01*
X102881309Y-85123775D01*
X102881310Y-85123773D01*
X103013773Y-84991310D01*
X103169533Y-84887235D01*
X103169534Y-84887234D01*
X103342605Y-84815546D01*
X103526333Y-84779000D01*
X103713667Y-84779000D01*
X103897395Y-84815546D01*
G37*
G36*
X103897395Y-82275546D02*
G01*
X104070466Y-82347234D01*
X104070467Y-82347235D01*
X104226227Y-82451310D01*
X104358690Y-82583773D01*
X104358691Y-82583775D01*
X104462766Y-82739534D01*
X104534454Y-82912605D01*
X104571000Y-83096333D01*
X104571000Y-83283667D01*
X104534454Y-83467395D01*
X104462766Y-83640466D01*
X104462765Y-83640467D01*
X104358690Y-83796227D01*
X104226227Y-83928690D01*
X104147818Y-83981081D01*
X104070466Y-84032766D01*
X103897395Y-84104454D01*
X103713667Y-84141000D01*
X103526333Y-84141000D01*
X103342605Y-84104454D01*
X103169534Y-84032766D01*
X103092182Y-83981081D01*
X103013773Y-83928690D01*
X102881310Y-83796227D01*
X102777235Y-83640467D01*
X102777234Y-83640466D01*
X102705546Y-83467395D01*
X102669000Y-83283667D01*
X102669000Y-83096333D01*
X102705546Y-82912605D01*
X102777234Y-82739534D01*
X102881309Y-82583775D01*
X102881310Y-82583773D01*
X103013773Y-82451310D01*
X103169533Y-82347235D01*
X103169534Y-82347234D01*
X103342605Y-82275546D01*
X103526333Y-82239000D01*
X103713667Y-82239000D01*
X103897395Y-82275546D01*
G37*
G36*
X88657395Y-82275546D02*
G01*
X88830466Y-82347234D01*
X88830467Y-82347235D01*
X88986227Y-82451310D01*
X89118690Y-82583773D01*
X89118691Y-82583775D01*
X89222766Y-82739534D01*
X89294454Y-82912605D01*
X89331000Y-83096333D01*
X89331000Y-83283667D01*
X89294454Y-83467395D01*
X89222766Y-83640466D01*
X89222765Y-83640467D01*
X89118690Y-83796227D01*
X88986227Y-83928690D01*
X88907818Y-83981081D01*
X88830466Y-84032766D01*
X88657395Y-84104454D01*
X88473667Y-84141000D01*
X88286333Y-84141000D01*
X88102605Y-84104454D01*
X87929534Y-84032766D01*
X87852182Y-83981081D01*
X87773773Y-83928690D01*
X87641310Y-83796227D01*
X87537235Y-83640467D01*
X87537234Y-83640466D01*
X87465546Y-83467395D01*
X87429000Y-83283667D01*
X87429000Y-83096333D01*
X87465546Y-82912605D01*
X87537234Y-82739534D01*
X87641309Y-82583775D01*
X87641310Y-82583773D01*
X87773773Y-82451310D01*
X87929533Y-82347235D01*
X87929534Y-82347234D01*
X88102605Y-82275546D01*
X88286333Y-82239000D01*
X88473667Y-82239000D01*
X88657395Y-82275546D01*
G37*
G36*
X88657395Y-79735546D02*
G01*
X88830466Y-79807234D01*
X88830467Y-79807235D01*
X88986227Y-79911310D01*
X89118690Y-80043773D01*
X89142156Y-80078893D01*
X89222766Y-80199534D01*
X89294454Y-80372605D01*
X89331000Y-80556333D01*
X89331000Y-80743667D01*
X89294454Y-80927395D01*
X89222766Y-81100466D01*
X89222765Y-81100467D01*
X89118690Y-81256227D01*
X88986227Y-81388690D01*
X88907818Y-81441081D01*
X88830466Y-81492766D01*
X88657395Y-81564454D01*
X88473667Y-81601000D01*
X88286333Y-81601000D01*
X88102605Y-81564454D01*
X87929534Y-81492766D01*
X87852182Y-81441081D01*
X87773773Y-81388690D01*
X87641310Y-81256227D01*
X87537235Y-81100467D01*
X87537234Y-81100466D01*
X87465546Y-80927395D01*
X87429000Y-80743667D01*
X87429000Y-80556333D01*
X87465546Y-80372605D01*
X87537234Y-80199534D01*
X87617844Y-80078893D01*
X87641310Y-80043773D01*
X87773773Y-79911310D01*
X87929533Y-79807235D01*
X87929534Y-79807234D01*
X88102605Y-79735546D01*
X88286333Y-79699000D01*
X88473667Y-79699000D01*
X88657395Y-79735546D01*
G37*
G36*
X103897395Y-79735546D02*
G01*
X104070466Y-79807234D01*
X104070467Y-79807235D01*
X104226227Y-79911310D01*
X104358690Y-80043773D01*
X104382156Y-80078893D01*
X104462766Y-80199534D01*
X104534454Y-80372605D01*
X104571000Y-80556333D01*
X104571000Y-80743667D01*
X104534454Y-80927395D01*
X104462766Y-81100466D01*
X104462765Y-81100467D01*
X104358690Y-81256227D01*
X104226227Y-81388690D01*
X104147818Y-81441081D01*
X104070466Y-81492766D01*
X103897395Y-81564454D01*
X103713667Y-81601000D01*
X103526333Y-81601000D01*
X103342605Y-81564454D01*
X103169534Y-81492766D01*
X103092182Y-81441081D01*
X103013773Y-81388690D01*
X102881310Y-81256227D01*
X102777235Y-81100467D01*
X102777234Y-81100466D01*
X102705546Y-80927395D01*
X102669000Y-80743667D01*
X102669000Y-80556333D01*
X102705546Y-80372605D01*
X102777234Y-80199534D01*
X102857844Y-80078893D01*
X102881310Y-80043773D01*
X103013773Y-79911310D01*
X103169533Y-79807235D01*
X103169534Y-79807234D01*
X103342605Y-79735546D01*
X103526333Y-79699000D01*
X103713667Y-79699000D01*
X103897395Y-79735546D01*
G37*
G36*
X184233642Y-79229781D02*
G01*
X184379414Y-79290162D01*
X184379416Y-79290163D01*
X184510608Y-79377822D01*
X184622178Y-79489392D01*
X184709837Y-79620584D01*
X184709838Y-79620586D01*
X184770219Y-79766358D01*
X184801000Y-79921107D01*
X184801000Y-80078893D01*
X184770219Y-80233642D01*
X184712659Y-80372604D01*
X184709837Y-80379416D01*
X184622178Y-80510608D01*
X184510608Y-80622178D01*
X184379416Y-80709837D01*
X184379415Y-80709838D01*
X184379414Y-80709838D01*
X184233642Y-80770219D01*
X184078893Y-80801000D01*
X183921107Y-80801000D01*
X183766358Y-80770219D01*
X183620586Y-80709838D01*
X183620585Y-80709838D01*
X183620584Y-80709837D01*
X183489392Y-80622178D01*
X183377822Y-80510608D01*
X183290163Y-80379416D01*
X183287341Y-80372604D01*
X183229781Y-80233642D01*
X183199000Y-80078893D01*
X183199000Y-79921107D01*
X183229781Y-79766358D01*
X183290162Y-79620586D01*
X183290163Y-79620584D01*
X183377822Y-79489392D01*
X183489392Y-79377822D01*
X183620584Y-79290163D01*
X183620586Y-79290162D01*
X183766358Y-79229781D01*
X183921107Y-79199000D01*
X184078893Y-79199000D01*
X184233642Y-79229781D01*
G37*
G36*
X164233642Y-79229781D02*
G01*
X164379414Y-79290162D01*
X164379416Y-79290163D01*
X164510608Y-79377822D01*
X164622178Y-79489392D01*
X164709837Y-79620584D01*
X164709838Y-79620586D01*
X164770219Y-79766358D01*
X164801000Y-79921107D01*
X164801000Y-80078893D01*
X164770219Y-80233642D01*
X164712659Y-80372604D01*
X164709837Y-80379416D01*
X164622178Y-80510608D01*
X164510608Y-80622178D01*
X164379416Y-80709837D01*
X164379415Y-80709838D01*
X164379414Y-80709838D01*
X164233642Y-80770219D01*
X164078893Y-80801000D01*
X163921107Y-80801000D01*
X163766358Y-80770219D01*
X163620586Y-80709838D01*
X163620585Y-80709838D01*
X163620584Y-80709837D01*
X163489392Y-80622178D01*
X163377822Y-80510608D01*
X163290163Y-80379416D01*
X163287341Y-80372604D01*
X163229781Y-80233642D01*
X163199000Y-80078893D01*
X163199000Y-79921107D01*
X163229781Y-79766358D01*
X163290162Y-79620586D01*
X163290163Y-79620584D01*
X163377822Y-79489392D01*
X163489392Y-79377822D01*
X163620584Y-79290163D01*
X163620586Y-79290162D01*
X163766358Y-79229781D01*
X163921107Y-79199000D01*
X164078893Y-79199000D01*
X164233642Y-79229781D01*
G37*
G36*
X144233642Y-79229781D02*
G01*
X144379414Y-79290162D01*
X144379416Y-79290163D01*
X144510608Y-79377822D01*
X144622178Y-79489392D01*
X144709837Y-79620584D01*
X144709838Y-79620586D01*
X144770219Y-79766358D01*
X144801000Y-79921107D01*
X144801000Y-80078893D01*
X144770219Y-80233642D01*
X144712659Y-80372604D01*
X144709837Y-80379416D01*
X144622178Y-80510608D01*
X144510608Y-80622178D01*
X144379416Y-80709837D01*
X144379415Y-80709838D01*
X144379414Y-80709838D01*
X144233642Y-80770219D01*
X144078893Y-80801000D01*
X143921107Y-80801000D01*
X143766358Y-80770219D01*
X143620586Y-80709838D01*
X143620585Y-80709838D01*
X143620584Y-80709837D01*
X143489392Y-80622178D01*
X143377822Y-80510608D01*
X143290163Y-80379416D01*
X143287341Y-80372604D01*
X143229781Y-80233642D01*
X143199000Y-80078893D01*
X143199000Y-79921107D01*
X143229781Y-79766358D01*
X143290162Y-79620586D01*
X143290163Y-79620584D01*
X143377822Y-79489392D01*
X143489392Y-79377822D01*
X143620584Y-79290163D01*
X143620586Y-79290162D01*
X143766358Y-79229781D01*
X143921107Y-79199000D01*
X144078893Y-79199000D01*
X144233642Y-79229781D01*
G37*
G36*
X103897395Y-77195546D02*
G01*
X104070466Y-77267234D01*
X104070467Y-77267235D01*
X104226227Y-77371310D01*
X104358690Y-77503773D01*
X104358691Y-77503775D01*
X104462766Y-77659534D01*
X104534454Y-77832605D01*
X104571000Y-78016333D01*
X104571000Y-78203667D01*
X104534454Y-78387395D01*
X104462766Y-78560466D01*
X104462765Y-78560467D01*
X104358690Y-78716227D01*
X104226227Y-78848690D01*
X104147818Y-78901081D01*
X104070466Y-78952766D01*
X103897395Y-79024454D01*
X103713667Y-79061000D01*
X103526333Y-79061000D01*
X103342605Y-79024454D01*
X103169534Y-78952766D01*
X103092182Y-78901081D01*
X103013773Y-78848690D01*
X102881310Y-78716227D01*
X102777235Y-78560467D01*
X102777234Y-78560466D01*
X102705546Y-78387395D01*
X102669000Y-78203667D01*
X102669000Y-78016333D01*
X102705546Y-77832605D01*
X102777234Y-77659534D01*
X102881309Y-77503775D01*
X102881310Y-77503773D01*
X103013773Y-77371310D01*
X103169533Y-77267235D01*
X103169534Y-77267234D01*
X103342605Y-77195546D01*
X103526333Y-77159000D01*
X103713667Y-77159000D01*
X103897395Y-77195546D01*
G37*
G36*
X88657395Y-77195546D02*
G01*
X88830466Y-77267234D01*
X88830467Y-77267235D01*
X88986227Y-77371310D01*
X89118690Y-77503773D01*
X89118691Y-77503775D01*
X89222766Y-77659534D01*
X89294454Y-77832605D01*
X89331000Y-78016333D01*
X89331000Y-78203667D01*
X89294454Y-78387395D01*
X89222766Y-78560466D01*
X89222765Y-78560467D01*
X89118690Y-78716227D01*
X88986227Y-78848690D01*
X88907818Y-78901081D01*
X88830466Y-78952766D01*
X88657395Y-79024454D01*
X88473667Y-79061000D01*
X88286333Y-79061000D01*
X88102605Y-79024454D01*
X87929534Y-78952766D01*
X87852182Y-78901081D01*
X87773773Y-78848690D01*
X87641310Y-78716227D01*
X87537235Y-78560467D01*
X87537234Y-78560466D01*
X87465546Y-78387395D01*
X87429000Y-78203667D01*
X87429000Y-78016333D01*
X87465546Y-77832605D01*
X87537234Y-77659534D01*
X87641309Y-77503775D01*
X87641310Y-77503773D01*
X87773773Y-77371310D01*
X87929533Y-77267235D01*
X87929534Y-77267234D01*
X88102605Y-77195546D01*
X88286333Y-77159000D01*
X88473667Y-77159000D01*
X88657395Y-77195546D01*
G37*
G36*
X151233642Y-76229781D02*
G01*
X151379414Y-76290162D01*
X151379416Y-76290163D01*
X151510608Y-76377822D01*
X151622178Y-76489392D01*
X151709837Y-76620584D01*
X151709838Y-76620586D01*
X151770219Y-76766358D01*
X151801000Y-76921107D01*
X151801000Y-77078893D01*
X151770219Y-77233642D01*
X151756304Y-77267235D01*
X151709837Y-77379416D01*
X151622178Y-77510608D01*
X151510608Y-77622178D01*
X151379416Y-77709837D01*
X151379415Y-77709838D01*
X151379414Y-77709838D01*
X151233642Y-77770219D01*
X151078893Y-77801000D01*
X150921107Y-77801000D01*
X150766358Y-77770219D01*
X150620586Y-77709838D01*
X150620585Y-77709838D01*
X150620584Y-77709837D01*
X150489392Y-77622178D01*
X150377822Y-77510608D01*
X150290163Y-77379416D01*
X150243696Y-77267235D01*
X150229781Y-77233642D01*
X150199000Y-77078893D01*
X150199000Y-76921107D01*
X150229781Y-76766358D01*
X150290162Y-76620586D01*
X150290163Y-76620584D01*
X150377822Y-76489392D01*
X150489392Y-76377822D01*
X150620584Y-76290163D01*
X150620586Y-76290162D01*
X150766358Y-76229781D01*
X150921107Y-76199000D01*
X151078893Y-76199000D01*
X151233642Y-76229781D01*
G37*
G36*
X155233642Y-76229781D02*
G01*
X155379414Y-76290162D01*
X155379416Y-76290163D01*
X155510608Y-76377822D01*
X155622178Y-76489392D01*
X155709837Y-76620584D01*
X155709838Y-76620586D01*
X155770219Y-76766358D01*
X155801000Y-76921107D01*
X155801000Y-77078893D01*
X155770219Y-77233642D01*
X155756304Y-77267235D01*
X155709837Y-77379416D01*
X155622178Y-77510608D01*
X155510608Y-77622178D01*
X155379416Y-77709837D01*
X155379415Y-77709838D01*
X155379414Y-77709838D01*
X155233642Y-77770219D01*
X155078893Y-77801000D01*
X154921107Y-77801000D01*
X154766358Y-77770219D01*
X154620586Y-77709838D01*
X154620585Y-77709838D01*
X154620584Y-77709837D01*
X154489392Y-77622178D01*
X154377822Y-77510608D01*
X154290163Y-77379416D01*
X154243696Y-77267235D01*
X154229781Y-77233642D01*
X154199000Y-77078893D01*
X154199000Y-76921107D01*
X154229781Y-76766358D01*
X154290162Y-76620586D01*
X154290163Y-76620584D01*
X154377822Y-76489392D01*
X154489392Y-76377822D01*
X154620584Y-76290163D01*
X154620586Y-76290162D01*
X154766358Y-76229781D01*
X154921107Y-76199000D01*
X155078893Y-76199000D01*
X155233642Y-76229781D01*
G37*
G36*
X171233642Y-76229781D02*
G01*
X171379414Y-76290162D01*
X171379416Y-76290163D01*
X171510608Y-76377822D01*
X171622178Y-76489392D01*
X171709837Y-76620584D01*
X171709838Y-76620586D01*
X171770219Y-76766358D01*
X171801000Y-76921107D01*
X171801000Y-77078893D01*
X171770219Y-77233642D01*
X171756304Y-77267235D01*
X171709837Y-77379416D01*
X171622178Y-77510608D01*
X171510608Y-77622178D01*
X171379416Y-77709837D01*
X171379415Y-77709838D01*
X171379414Y-77709838D01*
X171233642Y-77770219D01*
X171078893Y-77801000D01*
X170921107Y-77801000D01*
X170766358Y-77770219D01*
X170620586Y-77709838D01*
X170620585Y-77709838D01*
X170620584Y-77709837D01*
X170489392Y-77622178D01*
X170377822Y-77510608D01*
X170290163Y-77379416D01*
X170243696Y-77267235D01*
X170229781Y-77233642D01*
X170199000Y-77078893D01*
X170199000Y-76921107D01*
X170229781Y-76766358D01*
X170290162Y-76620586D01*
X170290163Y-76620584D01*
X170377822Y-76489392D01*
X170489392Y-76377822D01*
X170620584Y-76290163D01*
X170620586Y-76290162D01*
X170766358Y-76229781D01*
X170921107Y-76199000D01*
X171078893Y-76199000D01*
X171233642Y-76229781D01*
G37*
G36*
X173233642Y-76229781D02*
G01*
X173379414Y-76290162D01*
X173379416Y-76290163D01*
X173510608Y-76377822D01*
X173622178Y-76489392D01*
X173709837Y-76620584D01*
X173709838Y-76620586D01*
X173770219Y-76766358D01*
X173801000Y-76921107D01*
X173801000Y-77078893D01*
X173770219Y-77233642D01*
X173756304Y-77267235D01*
X173709837Y-77379416D01*
X173622178Y-77510608D01*
X173510608Y-77622178D01*
X173379416Y-77709837D01*
X173379415Y-77709838D01*
X173379414Y-77709838D01*
X173233642Y-77770219D01*
X173078893Y-77801000D01*
X172921107Y-77801000D01*
X172766358Y-77770219D01*
X172620586Y-77709838D01*
X172620585Y-77709838D01*
X172620584Y-77709837D01*
X172489392Y-77622178D01*
X172377822Y-77510608D01*
X172290163Y-77379416D01*
X172243696Y-77267235D01*
X172229781Y-77233642D01*
X172199000Y-77078893D01*
X172199000Y-76921107D01*
X172229781Y-76766358D01*
X172290162Y-76620586D01*
X172290163Y-76620584D01*
X172377822Y-76489392D01*
X172489392Y-76377822D01*
X172620584Y-76290163D01*
X172620586Y-76290162D01*
X172766358Y-76229781D01*
X172921107Y-76199000D01*
X173078893Y-76199000D01*
X173233642Y-76229781D01*
G37*
G36*
X153233642Y-76229781D02*
G01*
X153379414Y-76290162D01*
X153379416Y-76290163D01*
X153510608Y-76377822D01*
X153622178Y-76489392D01*
X153709837Y-76620584D01*
X153709838Y-76620586D01*
X153770219Y-76766358D01*
X153801000Y-76921107D01*
X153801000Y-77078893D01*
X153770219Y-77233642D01*
X153756304Y-77267235D01*
X153709837Y-77379416D01*
X153622178Y-77510608D01*
X153510608Y-77622178D01*
X153379416Y-77709837D01*
X153379415Y-77709838D01*
X153379414Y-77709838D01*
X153233642Y-77770219D01*
X153078893Y-77801000D01*
X152921107Y-77801000D01*
X152766358Y-77770219D01*
X152620586Y-77709838D01*
X152620585Y-77709838D01*
X152620584Y-77709837D01*
X152489392Y-77622178D01*
X152377822Y-77510608D01*
X152290163Y-77379416D01*
X152243696Y-77267235D01*
X152229781Y-77233642D01*
X152199000Y-77078893D01*
X152199000Y-76921107D01*
X152229781Y-76766358D01*
X152290162Y-76620586D01*
X152290163Y-76620584D01*
X152377822Y-76489392D01*
X152489392Y-76377822D01*
X152620584Y-76290163D01*
X152620586Y-76290162D01*
X152766358Y-76229781D01*
X152921107Y-76199000D01*
X153078893Y-76199000D01*
X153233642Y-76229781D01*
G37*
G36*
X135233642Y-76229781D02*
G01*
X135379414Y-76290162D01*
X135379416Y-76290163D01*
X135510608Y-76377822D01*
X135622178Y-76489392D01*
X135709837Y-76620584D01*
X135709838Y-76620586D01*
X135770219Y-76766358D01*
X135801000Y-76921107D01*
X135801000Y-77078893D01*
X135770219Y-77233642D01*
X135756304Y-77267235D01*
X135709837Y-77379416D01*
X135622178Y-77510608D01*
X135510608Y-77622178D01*
X135379416Y-77709837D01*
X135379415Y-77709838D01*
X135379414Y-77709838D01*
X135233642Y-77770219D01*
X135078893Y-77801000D01*
X134921107Y-77801000D01*
X134766358Y-77770219D01*
X134620586Y-77709838D01*
X134620585Y-77709838D01*
X134620584Y-77709837D01*
X134489392Y-77622178D01*
X134377822Y-77510608D01*
X134290163Y-77379416D01*
X134243696Y-77267235D01*
X134229781Y-77233642D01*
X134199000Y-77078893D01*
X134199000Y-76921107D01*
X134229781Y-76766358D01*
X134290162Y-76620586D01*
X134290163Y-76620584D01*
X134377822Y-76489392D01*
X134489392Y-76377822D01*
X134620584Y-76290163D01*
X134620586Y-76290162D01*
X134766358Y-76229781D01*
X134921107Y-76199000D01*
X135078893Y-76199000D01*
X135233642Y-76229781D01*
G37*
G36*
X133233642Y-76229781D02*
G01*
X133379414Y-76290162D01*
X133379416Y-76290163D01*
X133510608Y-76377822D01*
X133622178Y-76489392D01*
X133709837Y-76620584D01*
X133709838Y-76620586D01*
X133770219Y-76766358D01*
X133801000Y-76921107D01*
X133801000Y-77078893D01*
X133770219Y-77233642D01*
X133756304Y-77267235D01*
X133709837Y-77379416D01*
X133622178Y-77510608D01*
X133510608Y-77622178D01*
X133379416Y-77709837D01*
X133379415Y-77709838D01*
X133379414Y-77709838D01*
X133233642Y-77770219D01*
X133078893Y-77801000D01*
X132921107Y-77801000D01*
X132766358Y-77770219D01*
X132620586Y-77709838D01*
X132620585Y-77709838D01*
X132620584Y-77709837D01*
X132489392Y-77622178D01*
X132377822Y-77510608D01*
X132290163Y-77379416D01*
X132243696Y-77267235D01*
X132229781Y-77233642D01*
X132199000Y-77078893D01*
X132199000Y-76921107D01*
X132229781Y-76766358D01*
X132290162Y-76620586D01*
X132290163Y-76620584D01*
X132377822Y-76489392D01*
X132489392Y-76377822D01*
X132620584Y-76290163D01*
X132620586Y-76290162D01*
X132766358Y-76229781D01*
X132921107Y-76199000D01*
X133078893Y-76199000D01*
X133233642Y-76229781D01*
G37*
G36*
X131233642Y-76229781D02*
G01*
X131379414Y-76290162D01*
X131379416Y-76290163D01*
X131510608Y-76377822D01*
X131622178Y-76489392D01*
X131709837Y-76620584D01*
X131709838Y-76620586D01*
X131770219Y-76766358D01*
X131801000Y-76921107D01*
X131801000Y-77078893D01*
X131770219Y-77233642D01*
X131756304Y-77267235D01*
X131709837Y-77379416D01*
X131622178Y-77510608D01*
X131510608Y-77622178D01*
X131379416Y-77709837D01*
X131379415Y-77709838D01*
X131379414Y-77709838D01*
X131233642Y-77770219D01*
X131078893Y-77801000D01*
X130921107Y-77801000D01*
X130766358Y-77770219D01*
X130620586Y-77709838D01*
X130620585Y-77709838D01*
X130620584Y-77709837D01*
X130489392Y-77622178D01*
X130377822Y-77510608D01*
X130290163Y-77379416D01*
X130243696Y-77267235D01*
X130229781Y-77233642D01*
X130199000Y-77078893D01*
X130199000Y-76921107D01*
X130229781Y-76766358D01*
X130290162Y-76620586D01*
X130290163Y-76620584D01*
X130377822Y-76489392D01*
X130489392Y-76377822D01*
X130620584Y-76290163D01*
X130620586Y-76290162D01*
X130766358Y-76229781D01*
X130921107Y-76199000D01*
X131078893Y-76199000D01*
X131233642Y-76229781D01*
G37*
G36*
X175233642Y-76229781D02*
G01*
X175379414Y-76290162D01*
X175379416Y-76290163D01*
X175510608Y-76377822D01*
X175622178Y-76489392D01*
X175709837Y-76620584D01*
X175709838Y-76620586D01*
X175770219Y-76766358D01*
X175801000Y-76921107D01*
X175801000Y-77078893D01*
X175770219Y-77233642D01*
X175756304Y-77267235D01*
X175709837Y-77379416D01*
X175622178Y-77510608D01*
X175510608Y-77622178D01*
X175379416Y-77709837D01*
X175379415Y-77709838D01*
X175379414Y-77709838D01*
X175233642Y-77770219D01*
X175078893Y-77801000D01*
X174921107Y-77801000D01*
X174766358Y-77770219D01*
X174620586Y-77709838D01*
X174620585Y-77709838D01*
X174620584Y-77709837D01*
X174489392Y-77622178D01*
X174377822Y-77510608D01*
X174290163Y-77379416D01*
X174243696Y-77267235D01*
X174229781Y-77233642D01*
X174199000Y-77078893D01*
X174199000Y-76921107D01*
X174229781Y-76766358D01*
X174290162Y-76620586D01*
X174290163Y-76620584D01*
X174377822Y-76489392D01*
X174489392Y-76377822D01*
X174620584Y-76290163D01*
X174620586Y-76290162D01*
X174766358Y-76229781D01*
X174921107Y-76199000D01*
X175078893Y-76199000D01*
X175233642Y-76229781D01*
G37*
G36*
X88657395Y-74655546D02*
G01*
X88830466Y-74727234D01*
X88889019Y-74766358D01*
X88986227Y-74831310D01*
X89118690Y-74963773D01*
X89118691Y-74963775D01*
X89222766Y-75119534D01*
X89294454Y-75292605D01*
X89331000Y-75476333D01*
X89331000Y-75663667D01*
X89294454Y-75847395D01*
X89222766Y-76020466D01*
X89222765Y-76020467D01*
X89118690Y-76176227D01*
X88986227Y-76308690D01*
X88907818Y-76361081D01*
X88830466Y-76412766D01*
X88657395Y-76484454D01*
X88473667Y-76521000D01*
X88286333Y-76521000D01*
X88102605Y-76484454D01*
X87929534Y-76412766D01*
X87852182Y-76361081D01*
X87773773Y-76308690D01*
X87641310Y-76176227D01*
X87537235Y-76020467D01*
X87537234Y-76020466D01*
X87465546Y-75847395D01*
X87429000Y-75663667D01*
X87429000Y-75476333D01*
X87465546Y-75292605D01*
X87537234Y-75119534D01*
X87641309Y-74963775D01*
X87641310Y-74963773D01*
X87773773Y-74831310D01*
X87870981Y-74766358D01*
X87929534Y-74727234D01*
X88102605Y-74655546D01*
X88286333Y-74619000D01*
X88473667Y-74619000D01*
X88657395Y-74655546D01*
G37*
G36*
X103897395Y-74655546D02*
G01*
X104070466Y-74727234D01*
X104129019Y-74766358D01*
X104226227Y-74831310D01*
X104358690Y-74963773D01*
X104358691Y-74963775D01*
X104462766Y-75119534D01*
X104534454Y-75292605D01*
X104571000Y-75476333D01*
X104571000Y-75663667D01*
X104534454Y-75847395D01*
X104462766Y-76020466D01*
X104462765Y-76020467D01*
X104358690Y-76176227D01*
X104226227Y-76308690D01*
X104147818Y-76361081D01*
X104070466Y-76412766D01*
X103897395Y-76484454D01*
X103713667Y-76521000D01*
X103526333Y-76521000D01*
X103342605Y-76484454D01*
X103169534Y-76412766D01*
X103092182Y-76361081D01*
X103013773Y-76308690D01*
X102881310Y-76176227D01*
X102777235Y-76020467D01*
X102777234Y-76020466D01*
X102705546Y-75847395D01*
X102669000Y-75663667D01*
X102669000Y-75476333D01*
X102705546Y-75292605D01*
X102777234Y-75119534D01*
X102881309Y-74963775D01*
X102881310Y-74963773D01*
X103013773Y-74831310D01*
X103110981Y-74766358D01*
X103169534Y-74727234D01*
X103342605Y-74655546D01*
X103526333Y-74619000D01*
X103713667Y-74619000D01*
X103897395Y-74655546D01*
G37*
G36*
X135233642Y-74229781D02*
G01*
X135379414Y-74290162D01*
X135379416Y-74290163D01*
X135510608Y-74377822D01*
X135622178Y-74489392D01*
X135709837Y-74620584D01*
X135709838Y-74620586D01*
X135770219Y-74766358D01*
X135801000Y-74921107D01*
X135801000Y-75078893D01*
X135770219Y-75233642D01*
X135709838Y-75379414D01*
X135709837Y-75379416D01*
X135622178Y-75510608D01*
X135510608Y-75622178D01*
X135379416Y-75709837D01*
X135379415Y-75709838D01*
X135379414Y-75709838D01*
X135233642Y-75770219D01*
X135078893Y-75801000D01*
X134921107Y-75801000D01*
X134766358Y-75770219D01*
X134620586Y-75709838D01*
X134620585Y-75709838D01*
X134620584Y-75709837D01*
X134489392Y-75622178D01*
X134377822Y-75510608D01*
X134290163Y-75379416D01*
X134290162Y-75379414D01*
X134229781Y-75233642D01*
X134199000Y-75078893D01*
X134199000Y-74921107D01*
X134229781Y-74766358D01*
X134290162Y-74620586D01*
X134290163Y-74620584D01*
X134377822Y-74489392D01*
X134489392Y-74377822D01*
X134620584Y-74290163D01*
X134620586Y-74290162D01*
X134766358Y-74229781D01*
X134921107Y-74199000D01*
X135078893Y-74199000D01*
X135233642Y-74229781D01*
G37*
G36*
X175233642Y-74229781D02*
G01*
X175379414Y-74290162D01*
X175379416Y-74290163D01*
X175510608Y-74377822D01*
X175622178Y-74489392D01*
X175709837Y-74620584D01*
X175709838Y-74620586D01*
X175770219Y-74766358D01*
X175801000Y-74921107D01*
X175801000Y-75078893D01*
X175770219Y-75233642D01*
X175709838Y-75379414D01*
X175709837Y-75379416D01*
X175622178Y-75510608D01*
X175510608Y-75622178D01*
X175379416Y-75709837D01*
X175379415Y-75709838D01*
X175379414Y-75709838D01*
X175233642Y-75770219D01*
X175078893Y-75801000D01*
X174921107Y-75801000D01*
X174766358Y-75770219D01*
X174620586Y-75709838D01*
X174620585Y-75709838D01*
X174620584Y-75709837D01*
X174489392Y-75622178D01*
X174377822Y-75510608D01*
X174290163Y-75379416D01*
X174290162Y-75379414D01*
X174229781Y-75233642D01*
X174199000Y-75078893D01*
X174199000Y-74921107D01*
X174229781Y-74766358D01*
X174290162Y-74620586D01*
X174290163Y-74620584D01*
X174377822Y-74489392D01*
X174489392Y-74377822D01*
X174620584Y-74290163D01*
X174620586Y-74290162D01*
X174766358Y-74229781D01*
X174921107Y-74199000D01*
X175078893Y-74199000D01*
X175233642Y-74229781D01*
G37*
G36*
X173233642Y-74229781D02*
G01*
X173379414Y-74290162D01*
X173379416Y-74290163D01*
X173510608Y-74377822D01*
X173622178Y-74489392D01*
X173709837Y-74620584D01*
X173709838Y-74620586D01*
X173770219Y-74766358D01*
X173801000Y-74921107D01*
X173801000Y-75078893D01*
X173770219Y-75233642D01*
X173709838Y-75379414D01*
X173709837Y-75379416D01*
X173622178Y-75510608D01*
X173510608Y-75622178D01*
X173379416Y-75709837D01*
X173379415Y-75709838D01*
X173379414Y-75709838D01*
X173233642Y-75770219D01*
X173078893Y-75801000D01*
X172921107Y-75801000D01*
X172766358Y-75770219D01*
X172620586Y-75709838D01*
X172620585Y-75709838D01*
X172620584Y-75709837D01*
X172489392Y-75622178D01*
X172377822Y-75510608D01*
X172290163Y-75379416D01*
X172290162Y-75379414D01*
X172229781Y-75233642D01*
X172199000Y-75078893D01*
X172199000Y-74921107D01*
X172229781Y-74766358D01*
X172290162Y-74620586D01*
X172290163Y-74620584D01*
X172377822Y-74489392D01*
X172489392Y-74377822D01*
X172620584Y-74290163D01*
X172620586Y-74290162D01*
X172766358Y-74229781D01*
X172921107Y-74199000D01*
X173078893Y-74199000D01*
X173233642Y-74229781D01*
G37*
G36*
X155233642Y-74229781D02*
G01*
X155379414Y-74290162D01*
X155379416Y-74290163D01*
X155510608Y-74377822D01*
X155622178Y-74489392D01*
X155709837Y-74620584D01*
X155709838Y-74620586D01*
X155770219Y-74766358D01*
X155801000Y-74921107D01*
X155801000Y-75078893D01*
X155770219Y-75233642D01*
X155709838Y-75379414D01*
X155709837Y-75379416D01*
X155622178Y-75510608D01*
X155510608Y-75622178D01*
X155379416Y-75709837D01*
X155379415Y-75709838D01*
X155379414Y-75709838D01*
X155233642Y-75770219D01*
X155078893Y-75801000D01*
X154921107Y-75801000D01*
X154766358Y-75770219D01*
X154620586Y-75709838D01*
X154620585Y-75709838D01*
X154620584Y-75709837D01*
X154489392Y-75622178D01*
X154377822Y-75510608D01*
X154290163Y-75379416D01*
X154290162Y-75379414D01*
X154229781Y-75233642D01*
X154199000Y-75078893D01*
X154199000Y-74921107D01*
X154229781Y-74766358D01*
X154290162Y-74620586D01*
X154290163Y-74620584D01*
X154377822Y-74489392D01*
X154489392Y-74377822D01*
X154620584Y-74290163D01*
X154620586Y-74290162D01*
X154766358Y-74229781D01*
X154921107Y-74199000D01*
X155078893Y-74199000D01*
X155233642Y-74229781D01*
G37*
G36*
X131233642Y-74229781D02*
G01*
X131379414Y-74290162D01*
X131379416Y-74290163D01*
X131510608Y-74377822D01*
X131622178Y-74489392D01*
X131709837Y-74620584D01*
X131709838Y-74620586D01*
X131770219Y-74766358D01*
X131801000Y-74921107D01*
X131801000Y-75078893D01*
X131770219Y-75233642D01*
X131709838Y-75379414D01*
X131709837Y-75379416D01*
X131622178Y-75510608D01*
X131510608Y-75622178D01*
X131379416Y-75709837D01*
X131379415Y-75709838D01*
X131379414Y-75709838D01*
X131233642Y-75770219D01*
X131078893Y-75801000D01*
X130921107Y-75801000D01*
X130766358Y-75770219D01*
X130620586Y-75709838D01*
X130620585Y-75709838D01*
X130620584Y-75709837D01*
X130489392Y-75622178D01*
X130377822Y-75510608D01*
X130290163Y-75379416D01*
X130290162Y-75379414D01*
X130229781Y-75233642D01*
X130199000Y-75078893D01*
X130199000Y-74921107D01*
X130229781Y-74766358D01*
X130290162Y-74620586D01*
X130290163Y-74620584D01*
X130377822Y-74489392D01*
X130489392Y-74377822D01*
X130620584Y-74290163D01*
X130620586Y-74290162D01*
X130766358Y-74229781D01*
X130921107Y-74199000D01*
X131078893Y-74199000D01*
X131233642Y-74229781D01*
G37*
G36*
X151233642Y-74229781D02*
G01*
X151379414Y-74290162D01*
X151379416Y-74290163D01*
X151510608Y-74377822D01*
X151622178Y-74489392D01*
X151709837Y-74620584D01*
X151709838Y-74620586D01*
X151770219Y-74766358D01*
X151801000Y-74921107D01*
X151801000Y-75078893D01*
X151770219Y-75233642D01*
X151709838Y-75379414D01*
X151709837Y-75379416D01*
X151622178Y-75510608D01*
X151510608Y-75622178D01*
X151379416Y-75709837D01*
X151379415Y-75709838D01*
X151379414Y-75709838D01*
X151233642Y-75770219D01*
X151078893Y-75801000D01*
X150921107Y-75801000D01*
X150766358Y-75770219D01*
X150620586Y-75709838D01*
X150620585Y-75709838D01*
X150620584Y-75709837D01*
X150489392Y-75622178D01*
X150377822Y-75510608D01*
X150290163Y-75379416D01*
X150290162Y-75379414D01*
X150229781Y-75233642D01*
X150199000Y-75078893D01*
X150199000Y-74921107D01*
X150229781Y-74766358D01*
X150290162Y-74620586D01*
X150290163Y-74620584D01*
X150377822Y-74489392D01*
X150489392Y-74377822D01*
X150620584Y-74290163D01*
X150620586Y-74290162D01*
X150766358Y-74229781D01*
X150921107Y-74199000D01*
X151078893Y-74199000D01*
X151233642Y-74229781D01*
G37*
G36*
X153233642Y-74229781D02*
G01*
X153379414Y-74290162D01*
X153379416Y-74290163D01*
X153510608Y-74377822D01*
X153622178Y-74489392D01*
X153709837Y-74620584D01*
X153709838Y-74620586D01*
X153770219Y-74766358D01*
X153801000Y-74921107D01*
X153801000Y-75078893D01*
X153770219Y-75233642D01*
X153709838Y-75379414D01*
X153709837Y-75379416D01*
X153622178Y-75510608D01*
X153510608Y-75622178D01*
X153379416Y-75709837D01*
X153379415Y-75709838D01*
X153379414Y-75709838D01*
X153233642Y-75770219D01*
X153078893Y-75801000D01*
X152921107Y-75801000D01*
X152766358Y-75770219D01*
X152620586Y-75709838D01*
X152620585Y-75709838D01*
X152620584Y-75709837D01*
X152489392Y-75622178D01*
X152377822Y-75510608D01*
X152290163Y-75379416D01*
X152290162Y-75379414D01*
X152229781Y-75233642D01*
X152199000Y-75078893D01*
X152199000Y-74921107D01*
X152229781Y-74766358D01*
X152290162Y-74620586D01*
X152290163Y-74620584D01*
X152377822Y-74489392D01*
X152489392Y-74377822D01*
X152620584Y-74290163D01*
X152620586Y-74290162D01*
X152766358Y-74229781D01*
X152921107Y-74199000D01*
X153078893Y-74199000D01*
X153233642Y-74229781D01*
G37*
G36*
X171233642Y-74229781D02*
G01*
X171379414Y-74290162D01*
X171379416Y-74290163D01*
X171510608Y-74377822D01*
X171622178Y-74489392D01*
X171709837Y-74620584D01*
X171709838Y-74620586D01*
X171770219Y-74766358D01*
X171801000Y-74921107D01*
X171801000Y-75078893D01*
X171770219Y-75233642D01*
X171709838Y-75379414D01*
X171709837Y-75379416D01*
X171622178Y-75510608D01*
X171510608Y-75622178D01*
X171379416Y-75709837D01*
X171379415Y-75709838D01*
X171379414Y-75709838D01*
X171233642Y-75770219D01*
X171078893Y-75801000D01*
X170921107Y-75801000D01*
X170766358Y-75770219D01*
X170620586Y-75709838D01*
X170620585Y-75709838D01*
X170620584Y-75709837D01*
X170489392Y-75622178D01*
X170377822Y-75510608D01*
X170290163Y-75379416D01*
X170290162Y-75379414D01*
X170229781Y-75233642D01*
X170199000Y-75078893D01*
X170199000Y-74921107D01*
X170229781Y-74766358D01*
X170290162Y-74620586D01*
X170290163Y-74620584D01*
X170377822Y-74489392D01*
X170489392Y-74377822D01*
X170620584Y-74290163D01*
X170620586Y-74290162D01*
X170766358Y-74229781D01*
X170921107Y-74199000D01*
X171078893Y-74199000D01*
X171233642Y-74229781D01*
G37*
G36*
X133233642Y-74229781D02*
G01*
X133379414Y-74290162D01*
X133379416Y-74290163D01*
X133510608Y-74377822D01*
X133622178Y-74489392D01*
X133709837Y-74620584D01*
X133709838Y-74620586D01*
X133770219Y-74766358D01*
X133801000Y-74921107D01*
X133801000Y-75078893D01*
X133770219Y-75233642D01*
X133709838Y-75379414D01*
X133709837Y-75379416D01*
X133622178Y-75510608D01*
X133510608Y-75622178D01*
X133379416Y-75709837D01*
X133379415Y-75709838D01*
X133379414Y-75709838D01*
X133233642Y-75770219D01*
X133078893Y-75801000D01*
X132921107Y-75801000D01*
X132766358Y-75770219D01*
X132620586Y-75709838D01*
X132620585Y-75709838D01*
X132620584Y-75709837D01*
X132489392Y-75622178D01*
X132377822Y-75510608D01*
X132290163Y-75379416D01*
X132290162Y-75379414D01*
X132229781Y-75233642D01*
X132199000Y-75078893D01*
X132199000Y-74921107D01*
X132229781Y-74766358D01*
X132290162Y-74620586D01*
X132290163Y-74620584D01*
X132377822Y-74489392D01*
X132489392Y-74377822D01*
X132620584Y-74290163D01*
X132620586Y-74290162D01*
X132766358Y-74229781D01*
X132921107Y-74199000D01*
X133078893Y-74199000D01*
X133233642Y-74229781D01*
G37*
G36*
X103897395Y-72115546D02*
G01*
X104070466Y-72187234D01*
X104070467Y-72187235D01*
X104226227Y-72291310D01*
X104358690Y-72423773D01*
X104358691Y-72423775D01*
X104462766Y-72579534D01*
X104534454Y-72752605D01*
X104571000Y-72936333D01*
X104571000Y-73123667D01*
X104534454Y-73307395D01*
X104462766Y-73480466D01*
X104462765Y-73480467D01*
X104358690Y-73636227D01*
X104226227Y-73768690D01*
X104147818Y-73821081D01*
X104070466Y-73872766D01*
X103897395Y-73944454D01*
X103713667Y-73981000D01*
X103526333Y-73981000D01*
X103342605Y-73944454D01*
X103169534Y-73872766D01*
X103092182Y-73821081D01*
X103013773Y-73768690D01*
X102881310Y-73636227D01*
X102777235Y-73480467D01*
X102777234Y-73480466D01*
X102705546Y-73307395D01*
X102669000Y-73123667D01*
X102669000Y-72936333D01*
X102705546Y-72752605D01*
X102777234Y-72579534D01*
X102881309Y-72423775D01*
X102881310Y-72423773D01*
X103013773Y-72291310D01*
X103169533Y-72187235D01*
X103169534Y-72187234D01*
X103342605Y-72115546D01*
X103526333Y-72079000D01*
X103713667Y-72079000D01*
X103897395Y-72115546D01*
G37*
G36*
X88657395Y-72115546D02*
G01*
X88830466Y-72187234D01*
X88830467Y-72187235D01*
X88986227Y-72291310D01*
X89118690Y-72423773D01*
X89118691Y-72423775D01*
X89222766Y-72579534D01*
X89294454Y-72752605D01*
X89331000Y-72936333D01*
X89331000Y-73123667D01*
X89294454Y-73307395D01*
X89222766Y-73480466D01*
X89222765Y-73480467D01*
X89118690Y-73636227D01*
X88986227Y-73768690D01*
X88907818Y-73821081D01*
X88830466Y-73872766D01*
X88657395Y-73944454D01*
X88473667Y-73981000D01*
X88286333Y-73981000D01*
X88102605Y-73944454D01*
X87929534Y-73872766D01*
X87852182Y-73821081D01*
X87773773Y-73768690D01*
X87641310Y-73636227D01*
X87537235Y-73480467D01*
X87537234Y-73480466D01*
X87465546Y-73307395D01*
X87429000Y-73123667D01*
X87429000Y-72936333D01*
X87465546Y-72752605D01*
X87537234Y-72579534D01*
X87641309Y-72423775D01*
X87641310Y-72423773D01*
X87773773Y-72291310D01*
X87929533Y-72187235D01*
X87929534Y-72187234D01*
X88102605Y-72115546D01*
X88286333Y-72079000D01*
X88473667Y-72079000D01*
X88657395Y-72115546D01*
G37*
G36*
X103897395Y-69575546D02*
G01*
X104070466Y-69647234D01*
X104070467Y-69647235D01*
X104226227Y-69751310D01*
X104358690Y-69883773D01*
X104358691Y-69883775D01*
X104462766Y-70039534D01*
X104534454Y-70212605D01*
X104571000Y-70396333D01*
X104571000Y-70583667D01*
X104534454Y-70767395D01*
X104462766Y-70940466D01*
X104462765Y-70940467D01*
X104358690Y-71096227D01*
X104226227Y-71228690D01*
X104147818Y-71281081D01*
X104070466Y-71332766D01*
X103897395Y-71404454D01*
X103713667Y-71441000D01*
X103526333Y-71441000D01*
X103342605Y-71404454D01*
X103169534Y-71332766D01*
X103092182Y-71281081D01*
X103013773Y-71228690D01*
X102881310Y-71096227D01*
X102777235Y-70940467D01*
X102777234Y-70940466D01*
X102705546Y-70767395D01*
X102669000Y-70583667D01*
X102669000Y-70396333D01*
X102705546Y-70212605D01*
X102777234Y-70039534D01*
X102881309Y-69883775D01*
X102881310Y-69883773D01*
X103013773Y-69751310D01*
X103169533Y-69647235D01*
X103169534Y-69647234D01*
X103342605Y-69575546D01*
X103526333Y-69539000D01*
X103713667Y-69539000D01*
X103897395Y-69575546D01*
G37*
G36*
X88657395Y-69575546D02*
G01*
X88830466Y-69647234D01*
X88830467Y-69647235D01*
X88986227Y-69751310D01*
X89118690Y-69883773D01*
X89118691Y-69883775D01*
X89222766Y-70039534D01*
X89294454Y-70212605D01*
X89331000Y-70396333D01*
X89331000Y-70583667D01*
X89294454Y-70767395D01*
X89222766Y-70940466D01*
X89222765Y-70940467D01*
X89118690Y-71096227D01*
X88986227Y-71228690D01*
X88907818Y-71281081D01*
X88830466Y-71332766D01*
X88657395Y-71404454D01*
X88473667Y-71441000D01*
X88286333Y-71441000D01*
X88102605Y-71404454D01*
X87929534Y-71332766D01*
X87852182Y-71281081D01*
X87773773Y-71228690D01*
X87641310Y-71096227D01*
X87537235Y-70940467D01*
X87537234Y-70940466D01*
X87465546Y-70767395D01*
X87429000Y-70583667D01*
X87429000Y-70396333D01*
X87465546Y-70212605D01*
X87537234Y-70039534D01*
X87641309Y-69883775D01*
X87641310Y-69883773D01*
X87773773Y-69751310D01*
X87929533Y-69647235D01*
X87929534Y-69647234D01*
X88102605Y-69575546D01*
X88286333Y-69539000D01*
X88473667Y-69539000D01*
X88657395Y-69575546D01*
G37*
G36*
X103897395Y-67035546D02*
G01*
X104070466Y-67107234D01*
X104070467Y-67107235D01*
X104226227Y-67211310D01*
X104358690Y-67343773D01*
X104358691Y-67343775D01*
X104462766Y-67499534D01*
X104534454Y-67672605D01*
X104571000Y-67856333D01*
X104571000Y-68043667D01*
X104534454Y-68227395D01*
X104462766Y-68400466D01*
X104462765Y-68400467D01*
X104358690Y-68556227D01*
X104226227Y-68688690D01*
X104147818Y-68741081D01*
X104070466Y-68792766D01*
X103897395Y-68864454D01*
X103713667Y-68901000D01*
X103526333Y-68901000D01*
X103342605Y-68864454D01*
X103169534Y-68792766D01*
X103092182Y-68741081D01*
X103013773Y-68688690D01*
X102881310Y-68556227D01*
X102777235Y-68400467D01*
X102777234Y-68400466D01*
X102705546Y-68227395D01*
X102669000Y-68043667D01*
X102669000Y-67856333D01*
X102705546Y-67672605D01*
X102777234Y-67499534D01*
X102881309Y-67343775D01*
X102881310Y-67343773D01*
X103013773Y-67211310D01*
X103169533Y-67107235D01*
X103169534Y-67107234D01*
X103342605Y-67035546D01*
X103526333Y-66999000D01*
X103713667Y-66999000D01*
X103897395Y-67035546D01*
G37*
G36*
X88657395Y-67035546D02*
G01*
X88830466Y-67107234D01*
X88830467Y-67107235D01*
X88986227Y-67211310D01*
X89118690Y-67343773D01*
X89118691Y-67343775D01*
X89222766Y-67499534D01*
X89294454Y-67672605D01*
X89331000Y-67856333D01*
X89331000Y-68043667D01*
X89294454Y-68227395D01*
X89222766Y-68400466D01*
X89222765Y-68400467D01*
X89118690Y-68556227D01*
X88986227Y-68688690D01*
X88907818Y-68741081D01*
X88830466Y-68792766D01*
X88657395Y-68864454D01*
X88473667Y-68901000D01*
X88286333Y-68901000D01*
X88102605Y-68864454D01*
X87929534Y-68792766D01*
X87852182Y-68741081D01*
X87773773Y-68688690D01*
X87641310Y-68556227D01*
X87537235Y-68400467D01*
X87537234Y-68400466D01*
X87465546Y-68227395D01*
X87429000Y-68043667D01*
X87429000Y-67856333D01*
X87465546Y-67672605D01*
X87537234Y-67499534D01*
X87641309Y-67343775D01*
X87641310Y-67343773D01*
X87773773Y-67211310D01*
X87929533Y-67107235D01*
X87929534Y-67107234D01*
X88102605Y-67035546D01*
X88286333Y-66999000D01*
X88473667Y-66999000D01*
X88657395Y-67035546D01*
G37*
G36*
X199375256Y-64391298D02*
G01*
X199481579Y-64412447D01*
X199782042Y-64536903D01*
X200052451Y-64717585D01*
X200282415Y-64947549D01*
X200463097Y-65217958D01*
X200587553Y-65518421D01*
X200651000Y-65837391D01*
X200651000Y-66162609D01*
X200587553Y-66481579D01*
X200463097Y-66782042D01*
X200282415Y-67052451D01*
X200052451Y-67282415D01*
X199782042Y-67463097D01*
X199481579Y-67587553D01*
X199375256Y-67608702D01*
X199162611Y-67651000D01*
X198837389Y-67651000D01*
X198624744Y-67608702D01*
X198518421Y-67587553D01*
X198217958Y-67463097D01*
X197947549Y-67282415D01*
X197717585Y-67052451D01*
X197536903Y-66782042D01*
X197412447Y-66481579D01*
X197349000Y-66162609D01*
X197349000Y-65837391D01*
X197412447Y-65518421D01*
X197536903Y-65217958D01*
X197717585Y-64947549D01*
X197947549Y-64717585D01*
X198217958Y-64536903D01*
X198518421Y-64412447D01*
X198624744Y-64391298D01*
X198837389Y-64349000D01*
X199162611Y-64349000D01*
X199375256Y-64391298D01*
G37*
G36*
X117375256Y-64391298D02*
G01*
X117481579Y-64412447D01*
X117782042Y-64536903D01*
X118052451Y-64717585D01*
X118282415Y-64947549D01*
X118463097Y-65217958D01*
X118587553Y-65518421D01*
X118651000Y-65837391D01*
X118651000Y-66162609D01*
X118587553Y-66481579D01*
X118463097Y-66782042D01*
X118282415Y-67052451D01*
X118052451Y-67282415D01*
X117782042Y-67463097D01*
X117481579Y-67587553D01*
X117375256Y-67608702D01*
X117162611Y-67651000D01*
X116837389Y-67651000D01*
X116624744Y-67608702D01*
X116518421Y-67587553D01*
X116217958Y-67463097D01*
X115947549Y-67282415D01*
X115717585Y-67052451D01*
X115536903Y-66782042D01*
X115412447Y-66481579D01*
X115349000Y-66162609D01*
X115349000Y-65837391D01*
X115412447Y-65518421D01*
X115536903Y-65217958D01*
X115717585Y-64947549D01*
X115947549Y-64717585D01*
X116217958Y-64536903D01*
X116518421Y-64412447D01*
X116624744Y-64391298D01*
X116837389Y-64349000D01*
X117162611Y-64349000D01*
X117375256Y-64391298D01*
G37*
G36*
X103897395Y-64495546D02*
G01*
X104070466Y-64567234D01*
X104070467Y-64567235D01*
X104226227Y-64671310D01*
X104358690Y-64803773D01*
X104358691Y-64803775D01*
X104462766Y-64959534D01*
X104534454Y-65132605D01*
X104571000Y-65316333D01*
X104571000Y-65503667D01*
X104534454Y-65687395D01*
X104462766Y-65860466D01*
X104462765Y-65860467D01*
X104358690Y-66016227D01*
X104226227Y-66148690D01*
X104147818Y-66201081D01*
X104070466Y-66252766D01*
X103897395Y-66324454D01*
X103713667Y-66361000D01*
X103526333Y-66361000D01*
X103342605Y-66324454D01*
X103169534Y-66252766D01*
X103092182Y-66201081D01*
X103013773Y-66148690D01*
X102881310Y-66016227D01*
X102777235Y-65860467D01*
X102777234Y-65860466D01*
X102705546Y-65687395D01*
X102669000Y-65503667D01*
X102669000Y-65316333D01*
X102705546Y-65132605D01*
X102777234Y-64959534D01*
X102881309Y-64803775D01*
X102881310Y-64803773D01*
X103013773Y-64671310D01*
X103169533Y-64567235D01*
X103169534Y-64567234D01*
X103342605Y-64495546D01*
X103526333Y-64459000D01*
X103713667Y-64459000D01*
X103897395Y-64495546D01*
G37*
G36*
X88657395Y-64495546D02*
G01*
X88830466Y-64567234D01*
X88830467Y-64567235D01*
X88986227Y-64671310D01*
X89118690Y-64803773D01*
X89118691Y-64803775D01*
X89222766Y-64959534D01*
X89294454Y-65132605D01*
X89331000Y-65316333D01*
X89331000Y-65503667D01*
X89294454Y-65687395D01*
X89222766Y-65860466D01*
X89222765Y-65860467D01*
X89118690Y-66016227D01*
X88986227Y-66148690D01*
X88907818Y-66201081D01*
X88830466Y-66252766D01*
X88657395Y-66324454D01*
X88473667Y-66361000D01*
X88286333Y-66361000D01*
X88102605Y-66324454D01*
X87929534Y-66252766D01*
X87852182Y-66201081D01*
X87773773Y-66148690D01*
X87641310Y-66016227D01*
X87537235Y-65860467D01*
X87537234Y-65860466D01*
X87465546Y-65687395D01*
X87429000Y-65503667D01*
X87429000Y-65316333D01*
X87465546Y-65132605D01*
X87537234Y-64959534D01*
X87641309Y-64803775D01*
X87641310Y-64803773D01*
X87773773Y-64671310D01*
X87929533Y-64567235D01*
X87929534Y-64567234D01*
X88102605Y-64495546D01*
X88286333Y-64459000D01*
X88473667Y-64459000D01*
X88657395Y-64495546D01*
G37*
G36*
X88657395Y-61955546D02*
G01*
X88830466Y-62027234D01*
X88830467Y-62027235D01*
X88986227Y-62131310D01*
X89118690Y-62263773D01*
X89118691Y-62263775D01*
X89222766Y-62419534D01*
X89294454Y-62592605D01*
X89331000Y-62776333D01*
X89331000Y-62963667D01*
X89294454Y-63147395D01*
X89222766Y-63320466D01*
X89222765Y-63320467D01*
X89118690Y-63476227D01*
X88986227Y-63608690D01*
X88907818Y-63661081D01*
X88830466Y-63712766D01*
X88657395Y-63784454D01*
X88473667Y-63821000D01*
X88286333Y-63821000D01*
X88102605Y-63784454D01*
X87929534Y-63712766D01*
X87852182Y-63661081D01*
X87773773Y-63608690D01*
X87641310Y-63476227D01*
X87537235Y-63320467D01*
X87537234Y-63320466D01*
X87465546Y-63147395D01*
X87429000Y-62963667D01*
X87429000Y-62776333D01*
X87465546Y-62592605D01*
X87537234Y-62419534D01*
X87641309Y-62263775D01*
X87641310Y-62263773D01*
X87773773Y-62131310D01*
X87929533Y-62027235D01*
X87929534Y-62027234D01*
X88102605Y-61955546D01*
X88286333Y-61919000D01*
X88473667Y-61919000D01*
X88657395Y-61955546D01*
G37*
G36*
X103897395Y-61955546D02*
G01*
X104070466Y-62027234D01*
X104070467Y-62027235D01*
X104226227Y-62131310D01*
X104358690Y-62263773D01*
X104358691Y-62263775D01*
X104462766Y-62419534D01*
X104534454Y-62592605D01*
X104571000Y-62776333D01*
X104571000Y-62963667D01*
X104534454Y-63147395D01*
X104462766Y-63320466D01*
X104462765Y-63320467D01*
X104358690Y-63476227D01*
X104226227Y-63608690D01*
X104147818Y-63661081D01*
X104070466Y-63712766D01*
X103897395Y-63784454D01*
X103713667Y-63821000D01*
X103526333Y-63821000D01*
X103342605Y-63784454D01*
X103169534Y-63712766D01*
X103092182Y-63661081D01*
X103013773Y-63608690D01*
X102881310Y-63476227D01*
X102777235Y-63320467D01*
X102777234Y-63320466D01*
X102705546Y-63147395D01*
X102669000Y-62963667D01*
X102669000Y-62776333D01*
X102705546Y-62592605D01*
X102777234Y-62419534D01*
X102881309Y-62263775D01*
X102881310Y-62263773D01*
X103013773Y-62131310D01*
X103169533Y-62027235D01*
X103169534Y-62027234D01*
X103342605Y-61955546D01*
X103526333Y-61919000D01*
X103713667Y-61919000D01*
X103897395Y-61955546D01*
G37*
G36*
X91341408Y-54283625D02*
G01*
X91510456Y-54317251D01*
X91828936Y-54449170D01*
X92115560Y-54640686D01*
X92359314Y-54884440D01*
X92550830Y-55171064D01*
X92682749Y-55489544D01*
X92750000Y-55827640D01*
X92750000Y-56172360D01*
X92682749Y-56510456D01*
X92550830Y-56828936D01*
X92359314Y-57115560D01*
X92115560Y-57359314D01*
X91828936Y-57550830D01*
X91510456Y-57682749D01*
X91341408Y-57716375D01*
X91172361Y-57750000D01*
X90827639Y-57750000D01*
X90658592Y-57716375D01*
X90489544Y-57682749D01*
X90171064Y-57550830D01*
X89884440Y-57359314D01*
X89640686Y-57115560D01*
X89449170Y-56828936D01*
X89317251Y-56510456D01*
X89250000Y-56172360D01*
X89250000Y-55827640D01*
X89317251Y-55489544D01*
X89449170Y-55171064D01*
X89640686Y-54884440D01*
X89884440Y-54640686D01*
X90171064Y-54449170D01*
X90489544Y-54317251D01*
X90658592Y-54283625D01*
X90827639Y-54250000D01*
X91172361Y-54250000D01*
X91341408Y-54283625D01*
G37*
G36*
X221341408Y-54283625D02*
G01*
X221510456Y-54317251D01*
X221828936Y-54449170D01*
X222115560Y-54640686D01*
X222359314Y-54884440D01*
X222550830Y-55171064D01*
X222682749Y-55489544D01*
X222750000Y-55827640D01*
X222750000Y-56172360D01*
X222682749Y-56510456D01*
X222550830Y-56828936D01*
X222359314Y-57115560D01*
X222115560Y-57359314D01*
X221828936Y-57550830D01*
X221510456Y-57682749D01*
X221341408Y-57716375D01*
X221172361Y-57750000D01*
X220827639Y-57750000D01*
X220658592Y-57716375D01*
X220489544Y-57682749D01*
X220171064Y-57550830D01*
X219884440Y-57359314D01*
X219640686Y-57115560D01*
X219449170Y-56828936D01*
X219317251Y-56510456D01*
X219250000Y-56172360D01*
X219250000Y-55827640D01*
X219317251Y-55489544D01*
X219449170Y-55171064D01*
X219640686Y-54884440D01*
X219884440Y-54640686D01*
X220171064Y-54449170D01*
X220489544Y-54317251D01*
X220658592Y-54283625D01*
X220827639Y-54250000D01*
X221172361Y-54250000D01*
X221341408Y-54283625D01*
G37*
G36*
X232375256Y-54391298D02*
G01*
X232481579Y-54412447D01*
X232782042Y-54536903D01*
X233052451Y-54717585D01*
X233282415Y-54947549D01*
X233463097Y-55217958D01*
X233575592Y-55489544D01*
X233587553Y-55518422D01*
X233651000Y-55837389D01*
X233651000Y-56162611D01*
X233608702Y-56375256D01*
X233587553Y-56481579D01*
X233463097Y-56782042D01*
X233282415Y-57052451D01*
X233052451Y-57282415D01*
X232782042Y-57463097D01*
X232481579Y-57587553D01*
X232375256Y-57608702D01*
X232162611Y-57651000D01*
X231837389Y-57651000D01*
X231624744Y-57608702D01*
X231518421Y-57587553D01*
X231217958Y-57463097D01*
X230947549Y-57282415D01*
X230717585Y-57052451D01*
X230536903Y-56782042D01*
X230412447Y-56481579D01*
X230391298Y-56375256D01*
X230349000Y-56162611D01*
X230349000Y-55837389D01*
X230412447Y-55518422D01*
X230424409Y-55489544D01*
X230536903Y-55217958D01*
X230717585Y-54947549D01*
X230947549Y-54717585D01*
X231217958Y-54536903D01*
X231518421Y-54412447D01*
X231624744Y-54391298D01*
X231837389Y-54349000D01*
X232162611Y-54349000D01*
X232375256Y-54391298D01*
G37*
G36*
X156375256Y-54391298D02*
G01*
X156481579Y-54412447D01*
X156782042Y-54536903D01*
X157052451Y-54717585D01*
X157282415Y-54947549D01*
X157463097Y-55217958D01*
X157575592Y-55489544D01*
X157587553Y-55518422D01*
X157651000Y-55837389D01*
X157651000Y-56162611D01*
X157608702Y-56375256D01*
X157587553Y-56481579D01*
X157463097Y-56782042D01*
X157282415Y-57052451D01*
X157052451Y-57282415D01*
X156782042Y-57463097D01*
X156481579Y-57587553D01*
X156375256Y-57608702D01*
X156162611Y-57651000D01*
X155837389Y-57651000D01*
X155624744Y-57608702D01*
X155518421Y-57587553D01*
X155217958Y-57463097D01*
X154947549Y-57282415D01*
X154717585Y-57052451D01*
X154536903Y-56782042D01*
X154412447Y-56481579D01*
X154391298Y-56375256D01*
X154349000Y-56162611D01*
X154349000Y-55837389D01*
X154412447Y-55518422D01*
X154424409Y-55489544D01*
X154536903Y-55217958D01*
X154717585Y-54947549D01*
X154947549Y-54717585D01*
X155217958Y-54536903D01*
X155518421Y-54412447D01*
X155624744Y-54391298D01*
X155837389Y-54349000D01*
X156162611Y-54349000D01*
X156375256Y-54391298D01*
G37*
G36*
X80375256Y-54391298D02*
G01*
X80481579Y-54412447D01*
X80782042Y-54536903D01*
X81052451Y-54717585D01*
X81282415Y-54947549D01*
X81463097Y-55217958D01*
X81575592Y-55489544D01*
X81587553Y-55518422D01*
X81651000Y-55837389D01*
X81651000Y-56162611D01*
X81608702Y-56375256D01*
X81587553Y-56481579D01*
X81463097Y-56782042D01*
X81282415Y-57052451D01*
X81052451Y-57282415D01*
X80782042Y-57463097D01*
X80481579Y-57587553D01*
X80375256Y-57608702D01*
X80162611Y-57651000D01*
X79837389Y-57651000D01*
X79624744Y-57608702D01*
X79518421Y-57587553D01*
X79217958Y-57463097D01*
X78947549Y-57282415D01*
X78717585Y-57052451D01*
X78536903Y-56782042D01*
X78412447Y-56481579D01*
X78391298Y-56375256D01*
X78349000Y-56162611D01*
X78349000Y-55837389D01*
X78412447Y-55518422D01*
X78424409Y-55489544D01*
X78536903Y-55217958D01*
X78717585Y-54947549D01*
X78947549Y-54717585D01*
X79217958Y-54536903D01*
X79518421Y-54412447D01*
X79624744Y-54391298D01*
X79837389Y-54349000D01*
X80162611Y-54349000D01*
X80375256Y-54391298D01*
G37*
M02*
