M48
INCH
T1C0.0157
T2C0.0394
T3C0.0433
T4C0.1181
T5C0.1260
%
G90
G05
T1
X031496Y-024803
X031496Y-025787
X038189Y-028740
X038189Y-029724
X038189Y-032776
X038189Y-035728
X038287Y-041732
X041339Y-030315
X041339Y-031299
X041339Y-032283
X041339Y-033268
X041339Y-034252
X041339Y-035236
X041339Y-036220
X041339Y-037205
X041339Y-038189
X041535Y-039764
X051575Y-032677
X052362Y-032874
X052362Y-036220
X053081Y-035817
X053543Y-036713
X053740Y-041339
X054035Y-033366
X054134Y-030906
X054331Y-033868
X054331Y-038189
X054626Y-035630
X054719Y-036708
X055020Y-035433
X055315Y-037205
X055906Y-036220
X056299Y-042520
X056398Y-047244
X059449Y-028642
X059449Y-032874
X060236Y-028819
X060236Y-033268
X060236Y-036220
X060925Y-035226
X061417Y-036713
X061713Y-033455
X061811Y-041339
X062008Y-030906
X062008Y-033868
X062205Y-038189
X062402Y-035039
X062593Y-036708
X062795Y-034843
X063189Y-037205
X063780Y-036220
X063780Y-046063
X064173Y-042520
X067323Y-028248
X067323Y-033071
X068110Y-028642
X068110Y-033858
X068110Y-036220
X068701Y-035423
X069291Y-036713
X069488Y-034252
X069685Y-041339
X069882Y-030906
X070079Y-034547
X070079Y-038189
X070276Y-035138
X070467Y-036708
X070965Y-034843
X071063Y-037205
X071752Y-036220
X072047Y-042520
X073622Y-046063
X074114Y-048031
X081594Y-026762
X081594Y-027953
X081594Y-029134
X081594Y-033465
X081594Y-034646
X082283Y-026969
X082283Y-028150
X082283Y-029331
X082283Y-033661
X083268Y-026969
X083268Y-028150
X083268Y-029331
X083268Y-033661
X083760Y-026673
X083760Y-027854
X083760Y-029035
X083760Y-033366
X084252Y-034941
X084744Y-026083
X084744Y-027264
X084744Y-028445
X084744Y-032776
X084744Y-033957
X085039Y-026378
X085039Y-028740
X085827Y-035236
X086614Y-040157
T2
X067323Y-030315
X061024Y-029528
X052362Y-029528
X072441Y-031496
X060236Y-029528
X059449Y-030315
X085433Y-037189
X085433Y-038189
X086433Y-037189
X086433Y-038189
X087433Y-037189
X087433Y-038189
X061024Y-030315
X068898Y-030315
X067323Y-029528
X083465Y-041913
X083465Y-042913
X084465Y-041913
X084465Y-042913
X085465Y-041913
X085465Y-042913
X086465Y-041913
X086465Y-042913
X087465Y-041913
X087465Y-042913
X064567Y-031496
X056693Y-031496
X053150Y-030315
X051575Y-029528
X060236Y-030315
X053150Y-029528
X059449Y-029528
X051575Y-030315
X052362Y-030315
X068110Y-030315
X068898Y-029528
X068110Y-029528
T3
X034795Y-024752
X034795Y-025752
X034795Y-026752
X034795Y-027752
X034795Y-028752
X034795Y-029752
X034795Y-030752
X034795Y-031752
X034795Y-032752
X034795Y-033752
X034795Y-034752
X034795Y-035752
X034795Y-036752
X034795Y-037752
X034795Y-038752
X034795Y-039752
X034795Y-040752
X034795Y-041752
X034795Y-042752
X034795Y-043752
X040795Y-024752
X040795Y-025752
X040795Y-026752
X040795Y-027752
X040795Y-028752
X040795Y-029752
X040795Y-030752
X040795Y-031752
X040795Y-032752
X040795Y-033752
X040795Y-034752
X040795Y-035752
X040795Y-036752
X040795Y-037752
X040795Y-038752
X040795Y-039752
X040795Y-040752
X040795Y-041752
X040795Y-042752
X040795Y-043752
T4
X087008Y-022047
X035827Y-022047
T5
X046063Y-025984
X046063Y-039764
X078346Y-025984
X078346Y-039764
X061417Y-046063
X031496Y-022047
X091339Y-046063
X061417Y-022047
X091339Y-022047
X031496Y-046063
T0
M30
