0
SECTION
2
HEADER
9
$INSUNITS
70
4
9
$ACADVER
1
AC1014
9
$HANDSEED
5
FFFF
0
ENDSEC
0
SECTION
2
TABLES
0
TABLE
2
VPORT
5
8
100
AcDbSymbolTable
0
ENDTAB
0
TABLE
2
LTYPE
5
5
100
AcDbSymbolTable
0
LTYPE
5
14
100
AcDbSymbolTableRecord
100
AcDbLinetypeTableRecord
2
BYBLOCK
70
0
0
LTYPE
5
15
100
AcDbSymbolTableRecord
100
AcDbLinetypeTableRecord
2
BYLAYER
70
0
0
ENDTAB
0
TABLE
2
LAYER
5
2
100
AcDbSymbolTable
70
2
0
LAYER
5
50
100
AcDbSymbolTableRecord
100
AcDbLayerTableRecord
2
0
70
0
6
CONTINUOUS
0
ENDTAB
0
TABLE
2
STYLE
5
3
100
AcDbSymbolTable
70
1
0
STYLE
5
11
100
AcDbSymbolTableRecord
100
AcDbTextStyleTableRecord
2
STANDARD
70
0
0
ENDTAB
0
TABLE
2
VIEW
5
6
100
AcDbSymbolTable
70
0
0
ENDTAB
0
TABLE
2
UCS
5
7
100
AcDbSymbolTable
70
0
0
ENDTAB
0
TABLE
2
APPID
5
9
100
AcDbSymbolTable
70
2
0
APPID
5
12
100
AcDbSymbolTableRecord
100
AcDbRegAppTableRecord
2
ACAD
70
0
0
ENDTAB
0
TABLE
2
DIMSTYLE
5
A
100
AcDbSymbolTable
70
1
0
ENDTAB
0
TABLE
2
BLOCK_RECORD
5
1
100
AcDbSymbolTable
70
1
0
BLOCK_RECORD
5
1F
100
AcDbSymbolTableRecord
100
AcDbBlockTableRecord
2
*MODEL_SPACE
0
BLOCK_RECORD
5
1B
100
AcDbSymbolTableRecord
100
AcDbBlockTableRecord
2
*PAPER_SPACE
0
ENDTAB
0
ENDSEC
0
SECTION
2
BLOCKS
0
BLOCK
5
20
100
AcDbEntity
100
AcDbBlockBegin
2
*MODEL_SPACE
0
ENDBLK
5
21
100
AcDbEntity
100
AcDbBlockEnd
0
BLOCK
5
1C
100
AcDbEntity
100
AcDbBlockBegin
2
*PAPER_SPACE
0
ENDBLK
5
1D
100
AcDbEntity
100
AcDbBlockEnd
0
ENDSEC
0
SECTION
2
ENTITIES
0
CIRCLE
5
100
100
AcDbEntity
8
0
100
AcDbCircle
10
199.50000000000003
20
74.000001102685914
30
0
40
1.3999999999999999
210
0
220
-0
230
1
0
CIRCLE
5
101
100
AcDbEntity
8
0
100
AcDbCircle
10
116.5
20
74.000001102685914
30
0
40
1.3999999999999999
210
0
220
0
230
1
0
CIRCLE
5
102
100
AcDbEntity
8
0
100
AcDbCircle
10
199.00000296533108
20
66.000000983476639
30
0
40
1.3999999999999999
210
0
220
-0
230
1
0
CIRCLE
5
103
100
AcDbEntity
8
0
100
AcDbCircle
10
117.00000174343586
20
101.00000150501728
30
0
40
1.3999999999999999
210
0
220
-0
230
1
0
CIRCLE
5
104
100
AcDbEntity
8
0
100
AcDbCircle
10
117.00000174343586
20
66.000000983476639
30
0
40
1.3999999999999999
210
0
220
-0
230
1
0
CIRCLE
5
105
100
AcDbEntity
8
0
100
AcDbCircle
10
199.00000296533108
20
101.00000150501728
30
0
40
1.3999999999999999
210
0
220
-0
230
1
0
LWPOLYLINE
5
106
100
AcDbEntity
8
0
100
AcDbPolyline
90
20
70
1
43
0.0
10
136.17500000000001
20
71.000000000000014
10
126.17500000000004
20
61.000000000000014
10
112.00000000000001
20
61.000000000000014
10
112.00000000000001
20
106.00000000000001
10
128.70710678118658
20
106.00000000000001
10
128.70710678118658
20
101.00000000000001
10
147.29289321881345
20
101.00000000000001
10
147.29289321881345
20
106.00000000000001
10
148.70710678118658
20
106.00000000000001
10
148.70710678118658
20
101.00000000000001
10
167.29289321881342
20
101.00000000000001
10
167.29289321881342
20
106.00000000000001
10
168.70710678118658
20
106.00000000000001
10
168.70710678118658
20
101.00000000000001
10
187.29289321881342
20
101.00000000000001
10
187.29289321881342
20
106.00000000000001
10
204.00000000000003
20
106.00000000000001
10
204.00000000000003
20
61.000000000000014
10
197.825001723122
20
61.000000000000014
10
187.825001723122
20
71.000000000000014
0
LWPOLYLINE
5
107
100
AcDbEntity
8
0
100
AcDbPolyline
90
16
70
1
43
0.0
10
177.00000263750553
20
77.000001162290573
42
-0.41421356237310542
10
178.00000263750553
20
78.000001162290573
10
184.00000275671482
20
78.000001162290573
42
0.41421356237309503
10
185.00000275671482
20
79.000001162290573
10
185.00000275671482
20
81.000001221895218
42
0.41421356237309503
10
184.00000275671482
20
82.000001221895218
10
178.00000263750553
20
82.000001221895204
42
0.41421356237309503
10
177.00000263750553
20
81.000001221895204
10
177.00000263750553
20
80.000001177191734
42
-0.41421356237310542
10
176.00000263750553
20
79.000001177191734
10
170.00000000000003
20
79.000001177191734
42
0.41421356237309503
10
169.00000000000003
20
78.000001177191734
10
169.00000000000003
20
74
42
0.41421356237309503
10
170.00000000000003
20
73
10
176.00000263750553
20
73
42
0.41421356237309503
10
177.00000263750553
20
74
0
LWPOLYLINE
5
108
100
AcDbEntity
8
0
100
AcDbPolyline
90
4
70
1
43
0.0
10
133.00000198185444
20
100.00000149011612
10
133.00000198185444
20
91.000001356005669
10
143.00000213086605
20
91.000001356005669
10
143.00000213086605
20
100.00000149011612
0
LWPOLYLINE
5
109
100
AcDbEntity
8
0
100
AcDbPolyline
90
4
70
1
43
0.0
10
153.01926170796929
20
100
10
153.01926170796929
20
91.000001356005669
10
163.01926185698085
20
91.000001356005669
10
163.01926185698085
20
100
0
LWPOLYLINE
5
110
100
AcDbEntity
8
0
100
AcDbPolyline
90
4
70
1
43
0.0
10
173.00000257790089
20
100.00000149011612
10
173.00000257790089
20
91.000001356005669
10
183.0000027269125
20
91.000001356005669
10
183.0000027269125
20
100.00000149011612
0
LWPOLYLINE
5
111
100
AcDbEntity
8
0
100
AcDbPolyline
90
16
70
1
43
0.0
10
157.00000233948228
20
80.000001177191734
42
-0.41421356237309503
10
156.00000233948231
20
79.000001177191734
10
150.00000000000003
20
79.000001177191734
42
0.41421356237309503
10
149.00000000000003
20
78.000001177191734
10
149.00000000000003
20
74
42
0.41421356237309503
10
150.00000000000003
20
73
10
156.00000233948231
20
73
42
0.41421356237309503
10
157.00000233948231
20
74
10
157.00000233948234
20
77.000001162290573
42
-0.41421356237309764
10
158.00000233948231
20
78.000001162290573
10
164.00000233948231
20
78.000001162290573
42
0.41421356237309503
10
165.00000233948231
20
79.000001162290573
10
165.00000233948231
20
81.000000000000014
42
0.41421356237309503
10
164.00000233948231
20
82.000000000000014
10
158.00000233948231
20
82.000000000000014
42
0.41421356237309503
10
157.00000233948231
20
81.000000000000014
0
LWPOLYLINE
5
112
100
AcDbEntity
8
0
100
AcDbPolyline
90
16
70
1
43
0.0
10
137.00000204145906
20
80.000001177191734
42
-0.41421356237309503
10
136.00000204145908
20
79.000001177191734
10
130.00000000000003
20
79.000001177191734
42
0.41421356237309503
10
129.00000000000003
20
78.000001177191734
10
129.00000000000003
20
74
42
0.41421356237309503
10
130.00000000000003
20
73
10
136.00000204145908
20
73
42
0.41421356237309503
10
137.00000204145908
20
74
10
137.00000204145911
20
77.000001162290573
42
-0.41421356237309764
10
138.00000204145908
20
78.000001162290573
10
144.00000216066837
20
78.000001162290573
42
0.41421356237309503
10
145.00000216066837
20
79.000001162290573
10
145.00000216066834
20
81.000001221895218
42
0.41421356237309503
10
144.00000216066837
20
82.000001221895218
10
138.00000204145908
20
82.000001221895204
42
0.41421356237309503
10
137.00000204145908
20
81.000001221895204
0
ENDSEC
0
SECTION
2
OBJECTS
0
DICTIONARY
5
C
100
AcDbDictionary
3
ACAD_GROUP
350
D
3
ACAD_MLINESTYLE
350
17
0
DICTIONARY
5
D
100
AcDbDictionary
0
DICTIONARY
5
1A
330
C
100
AcDbDictionary
0
DICTIONARY
5
17
100
AcDbDictionary
0
ENDSEC
0
EOF
